<svg width="96" height="96" viewBox="0 0 96 96" fill="none" xmlns="http://www.w3.org/2000/svg">
<g clip-path="url(#clip0_12_29)">
<path d="M0.0355225 48.0355C0.0355225 46.6369 0.609786 45.3724 1.53539 44.4649L1.57106 44.4289L42.5 3.49999C44.4526 1.54738 47.6184 1.54737 49.5711 3.49999C51.5237 5.45261 51.5237 8.61845 49.5711 10.5711L17.1066 43.0355L91.0355 43.0355C93.7969 43.0355 96.0355 45.2741 96.0355 48.0355C96.0355 50.797 93.7969 53.0355 91.0355 53.0355L17.1777 53.0355L49.5711 85.4289C51.5237 87.3816 51.5237 90.5474 49.5711 92.5C47.6184 94.4526 44.4526 94.4526 42.5 92.5L2.03699 52.037C0.82171 51.1249 0.0355225 49.672 0.0355225 48.0355Z" fill="black"/>
</g>
<defs>
<clipPath id="clip0_12_29">
<rect width="96" height="96" fill="white"/>
</clipPath>
</defs>
</svg>
