<svg width="96" height="96" viewBox="0 0 96 96" fill="none" xmlns="http://www.w3.org/2000/svg">
<g clip-path="url(#clip0_302_2)">
<path d="M48.071 96C46.6724 96 45.4079 95.4257 44.5005 94.5001L44.4644 94.4645L3.53551 53.5355C1.58289 51.5829 1.58289 48.4171 3.53551 46.4645C5.48813 44.5118 8.65396 44.5118 10.6066 46.4645L43.071 78.9289L43.071 5C43.071 2.23858 45.3096 0 48.071 0C50.8325 0 53.071 2.23858 53.071 5L53.071 78.8579L85.4644 46.4645C87.4171 44.5118 90.5829 44.5118 92.5355 46.4645C94.4881 48.4171 94.4881 51.5829 92.5355 53.5355L52.0725 93.9985C51.1604 95.2138 49.7075 96 48.071 96Z" fill="black"/>
</g>
<defs>
<clipPath id="clip0_302_2">
<rect width="96" height="96" fill="white"/>
</clipPath>
</defs>
</svg>
