<svg width="96" height="96" viewBox="0 0 96 96" fill="none" xmlns="http://www.w3.org/2000/svg">
<path d="M81.9516 81.916C80.9626 82.905 79.6624 83.393 78.3662 83.3802L78.3155 83.3805H20.4333C17.6719 83.3805 15.4333 81.1419 15.4333 78.3805C15.4333 75.619 17.6719 73.3805 20.4333 73.3805L66.345 73.3805L14.0693 21.1048C12.1167 19.1522 12.1167 15.9864 14.0693 14.0337C16.0219 12.0811 19.1878 12.0811 21.1404 14.0337L73.3658 66.2591V20.448C73.3658 17.6865 75.6044 15.448 78.3658 15.448C81.1272 15.448 83.3658 17.6865 83.3658 20.448V77.6713C83.5801 79.1756 83.1087 80.7588 81.9516 81.916Z" fill="black"/>
</svg>
