<svg width="96" height="96" viewBox="0 0 96 96" fill="none" xmlns="http://www.w3.org/2000/svg">
<path d="M14.0693 14.0338C15.0583 13.0448 16.3585 12.5567 17.6547 12.5695L17.7054 12.5693H75.5876C78.349 12.5693 80.5876 14.8079 80.5876 17.5693C80.5876 20.3307 78.349 22.5693 75.5876 22.5693L29.6759 22.5693L81.9516 74.8449C83.9042 76.7975 83.9042 79.9634 81.9516 81.916C79.999 83.8686 76.8331 83.8686 74.8805 81.916L22.6551 29.6906L22.6551 75.5018C22.6551 78.2632 20.4165 80.5018 17.6551 80.5018C14.8937 80.5018 12.6551 78.2632 12.6551 75.5018L12.6551 18.2785C12.4408 16.7742 12.9122 15.1909 14.0693 14.0338Z" fill="black"/>
</svg>
