<svg width="96" height="96" viewBox="0 0 96 96" fill="none" xmlns="http://www.w3.org/2000/svg">
<path d="M14.0693 81.916C13.0804 80.927 12.5923 79.6268 12.6051 78.3306L12.6049 78.28V20.3977C12.6049 17.6363 14.8434 15.3977 17.6049 15.3977C20.3663 15.3977 22.6049 17.6363 22.6049 20.3977L22.6049 66.3094L74.8805 14.0337C76.8331 12.0811 79.999 12.0811 81.9516 14.0337C83.9042 15.9864 83.9042 19.1522 81.9516 21.1048L29.7262 73.3302H75.5374C78.2988 73.3302 80.5374 75.5688 80.5374 78.3302C80.5374 81.0916 78.2988 83.3302 75.5374 83.3302H18.314C16.8097 83.5446 15.2265 83.0732 14.0693 81.916Z" fill="black"/>
</svg>
