<svg width="96" height="96" viewBox="0 0 96 96" fill="none" xmlns="http://www.w3.org/2000/svg">
<g clip-path="url(#clip0_12_23)">
<path d="M96.0356 47.9645C96.0356 49.3631 95.4613 50.6276 94.5357 51.535L94.5 51.5711L53.5711 92.5C51.6185 94.4526 48.4526 94.4526 46.5 92.5C44.5474 90.5474 44.5474 87.3815 46.5 85.4289L78.9645 52.9645L5.03555 52.9645C2.27413 52.9645 0.035553 50.7259 0.035553 47.9645C0.035553 45.203 2.27413 42.9645 5.03555 42.9645L78.8934 42.9645L46.5 10.5711C44.5474 8.61845 44.5474 5.45262 46.5 3.5C48.4526 1.54738 51.6185 1.54738 53.5711 3.5L94.0341 43.963C95.2494 44.8751 96.0356 46.328 96.0356 47.9645Z" fill="black"/>
</g>
<defs>
<clipPath id="clip0_12_23">
<rect width="96" height="96" fill="white"/>
</clipPath>
</defs>
</svg>
