<svg width="96" height="96" viewBox="0 0 96 96" fill="none" xmlns="http://www.w3.org/2000/svg">
<path d="M81.9515 14.0337C82.9405 15.0227 83.4286 16.3229 83.4158 17.6191L83.416 17.6698V75.552C83.416 78.3135 81.1774 80.552 78.416 80.552C75.6546 80.552 73.416 78.3135 73.416 75.552L73.416 29.6403L21.1404 81.916C19.1877 83.8686 16.0219 83.8686 14.0693 81.916C12.1167 79.9634 12.1167 76.7976 14.0693 74.8449L66.2947 22.6195L20.4835 22.6195C17.7221 22.6195 15.4835 20.381 15.4835 17.6195C15.4835 14.8581 17.7221 12.6195 20.4835 12.6195L77.7068 12.6195C79.2111 12.4052 80.7944 12.8766 81.9515 14.0337Z" fill="black"/>
</svg>
