<svg width="96" height="96" viewBox="0 0 96 96" fill="none" xmlns="http://www.w3.org/2000/svg">
<g clip-path="url(#clip0_12_17)">
<path d="M48 0C49.3986 0 50.6631 0.574263 51.5706 1.49987L51.6066 1.53553L92.5355 42.4645C94.4882 44.4171 94.4882 47.5829 92.5355 49.5355C90.5829 51.4882 87.4171 51.4882 85.4645 49.5355L53 17.0711L53 91C53 93.7614 50.7614 96 48 96C45.2386 96 43 93.7614 43 91L43 17.1421L10.6066 49.5355C8.65399 51.4882 5.48816 51.4882 3.53554 49.5355C1.58292 47.5829 1.58292 44.4171 3.53554 42.4645L43.9985 2.00147C44.9107 0.786187 46.3635 0 48 0Z" fill="black"/>
</g>
<defs>
<clipPath id="clip0_12_17">
<rect width="96" height="96" fill="white"/>
</clipPath>
</defs>
</svg>
