<svg width="96" height="96" viewBox="0 0 96 96" fill="none" xmlns="http://www.w3.org/2000/svg">
<path d="M43.2454 67.6186C35.7574 66.8424 29.0059 65.0096 23.2256 60.5163C22.5083 59.9573 21.7678 59.4184 21.1133 58.794C18.5832 56.379 18.3283 53.6131 20.3303 50.7627C22.043 48.3236 24.918 47.6711 27.9063 49.0716C28.4849 49.3431 29.0363 49.6819 29.5643 50.0459C40.337 57.4025 55.136 57.6056 65.9491 50.3767C67.0204 49.5603 68.1656 48.8947 69.4928 48.5548C72.0734 47.8963 74.4801 48.8384 75.865 51.0825C77.4471 53.6453 77.4269 56.1468 75.4775 58.1365C72.4872 61.1869 68.8909 63.3938 64.895 64.9341C61.1166 66.39 56.9781 67.1229 52.8821 67.6096C53.5002 68.2782 53.7915 68.6069 54.178 68.993C59.7398 74.547 65.326 80.0778 70.8696 85.6488C72.7583 87.547 73.1528 89.9007 72.1129 92.1086C70.9758 94.5216 68.4306 96.1092 65.935 95.9393C64.3538 95.8307 63.1206 95.0485 62.0251 93.9516C57.8279 89.7539 53.5518 85.6337 49.4395 81.3567C48.2428 80.113 47.6672 80.3482 46.6111 81.4281C42.3886 85.7483 38.0973 90.0023 33.7808 94.2321C31.8425 96.1313 29.536 96.4732 27.2882 95.3883C24.8988 94.2371 23.3783 91.813 23.4957 89.3769C23.5766 87.729 24.3919 86.4702 25.53 85.3411C31.0342 79.8787 36.5232 74.4022 42.0143 68.9307C42.3775 68.5667 42.7163 68.1806 43.2454 67.6186Z" fill="black"/>
<path d="M47.8068 48.591C34.4484 48.5458 23.4946 37.5395 23.5725 24.2418C23.6494 10.7973 34.6103 -0.037105 48.1002 9.55112e-05C61.6174 0.0362906 72.467 11.0265 72.3992 24.6108C72.3304 37.8813 61.3007 48.6373 47.8068 48.591ZM59.9472 24.2739C59.9239 17.6714 54.6332 12.415 48.0031 12.409C41.3173 12.4019 35.979 17.7538 36.0306 24.4167C36.0802 30.9942 41.4164 36.2133 48.0648 36.1892C54.6929 36.1661 59.9695 30.8755 59.9472 24.2739Z" fill="black"/>
</svg>
