<svg width="96" height="96" viewBox="0 0 96 96" fill="none" xmlns="http://www.w3.org/2000/svg">
<path fill-rule="evenodd" clip-rule="evenodd" d="M6.57299 43.0721C32.3375 31.9584 49.4893 24.5737 58.102 20.991C82.6151 10.8279 87.768 9.07312 91.0806 9C91.8167 9 93.4362 9.14623 94.5404 10.0236C95.4237 10.7548 95.6446 11.7053 95.7918 12.4365C95.939 13.1676 96.0863 14.703 95.939 15.8729C94.614 29.7649 88.8722 63.4714 85.9277 78.972C84.6763 85.5524 82.247 87.7459 79.8914 87.9653C74.7385 88.404 70.837 84.6019 65.905 81.3848C58.102 76.3398 53.7588 73.1958 46.1767 68.2239C37.4168 62.5209 43.085 59.3769 48.0907 54.2588C49.4157 52.9427 72.0148 32.4702 72.4565 30.6423C72.5301 30.423 72.5301 29.5456 72.0148 29.1069C71.4995 28.6682 70.7634 28.8144 70.1745 28.9607C69.3648 29.1069 56.9978 37.2959 32.9264 53.4545C29.393 55.8673 26.2276 57.0372 23.3567 56.9641C20.1914 56.891 14.1551 55.2093 9.59112 53.747C4.07016 51.9922 -0.346616 51.0417 0.0214487 47.9708C0.242287 46.3623 2.45067 44.7537 6.57299 43.0721Z" fill="black"/>
</svg>
