<svg width="96" height="96" viewBox="0 0 96 96" fill="none" xmlns="http://www.w3.org/2000/svg">
<path d="M91.8263 63.8978C89.7362 61.411 87.3609 59.1822 85.0638 57.0268C84.247 56.2602 83.4025 55.4676 82.5884 54.6796C80.2511 52.4146 80.166 51.5637 82.0165 48.9911C83.2968 47.2177 84.6542 45.442 85.967 43.7247C87.1577 42.1667 88.389 40.5555 89.5692 38.939L89.8115 38.6066C92.0671 35.5133 94.3998 32.3147 95.6412 28.4561C95.9636 27.4381 96.3021 25.94 95.5281 24.6873C94.7547 23.4357 93.2543 23.0538 92.1928 22.8755C91.6678 22.7872 91.1464 22.7752 90.6626 22.7752L75.8911 22.7647L75.769 22.7637C73.5356 22.7637 72.0305 23.8068 71.168 25.9531C70.3446 28.0038 69.4401 30.1875 68.408 32.2639C66.354 36.3985 63.7454 41.1607 59.9707 45.1325L59.8111 45.3014C59.3653 45.7762 58.8603 46.3139 58.4912 46.3139C58.4346 46.3139 58.3731 46.3032 58.3033 46.2814C57.5214 45.9795 56.9966 44.1034 57.0204 43.2308C57.0207 43.2187 57.0209 43.2067 57.0209 43.1946L57.0106 26.2731C57.0106 26.2145 57.0064 26.1563 56.9987 26.0982C56.623 23.3474 55.7906 21.6351 52.6456 21.0246C52.5621 21.0081 52.4767 21 52.3916 21H37.0322C34.5298 21 33.151 22.0081 31.8549 23.5169C31.505 23.9202 30.7768 24.7599 31.1377 25.7784C31.504 26.8121 32.6928 27.0332 33.0799 27.1049C35.0015 27.4674 36.0846 28.6324 36.3914 30.6679C36.927 34.2025 36.9928 37.9752 36.5986 42.5409C36.4886 43.8099 36.2712 44.7899 35.9129 45.6272C35.8296 45.8226 35.5345 46.4603 35.2335 46.4606C35.1378 46.4606 34.8612 46.4234 34.3573 46.0792C33.1658 45.2702 32.294 44.1158 31.2778 42.6897C27.8204 37.8469 24.9187 32.5119 22.4058 26.3763C21.4738 24.1177 19.7332 22.8532 17.5025 22.816C15.0513 22.7791 12.829 22.7613 10.7095 22.7613C8.39372 22.7613 6.24673 22.7825 4.15022 22.8257C2.35548 22.8571 1.11406 23.3904 0.460851 24.4118C-0.193417 25.434 -0.150874 26.7768 0.587424 28.4021C6.4975 41.4247 11.8561 50.8933 17.9628 59.1044C22.2417 64.85 26.5335 68.827 31.468 71.6192C36.6667 74.5669 42.4928 76 49.2786 76C50.0478 76 50.8432 75.9814 51.6451 75.9442C55.5882 75.7538 57.051 74.3393 57.236 70.5341C57.324 68.5895 57.5386 66.55 58.5031 64.8107C59.1119 63.715 59.6795 63.715 59.866 63.715C60.2254 63.715 60.6709 63.8789 61.1495 64.1861C62.0077 64.7413 62.7436 65.4851 63.3469 66.1349C63.9148 66.7522 64.4763 67.3758 65.0383 67.9997C66.2512 69.3461 67.5053 70.7381 68.8155 72.0584C71.683 74.95 74.8421 76.2218 78.4704 75.9458H92.0134C92.0422 75.9458 92.0713 75.9447 92.1001 75.9429C93.4496 75.8546 94.6183 75.1127 95.3067 73.9074C96.1594 72.4143 96.1422 70.5095 95.2607 68.8108C94.2605 66.89 92.9631 65.2489 91.8263 63.8978Z" fill="black"/>
</svg>
