<svg width="96" height="96" viewBox="0 0 96 96" fill="none" xmlns="http://www.w3.org/2000/svg">
<path d="M60.283 89L37.597 65.1499H57.7268L76.4717 84.7743V89H60.283ZM0 89V21.4876H61.2414C64.0816 21.4876 66.6378 22.1136 68.91 23.3656C71.2528 24.5549 73.1346 26.1825 74.5549 28.2485C75.9748 30.3141 76.6847 32.5677 76.6847 35.009V52.8495C76.6847 55.2907 75.9748 57.5444 74.5549 59.61C73.1346 61.6132 71.2528 63.2408 68.91 64.4926C66.6378 65.6821 64.0816 66.2766 61.2414 66.2766L15.337 66.3706V89H0ZM15.9759 52.6614H60.496C60.7089 52.6614 60.8509 52.6302 60.9219 52.5678C61.0639 52.4426 61.1349 52.3173 61.1349 52.1921V35.5723C61.1349 35.3843 61.0639 35.259 60.9219 35.1967C60.8509 35.0714 60.7089 35.009 60.496 35.009H15.9759C15.7629 35.009 15.5855 35.0714 15.4435 35.1967C15.3725 35.259 15.337 35.3843 15.337 35.5723V52.1921C15.337 52.3173 15.3725 52.4426 15.4435 52.5678C15.5855 52.6302 15.7629 52.6614 15.9759 52.6614Z" fill="black"/>
<path d="M86.3423 26.4134C91.6761 26.4134 96 22.0676 96 16.7067C96 11.3458 91.6761 7 86.3423 7C81.0086 7 76.6847 11.3458 76.6847 16.7067C76.6847 22.0676 81.0086 26.4134 86.3423 26.4134Z" fill="black"/>
</svg>
