<svg width="96" height="96" viewBox="0 0 96 96" fill="none" xmlns="http://www.w3.org/2000/svg">
<path d="M93.9937 24.5C92.8875 20.3563 89.6438 17.1125 85.5 16.0063C78.0187 14 48 14 48 14C48 14 17.9813 14 10.4813 16.0063C6.3375 17.1125 3.1125 20.3563 1.9875 24.5C0 32 0 47.6375 0 47.6375C0 47.6375 0 63.275 2.00625 70.775C3.1125 74.9188 6.375 78.1625 10.5 79.2688C17.9813 81.275 48 81.275 48 81.275C48 81.275 78.0188 81.275 85.5188 79.2688C89.6625 78.1625 92.9062 74.9 94.0125 70.775C96 63.275 96 47.6375 96 47.6375C96 47.6375 96 32 93.9937 24.5ZM38.4563 62V33.275L63.3188 47.525L38.4563 62Z" fill="black"/>
</svg>
