<!-- Generated by IcoMoon.io -->
<svg version="1.1" xmlns="http://www.w3.org/2000/svg" width="32" height="32" viewBox="0 0 32 32">
<title>adress</title>
<path d="M16 3.81c-5.049 0-9.143 4.093-9.143 9.143 0 1.676 0.907 4.053 2.773 7.269 0.137 0.214 0.374 0.353 0.643 0.353 0.421 0 0.762-0.341 0.762-0.762 0-0.129-0.032-0.251-0.089-0.357-2.124-3.653-2.566-5.55-2.566-6.503 0-4.208 3.411-7.619 7.619-7.619s7.619 3.411 7.619 7.619c0 2.286-2.621 7.23-7.010 13.173-0.14 0.186-0.361 0.305-0.61 0.305s-0.469-0.119-0.608-0.303c-0.725-0.977-1.419-1.96-2.074-2.92-0.141-0.176-0.355-0.287-0.596-0.287-0.421 0-0.762 0.341-0.762 0.762 0 0.139 0.037 0.27 0.103 0.382 0.661 0.972 1.369 1.97 2.101 2.968 0.421 0.564 1.086 0.924 1.836 0.924s1.415-0.361 1.832-0.919c2.74-3.701 7.311-10.444 7.311-14.086 0-5.049-4.093-9.143-9.143-9.143zM16 8.861c0 0 0.001 0 0.001 0 0.458 0 0.898 0.081 1.305 0.229 0.050 0.019 0.137 0.035 0.229 0.035 0.428 0 0.775-0.347 0.775-0.775 0-0.336-0.214-0.623-0.514-0.73-0.539-0.199-1.156-0.312-1.799-0.312-2.946 0-5.333 2.388-5.333 5.333s2.388 5.333 5.333 5.333c2.946 0 5.333-2.388 5.333-5.333 0-0.592-0.096-1.161-0.274-1.693-0.083-0.284-0.375-0.515-0.722-0.515-0.421 0-0.762 0.341-0.762 0.762 0 0.095 0.017 0.185 0.049 0.269 0.124 0.356 0.196 0.773 0.196 1.206 0 2.104-1.706 3.81-3.81 3.81s-3.81-1.706-3.81-3.81c0-2.101 1.701-3.805 3.802-3.81z"></path>
</svg>
