<!-- Generated by IcoMoon.io -->
<svg version="1.1" xmlns="http://www.w3.org/2000/svg" width="32" height="32" viewBox="0 0 32 32">
<title>arrow-right</title>
<path d="M24.51 14.682l-15.497-8.945c-0.219-0.128-0.481-0.204-0.762-0.204-0.841 0-1.523 0.681-1.524 1.522v5.897c0 0.421 0.341 0.762 0.762 0.762s0.762-0.341 0.762-0.762v-5.897l15.497 8.945-15.497 8.945v-5.897c0-0.421-0.341-0.762-0.762-0.762s-0.762 0.341-0.762 0.762v5.897c0.001 0.841 0.683 1.522 1.524 1.522 0.281 0 0.543-0.076 0.769-0.208l15.49-8.941c0.457-0.269 0.759-0.758 0.759-1.318s-0.302-1.049-0.752-1.314z"></path>
</svg>
