<!-- Generated by IcoMoon.io -->
<svg version="1.1" xmlns="http://www.w3.org/2000/svg" width="32" height="32" viewBox="0 0 32 32">
<title>arrow-left</title>
<path d="M24.51 5.737c-0.219-0.128-0.481-0.204-0.762-0.204s-0.543 0.076-0.769 0.208l-15.49 8.941c-0.457 0.269-0.759 0.758-0.759 1.318s0.302 1.049 0.752 1.314l15.504 8.949c0.219 0.128 0.481 0.204 0.762 0.204 0.841 0 1.523-0.681 1.524-1.522v-5.897c0-0.421-0.341-0.762-0.762-0.762s-0.762 0.341-0.762 0.762v5.897l-15.497-8.945 15.497-8.945v5.897c0 0.421 0.341 0.762 0.762 0.762s0.762-0.341 0.762-0.762v-5.897c-0.001-0.56-0.304-1.050-0.755-1.314z"></path>
</svg>
