<!-- Generated by IcoMoon.io -->
<svg version="1.1" xmlns="http://www.w3.org/2000/svg" width="32" height="32" viewBox="0 0 32 32">
<title>atom</title>
<path d="M23.276 16.107c2.568-2.469 4.053-5.013 3.002-6.659-0.358-0.564-1.143-1.181-2.842-1.143-0.408 0.017-0.732 0.351-0.732 0.762 0 0.421 0.341 0.762 0.762 0.762 0.011 0 0.021-0 0.032-0.001 0.76 0 1.309 0.137 1.522 0.434 0.442 0.693-0.526 2.575-2.811 4.777-0.526-0.48-1.097-0.96-1.691-1.425-0.124-2.164-0.508-4.192-1.122-6.117-1.049-3.018-2.428-3.689-3.396-3.689v0c-1.768 0-3.048 2.11-3.81 5.074-2.872-1.044-5.333-1.181-6.316 0.274-0.373 0.556-0.632 1.524 0.076 3.048 0.126 0.258 0.386 0.433 0.687 0.433 0.143 0 0.276-0.039 0.39-0.107l-0.003 0.002c0.224-0.135 0.372-0.378 0.372-0.654 0-0.119-0.027-0.232-0.076-0.333-0.318-0.696-0.387-1.253-0.189-1.519s1.326-0.64 3.444-0.046c0.411 0.114 0.846 0.267 1.28 0.427-0.164 0.878-0.3 1.957-0.376 3.053-4.15 3.141-7.198 6.951-5.803 9.107 0.55 0.706 1.401 1.156 2.356 1.156 0.123 0 0.244-0.007 0.363-0.022 1.368-0.053 2.669-0.328 3.879-0.789 0.038 0.508 0.16 0.973 0.305 1.407 1.074 3.2 2.453 3.87 3.421 3.87v0c0.67 0 1.608-0.328 2.491-1.79 0.065-0.11 0.104-0.243 0.104-0.384 0-0.304-0.178-0.566-0.435-0.688l-0.005-0.002c-0.095-0.046-0.207-0.073-0.325-0.073-0.279 0-0.523 0.15-0.656 0.374-0.413 0.666-0.817 1.040-1.175 1.040v0c-0.472 0-1.272-0.762-1.973-2.827-0.152-0.45-0.282-0.937-0.404-1.448 0.762-0.312 1.524-0.67 2.286-1.074 1.446 0.851 3.117 1.591 4.874 2.134 0.938 0.286 1.824 0.435 2.741 0.456 0.113 0.013 0.231 0.021 0.351 0.021 0.894 0 1.692-0.417 2.208-1.066 0.545-0.806 0.766-2.291-1.276-5.004-0.499-0.643-1.001-1.214-1.534-1.755zM11.429 15.535c0 0.16 0 0.312 0 0.472s0 0.229 0 0.335l-0.472-0.411zM7.010 21.737c-0.442-0.693 0.526-2.575 2.819-4.785q0.762 0.716 1.684 1.417c0.079 1.154 0.209 2.199 0.392 3.226-2.647 0.758-4.491 0.781-4.895 0.141zM18.85 12.412l-0.282-0.221-0.937-0.61c0.35-0.168 0.693-0.328 1.036-0.472q0.107 0.648 0.183 1.303zM16 5.333v0c0.472 0 1.272 0.762 1.973 2.827 0.152 0.45 0.282 0.93 0.404 1.44-0.762 0.312-1.524 0.678-2.286 1.082-0.808-0.45-1.615-0.869-2.415-1.219 0.625-2.606 1.562-4.13 2.324-4.13zM13.356 10.994c0.381 0.175 0.762 0.366 1.15 0.564-0.32 0.19-0.64 0.381-0.96 0.587l-0.396 0.259c0.053-0.495 0.122-0.975 0.198-1.41zM13.356 20.899q-0.099-0.625-0.175-1.288l0.282 0.198 0.937 0.617q-0.564 0.229-1.074 0.442zM18.69 21.029c-0.381-0.175-0.762-0.366-1.15-0.564 0.32-0.19 0.648-0.381 0.96-0.579l0.389-0.259c-0.099 0.45-0.16 0.945-0.236 1.379zM19.040 17.676c-0.434 0.305-0.884 0.617-1.364 0.922s-1.143 0.701-1.691 1.006c-0.556-0.328-1.105-0.678-1.661-1.051s-0.876-0.61-1.295-0.93c-0.076-0.556-0.076-1.082-0.076-1.623s0-1.112 0.046-1.646c0.434-0.305 0.884-0.617 1.364-0.922s1.128-0.686 1.691-1.006c0.549 0.328 1.105 0.678 1.653 1.051s0.876 0.617 1.295 0.93c0 0.526 0.046 1.051 0.046 1.592s0 1.105-0.046 1.646zM20.571 15.657l0.48 0.411-0.48 0.396c0-0.16 0-0.312 0-0.472s0-0.221 0-0.335zM24.83 21.989c-0.267 0.396-1.326 0.64-3.444 0.046-0.411-0.114-0.838-0.267-1.272-0.427 0.16-0.937 0.297-2.126 0.373-3.147 0.579-0.434 1.143-0.876 1.669-1.326 0.51 0.505 0.989 1.040 1.435 1.601 1.339 1.782 1.506 2.856 1.24 3.252z"></path>
</svg>
