<!-- Generated by IcoMoon.io -->
<svg version="1.1" xmlns="http://www.w3.org/2000/svg" width="32" height="32" viewBox="0 0 32 32">
<title>award</title>
<path d="M8.48 6.819c0.421 0 0.762-0.341 0.762-0.762s0.341-0.762 0.762-0.762h12.091c0.421 0 0.762 0.341 0.762 0.762s0.341 0.762 0.762 0.762c0.421 0 0.762-0.341 0.762-0.762 0-1.262-1.023-2.286-2.286-2.286h-12.091c-1.262 0-2.286 1.023-2.286 2.286 0 0.421 0.341 0.762 0.762 0.762zM20.571 26.667h-9.143c-0.421 0-0.762 0.341-0.762 0.762s0.341 0.762 0.762 0.762h9.143c0.421 0 0.762-0.341 0.762-0.762s-0.341-0.762-0.762-0.762zM12.952 25.143c0 0.421 0.341 0.762 0.762 0.762h4.571c0.421 0 0.762-0.341 0.762-0.762s-0.341-0.762-0.762-0.762h-4.571c-0.421 0-0.762 0.341-0.762 0.762zM16 23.68c-0.421 0-0.762-0.341-0.762-0.762v-2.75c0-0.001 0-0.002 0-0.002 0-0.203-0.142-0.373-0.332-0.416-2.106-0.473-7.447-2.225-7.287-8.321v-1.272c0.002-0.010 0.002-0.021 0.002-0.032 0-0.112-0.083-0.205-0.192-0.219l-1.799-0c-0 0-0 0-0 0-0.122 0-0.221 0.099-0.221 0.221 0 0.003 0 0.005 0 0.008 0.056 1.186 0.539 2.249 1.297 3.049 0.112 0.13 0.181 0.304 0.181 0.493 0 0.421-0.341 0.762-0.762 0.762-0.19 0-0.363-0.069-0.497-0.184-1.073-1.131-1.737-2.662-1.744-4.348-0-0.009-0-0.017-0-0.026 0-0.411 0.163-0.784 0.427-1.058 0.275-0.273 0.654-0.441 1.073-0.441 0.003 0 0.006 0 0.009 0h2.285c0.842 0 1.524 0.682 1.524 1.524v1.524c-0.16 5.074 4.411 6.484 6.377 6.857 0.682 0.161 1.181 0.765 1.181 1.485 0 0.014-0 0.027-0.001 0.041l0 3.107c0 0.421-0.341 0.762-0.762 0.762zM27.825 8.876c-0.277-0.282-0.662-0.457-1.088-0.457-0.003 0-0.006 0-0.009 0h-2.285c-0.842 0-1.524 0.682-1.524 1.524v1.524c0.008 0.118 0.013 0.257 0.013 0.396 0 2.418-1.421 4.505-3.473 5.47-0.269 0.149-0.423 0.396-0.423 0.678 0 0.208 0.083 0.396 0.218 0.534l-0-0c0.137 0.135 0.326 0.219 0.534 0.219 0.131 0 0.254-0.033 0.361-0.091 2.58-1.207 4.338-3.786 4.338-6.775 0-0.165-0.005-0.329-0.016-0.491l0.001-1.25c0-0.122 0.099-0.221 0.221-0.221h1.798c0 0 0 0 0 0 0.122 0 0.221 0.099 0.221 0.221 0 0.003-0 0.005-0 0.008-0.056 1.186-0.539 2.249-1.297 3.049-0.112 0.13-0.181 0.304-0.181 0.493 0 0.421 0.341 0.762 0.762 0.762 0.19 0 0.363-0.069 0.497-0.184 1.073-1.131 1.737-2.662 1.744-4.348 0-0.007 0-0.013 0-0.019 0-0.403-0.157-0.77-0.412-1.042z"></path>
</svg>
