<!-- Generated by IcoMoon.io -->
<svg version="1.1" xmlns="http://www.w3.org/2000/svg" width="32" height="32" viewBox="0 0 32 32">
<title>bachleor</title>
<path d="M17.604 25.671l-2.315-1.262c-0.073-0.040-0.16-0.064-0.253-0.064-0.295 0-0.533 0.239-0.533 0.533 0 0.004 0 0.007 0 0.011l0.032 4.227-1.301 1.301-2.489-4.491 0.942-0.942c0.096-0.096 0.156-0.23 0.156-0.377s-0.060-0.28-0.156-0.377l-3.911-3.911c-0.098-0.093-0.231-0.15-0.377-0.15s-0.279 0.057-0.377 0.151l-0.942 0.921-4.491-2.489 1.301-1.301 4.22 0.046c0.003 0 0.007 0 0.010 0 0.295 0 0.533-0.239 0.533-0.533 0-0.093-0.024-0.18-0.065-0.255l-3.945-7.222 1.156-1.156 7.691 0.060c0.295 0 0.533-0.239 0.533-0.533s-0.239-0.533-0.533-0.533l-7.911-0.064c-0.003-0-0.007-0-0.010-0-0.145 0-0.276 0.060-0.37 0.156l-1.593 1.597c-0.097 0.097-0.157 0.23-0.157 0.378 0 0.093 0.024 0.181 0.066 0.258l3.707 6.774-3.556-0.028c-0.148 0-0.283 0.060-0.381 0.157l-1.952 1.963c-0.096 0.096-0.155 0.229-0.155 0.376 0 0.2 0.11 0.374 0.273 0.466l5.464 3.013c0.074 0.042 0.163 0.066 0.257 0.066 0.147 0 0.279-0.059 0.376-0.155l0.85-0.85 3.172 3.172-0.85 0.85c-0.096 0.096-0.155 0.229-0.155 0.376 0 0.094 0.024 0.183 0.067 0.26l3.007 5.459c0.080 0.144 0.222 0.245 0.388 0.27l0.078 0c0.147-0 0.28-0.060 0.377-0.156l1.963-1.963c0.097-0.097 0.156-0.23 0.156-0.377 0-0.001 0-0.002 0-0.003l-0.028-3.555 1.518 0.828c0.070 0.036 0.153 0.057 0.241 0.057 0.295 0 0.533-0.239 0.533-0.533 0-0.195-0.104-0.365-0.26-0.458zM28.302 8.356c2.631-2.82 4.455-6.251 3.022-7.68-1.5-1.5-5.195 0.572-8.082 3.403l-0.032 0.028-0.103 0.103-3.506 0.206c-0.139 0.006-0.264 0.065-0.356 0.156l-2.944 2.944c-0.096 0.097-0.155 0.23-0.155 0.377 0 0.296 0.24 0.537 0.537 0.537 0.15 0 0.285-0.061 0.382-0.16l2.802-2.802 2.108-0.135-12.622 12.622c-0.105 0.098-0.17 0.236-0.17 0.39 0 0.295 0.239 0.533 0.533 0.533 0.154 0 0.293-0.065 0.39-0.169l13.842-13.828c3.15-3.104 5.977-4.1 6.628-3.46s-0.356 3.47-3.438 6.606l-13.444 13.444c-0.105 0.098-0.17 0.236-0.17 0.39 0 0.295 0.239 0.533 0.533 0.533 0.154 0 0.293-0.065 0.39-0.169l12.217-12.203-0.124 2.105-2.812 2.805c-0.097 0.097-0.156 0.23-0.156 0.377 0 0.001 0 0.002 0 0.003l0.092 11.893-1.156 1.156-1.778-0.978c-0.070-0.036-0.153-0.057-0.241-0.057-0.295 0-0.533 0.239-0.533 0.533 0 0.195 0.104 0.365 0.26 0.458l2.136 1.171c0.074 0.041 0.161 0.065 0.255 0.065 0.148 0 0.282-0.060 0.378-0.157l1.593-1.593c0.097-0.097 0.156-0.23 0.156-0.377 0-0.001 0-0.002 0-0.003l-0.092-11.893 2.784-2.784c0.092-0.091 0.15-0.216 0.156-0.354l0.206-3.503 0.459-0.459c0.019-0.022 0.037-0.046 0.052-0.072z"></path>
</svg>
