<!-- Generated by IcoMoon.io -->
<svg version="1.1" xmlns="http://www.w3.org/2000/svg" width="32" height="32" viewBox="0 0 32 32">
<title>base-cathedra</title>
<path d="M17.696 11.705c1.136 0.57 1.996 1.548 2.401 2.736 0.086 0.245 0.284 0.393 0.517 0.393 0.297 0 0.537-0.24 0.537-0.537 0-0.064-0.011-0.125-0.031-0.182-0.505-1.491-1.558-2.687-2.913-3.369-0.103-0.051-0.185-0.071-0.272-0.071-0.295 0-0.534 0.239-0.534 0.534 0 0.208 0.119 0.389 0.293 0.477zM11.733 23.637c0.956 0.494 2.077 0.817 3.264 0.895q0.292 0.001 0.559 0.001c4.72-0.006 8.544-3.834 8.544-8.555 0-4.725-3.83-8.555-8.555-8.555s-8.555 3.83-8.555 8.555c0 3.336 1.909 6.225 4.694 7.636zM8.476 18.372c-0.245-0.708-0.387-1.523-0.387-2.372 0-4.123 3.342-7.466 7.466-7.467q0.231 0 0.466 0c3.922 0.249 7.008 3.49 7.008 7.453 0 1.218-0.292 2.368-0.809 3.384l0.020-0.042c-1.251 2.473-3.773 4.138-6.684 4.138-3.275 0-6.058-2.108-7.064-5.042zM3.833 22.354c-0.206-0.377-0.395-0.768-0.562-1.166s-0.32-0.811-0.448-1.223-0.242-0.846-0.334-1.276-0.156-0.878-0.203-1.323c-0.044-0.409-0.069-0.883-0.069-1.364s0.025-0.955 0.074-1.422c0.041-0.386 0.109-0.834 0.198-1.264s0.199-0.86 0.327-1.276c0.005-0.027 0.008-0.058 0.008-0.090 0-0.295-0.239-0.533-0.533-0.533-0.216 0-0.403 0.129-0.486 0.314-0.14 0.455-0.261 0.921-0.357 1.383s-0.171 0.949-0.217 1.422c-0.047 0.441-0.074 0.954-0.074 1.472s0.027 1.031 0.080 1.535c0.044 0.417 0.116 0.901 0.212 1.359s0.213 0.928 0.356 1.38 0.302 0.892 0.484 1.323 0.384 0.853 0.608 1.259 0.462 0.804 0.711 1.188c0.098 0.138 0.257 0.227 0.436 0.227 0.295 0 0.533-0.239 0.533-0.533 0-0.102-0.029-0.198-0.079-0.279-0.23-0.353-0.461-0.734-0.664-1.111zM29.422 15.467c-0.295 0-0.533 0.239-0.533 0.533 0 0.002 0 0.004 0 0.007 0 0.477-0.025 0.949-0.072 1.413-0.041 0.386-0.109 0.834-0.198 1.264s-0.199 0.86-0.327 1.276-0.281 0.825-0.448 1.223-0.356 0.789-0.562 1.166-0.43 0.761-0.668 1.116-0.494 0.711-0.768 1.028-0.558 0.647-0.86 0.946-0.619 0.59-0.946 0.86-0.672 0.53-1.028 0.768-0.711 0.466-1.099 0.668-0.772 0.395-1.166 0.562-0.811 0.32-1.223 0.448-0.846 0.242-1.276 0.327c-0.356 0.078-0.807 0.149-1.264 0.198-0.464 0.048-0.935 0.073-1.411 0.073-0.004 0-0.009 0-0.013 0-0.294 0-0.533 0.239-0.533 0.533s0.239 0.533 0.533 0.533c0.519-0 1.031-0.027 1.535-0.080 0.491-0.052 0.977-0.128 1.453-0.228 0.372-0.080 0.834-0.197 1.286-0.339s0.892-0.302 1.323-0.484 0.85-0.384 1.259-0.608 0.804-0.462 1.188-0.711 0.754-0.537 1.109-0.828 0.711-0.604 1.024-0.928 0.636-0.668 0.928-1.024 0.572-0.711 0.828-1.109 0.501-0.782 0.711-1.188 0.423-0.828 0.608-1.259 0.345-0.896 0.498-1.358 0.26-0.917 0.356-1.38 0.171-0.949 0.217-1.422c0.047-0.439 0.074-0.948 0.075-1.464 0-0.295-0.239-0.534-0.533-0.534zM12.868 2.937c0.356-0.078 0.807-0.149 1.264-0.198 0.467-0.049 0.942-0.073 1.422-0.073s0.955 0.025 1.422 0.073c0.458 0.048 0.909 0.12 1.351 0.213 0.343 0.074 0.773 0.184 1.189 0.312s0.825 0.281 1.223 0.448 0.786 0.356 1.166 0.562 0.743 0.427 1.099 0.668c0.084 0.057 0.187 0.091 0.299 0.091 0.295 0 0.534-0.239 0.534-0.534 0-0.183-0.093-0.345-0.233-0.441-0.386-0.261-0.784-0.503-1.189-0.712s-0.832-0.427-1.259-0.608-0.875-0.356-1.323-0.484-0.917-0.26-1.38-0.356c-0.383-0.083-0.867-0.16-1.36-0.212-0.504-0.052-1.016-0.079-1.534-0.079s-1.031 0.027-1.535 0.079c-0.492 0.052-0.977 0.128-1.453 0.228-0.151 0.035-0.333 0.249-0.333 0.506 0 0.295 0.239 0.533 0.533 0.533 0.038 0 0.075-0.004 0.11-0.011zM4.889 6.045h0.889v0.889c0 0.295 0.239 0.533 0.533 0.533s0.533-0.239 0.533-0.533v-0.889h0.889c0.295 0 0.533-0.239 0.533-0.533s-0.239-0.533-0.533-0.533h-0.889v-0.889c0-0.295-0.239-0.533-0.533-0.533s-0.533 0.239-0.533 0.533v0.889h-0.889c-0.295 0-0.533 0.239-0.533 0.533s0.239 0.533 0.533 0.533zM31.552 9.568c-0.116-1.968-1.74-3.521-3.727-3.521-2.062 0-3.733 1.671-3.733 3.733 0 1.628 1.042 3.013 2.496 3.523 0.079 0.027 0.14 0.038 0.204 0.038 0.296 0 0.535-0.24 0.535-0.535 0-0.232-0.147-0.429-0.354-0.504-1.067-0.369-1.818-1.362-1.818-2.53 0-1.475 1.195-2.67 2.67-2.67s2.67 1.195 2.67 2.67c0 0.686-0.259 1.312-0.684 1.785-0.082 0.092-0.133 0.216-0.133 0.353 0 0.295 0.239 0.534 0.534 0.534 0.158 0 0.3-0.069 0.398-0.178 0.591-0.657 0.952-1.53 0.952-2.488 0-0.073-0.002-0.146-0.006-0.218zM27.822 11.733c0.295 0 0.533-0.239 0.533-0.533v-0.889h0.889c0.295 0 0.533-0.239 0.533-0.533s-0.239-0.533-0.533-0.533h-0.889v-0.889c0-0.295-0.239-0.533-0.533-0.533s-0.533 0.239-0.533 0.533v0.889h-0.889c-0.295 0-0.533 0.239-0.533 0.533s0.239 0.533 0.533 0.533h0.889v0.889c0 0.295 0.239 0.533 0.533 0.533zM12.149 26.432c-0.451-0.897-1.226-1.576-2.167-1.891-0.075-0.024-0.132-0.033-0.19-0.033-0.295 0-0.534 0.239-0.534 0.534 0 0.237 0.154 0.437 0.367 0.507 1.085 0.359 1.852 1.361 1.852 2.541 0 1.475-1.195 2.67-2.67 2.67s-2.67-1.195-2.67-2.67c0-0.668 0.245-1.279 0.651-1.747 0.081-0.091 0.131-0.216 0.131-0.352 0-0.297-0.241-0.538-0.538-0.538-0.16 0-0.304 0.070-0.403 0.182-0.572 0.653-0.92 1.513-0.92 2.454 0 2.062 1.671 3.733 3.733 3.733 0.002 0 0.004 0 0.006 0h0.281c1.941-0.147 3.46-1.758 3.46-3.723 0-0.603-0.143-1.173-0.397-1.678zM2.965 7.346c0.623 1.24 1.885 2.076 3.342 2.076h0.281c1.958-0.128 3.497-1.747 3.497-3.726 0-1.664-1.088-3.074-2.592-3.556-0.075-0.024-0.132-0.033-0.19-0.033-0.295 0-0.534 0.239-0.534 0.534 0 0.237 0.154 0.437 0.367 0.507 1.085 0.359 1.852 1.361 1.852 2.541 0 1.475-1.196 2.67-2.67 2.67s-2.67-1.196-2.67-2.67c0-0.668 0.245-1.279 0.651-1.747 0.081-0.091 0.131-0.216 0.131-0.352 0-0.297-0.241-0.538-0.538-0.538-0.16 0-0.304 0.070-0.403 0.182-0.568 0.652-0.913 1.51-0.913 2.448 0 0.606 0.144 1.178 0.4 1.684zM8.8 26.133c-0.295 0-0.533 0.239-0.533 0.533v0.889h-0.889c-0.295 0-0.533 0.239-0.533 0.533s0.239 0.533 0.533 0.533h0.889v0.889c0 0.295 0.239 0.533 0.533 0.533s0.533-0.239 0.533-0.533v-0.889h0.889c0.295 0 0.533-0.239 0.533-0.533s-0.239-0.533-0.533-0.533h-0.889v-0.889c0-0.295-0.239-0.533-0.533-0.533z"></path>
</svg>
