<!-- Generated by IcoMoon.io -->
<svg version="1.1" xmlns="http://www.w3.org/2000/svg" width="32" height="32" viewBox="0 0 32 32">
<title>big-atom</title>
<path d="M31.154 14.745c-0.276-0.408-0.608-0.753-0.991-1.034-0.439-0.328-0.923-0.619-1.436-0.861-0.565-0.271-1.194-0.522-1.841-0.731-0.77-0.244-1.499-0.436-2.271-0.607 0.302-0.711 0.562-1.422 0.768-2.101 0.178-0.537 0.346-1.202 0.469-1.882 0.1-0.546 0.148-1.066 0.148-1.597 0-0.073-0.001-0.146-0.003-0.219-0.009-0.503-0.11-0.99-0.287-1.439-0.314-0.813-1.112-1.402-2.048-1.412-0.027-0.001-0.056-0.001-0.086-0.001-0.479 0-0.939 0.082-1.366 0.234-0.573 0.196-1.089 0.436-1.575 0.724-0.61 0.355-1.163 0.729-1.689 1.136-0.548 0.414-1.148 0.926-1.742 1.488-0.391 0.356-0.786 0.75-1.184 1.159-0.398-0.405-0.793-0.796-1.184-1.159-0.608-0.565-1.212-1.067-1.778-1.515-0.49-0.38-1.043-0.754-1.619-1.091-0.149-0.083-0.24-0.109-0.336-0.109-0.295 0-0.533 0.239-0.533 0.533 0 0.198 0.108 0.371 0.268 0.463 0.606 0.356 1.12 0.709 1.609 1.092 0.523 0.396 1.099 0.886 1.686 1.427 0.388 0.356 0.782 0.747 1.173 1.148-0.608 0.661-1.216 1.369-1.806 2.105l-0.196 0.252h-0.32c-0.974 0.064-1.934 0.16-2.844 0.284-0.558 0.075-1.106 0.164-1.636 0.263l-0.043-0.092c-0.309-0.736-0.569-1.444-0.775-2.108-0.167-0.5-0.323-1.12-0.438-1.754-0.089-0.486-0.132-0.944-0.132-1.412 0-0.060 0.001-0.119 0.002-0.178 0.003-0.375 0.076-0.741 0.206-1.079 0.156-0.438 0.588-0.761 1.094-0.761 0.007 0 0.013 0 0.020 0 0.284-0.013 0.51-0.247 0.51-0.533 0-0.295-0.239-0.534-0.534-0.534-0.008 0-0.016 0-0.024 0.001-0.936 0.010-1.734 0.599-2.052 1.425-0.173 0.436-0.274 0.924-0.282 1.434-0.002 0.066-0.003 0.139-0.003 0.213 0 0.53 0.049 1.050 0.142 1.553 0.129 0.723 0.297 1.388 0.506 2.034 0.176 0.555 0.435 1.263 0.737 1.992-0.772 0.171-1.497 0.356-2.162 0.576-0.757 0.24-1.385 0.491-1.992 0.78-0.491 0.226-0.993 0.524-1.458 0.869-0.371 0.272-0.704 0.617-0.97 1.011-0.253 0.366-0.398 0.802-0.398 1.271s0.145 0.905 0.394 1.264c0.271 0.399 0.604 0.743 0.986 1.023 0.44 0.328 0.925 0.619 1.439 0.861 0.564 0.271 1.191 0.521 1.837 0.731 0.774 0.244 1.5 0.436 2.271 0.607-0.302 0.711-0.562 1.422-0.768 2.101-0.178 0.537-0.346 1.202-0.469 1.882-0.1 0.546-0.148 1.065-0.148 1.595 0 0.074 0.001 0.147 0.003 0.22 0.008 0.503 0.109 0.99 0.287 1.439 0.314 0.813 1.112 1.402 2.048 1.412h0.129c0.468-0.009 0.915-0.091 1.331-0.237 0.571-0.196 1.088-0.436 1.574-0.724 0.61-0.355 1.163-0.729 1.689-1.136 0.547-0.414 1.148-0.926 1.742-1.488 0.391-0.356 0.786-0.75 1.184-1.159 0.395 0.405 0.793 0.796 1.184 1.159 0.608 0.565 1.212 1.067 1.778 1.515 0.49 0.38 1.043 0.754 1.619 1.091 0.52 0.306 1.036 0.546 1.578 0.733 0.446 0.154 0.893 0.237 1.357 0.245l0.132 0c0.937-0.010 1.735-0.599 2.053-1.425 0.173-0.436 0.274-0.924 0.282-1.434 0.002-0.066 0.003-0.139 0.003-0.212 0-0.531-0.049-1.050-0.142-1.554-0.13-0.723-0.297-1.388-0.506-2.035-0.175-0.555-0.435-1.262-0.737-1.991 0.772-0.171 1.497-0.356 2.162-0.576 0.217-0.071 0.371-0.272 0.371-0.508 0-0.295-0.239-0.534-0.534-0.534-0.058 0-0.115 0.009-0.167 0.027-0.658 0.212-1.39 0.404-2.169 0.571l-0.103 0.021c-0.224-0.491-0.462-0.988-0.711-1.49-0.356-0.658-0.711-1.33-1.113-1.998 0.434-0.668 0.789-1.34 1.145-1.998 0.26-0.505 0.498-0.999 0.711-1.49l0.103 0.021c0.779 0.167 1.508 0.356 2.172 0.576 0.708 0.222 1.297 0.454 1.865 0.723 0.402 0.192 0.822 0.444 1.213 0.734 0.273 0.198 0.521 0.451 0.72 0.74 0.145 0.2 0.227 0.437 0.227 0.693s-0.083 0.494-0.223 0.686c-0.204 0.296-0.451 0.549-0.735 0.755-0.129 0.105-0.205 0.253-0.205 0.419 0 0.295 0.239 0.533 0.533 0.533 0.115 0 0.221-0.036 0.308-0.098 0.393-0.288 0.725-0.633 0.992-1.026 0.253-0.366 0.398-0.802 0.398-1.271s-0.145-0.905-0.394-1.264zM17.909 7.229c0.583-0.54 1.163-1.028 1.717-1.451 0.457-0.36 0.972-0.712 1.509-1.030 0.455-0.269 0.905-0.479 1.376-0.643 0.34-0.118 0.673-0.181 1.019-0.19l0.086-0c0.006-0 0.012-0 0.019-0 0.507 0 0.938 0.323 1.099 0.774 0.126 0.325 0.199 0.691 0.202 1.074 0.001 0.051 0.002 0.11 0.002 0.17 0 0.468-0.043 0.927-0.126 1.371-0.121 0.676-0.278 1.296-0.473 1.898-0.178 0.563-0.437 1.274-0.747 2.006l-0.043 0.092c-0.53-0.096-1.067-0.185-1.636-0.263-0.921-0.124-1.881-0.22-2.844-0.284h-0.32l-0.196-0.252c-0.59-0.736-1.202-1.444-1.81-2.105 0.384-0.42 0.779-0.807 1.166-1.166zM18.197 20.221c-1.451 0.068-2.94 0.068-4.395 0-0.444-0.576-0.885-1.163-1.308-1.778-0.565-0.796-1.116-1.621-1.6-2.443 0.498-0.821 1.038-1.646 1.604-2.453v0c0.423-0.604 0.864-1.191 1.308-1.778 1.451-0.068 2.94-0.068 4.395 0 0.444 0.572 0.882 1.163 1.308 1.778 0.565 0.807 1.106 1.632 1.604 2.453-0.498 0.821-1.038 1.646-1.604 2.453-0.427 0.604-0.868 1.191-1.312 1.767zM16 22.841c-0.441-0.48-0.878-0.992-1.316-1.518 0.437 0 0.875 0.021 1.316 0.021s0.878 0 1.316-0.021c-0.434 0.526-0.875 1.038-1.316 1.518zM10.286 17.035c0.427 0.679 0.868 1.362 1.337 2.030 0.252 0.356 0.512 0.711 0.772 1.067-0.736-0.060-1.465-0.132-2.165-0.228q-0.679-0.092-1.33-0.206 0.281-0.597 0.594-1.209c0.245-0.48 0.512-0.967 0.793-1.454zM16 9.159c0.441 0.484 0.882 0.992 1.316 1.518-0.875-0.025-1.756-0.025-2.631 0 0.434-0.526 0.875-1.035 1.316-1.518zM10.229 12.089c0.711-0.096 1.422-0.167 2.165-0.228-0.26 0.356-0.519 0.711-0.772 1.067-0.469 0.668-0.91 1.348-1.337 2.030-0.277-0.487-0.548-0.974-0.793-1.451q-0.316-0.612-0.594-1.209 0.647-0.11 1.33-0.21zM3.783 18.208c-0.495-0.229-0.92-0.483-1.314-0.775-0.273-0.198-0.52-0.451-0.72-0.74-0.145-0.199-0.228-0.436-0.228-0.693s0.083-0.494 0.224-0.686c0.204-0.296 0.451-0.549 0.735-0.755 0.383-0.284 0.806-0.538 1.254-0.748 0.526-0.251 1.115-0.483 1.721-0.677 0.764-0.242 1.496-0.434 2.275-0.601l0.103-0.021c0.224 0.491 0.462 0.985 0.711 1.49 0.356 0.658 0.711 1.33 1.113 1.998-0.412 0.668-0.768 1.34-1.124 1.998-0.26 0.505-0.498 0.999-0.711 1.49l-0.103-0.021c-0.779-0.167-1.508-0.356-2.172-0.572-0.703-0.223-1.287-0.456-1.851-0.724zM14.094 24.772c-0.583 0.54-1.163 1.028-1.717 1.451-0.457 0.359-0.972 0.712-1.509 1.030-0.455 0.269-0.905 0.479-1.376 0.643-0.357 0.126-0.709 0.19-1.076 0.19-0.015 0-0.030-0-0.045-0-0.003 0-0.010 0-0.017 0-0.507 0-0.938-0.323-1.099-0.774-0.126-0.325-0.199-0.691-0.202-1.074-0.001-0.052-0.002-0.111-0.002-0.17 0-0.468 0.043-0.926 0.126-1.37 0.121-0.676 0.278-1.296 0.473-1.898 0.178-0.563 0.437-1.27 0.747-2.006l0.043-0.092c0.53 0.096 1.067 0.185 1.636 0.263 0.921 0.124 1.881 0.22 2.844 0.284h0.32l0.196 0.256c0.594 0.74 1.202 1.447 1.806 2.105-0.37 0.416-0.764 0.804-1.152 1.163zM24.935 26.236c-0.003 0.384-0.076 0.75-0.206 1.088-0.156 0.438-0.587 0.761-1.094 0.761-0.007 0-0.013-0-0.020-0-0.013 0-0.029 0-0.046 0-0.365 0-0.716-0.064-1.041-0.181-0.502-0.173-0.952-0.383-1.375-0.634-0.569-0.336-1.083-0.688-1.572-1.072-0.523-0.396-1.099-0.886-1.686-1.427-0.388-0.356-0.782-0.747-1.173-1.148 0.608-0.661 1.216-1.369 1.81-2.105l0.196-0.256h0.32c0.974-0.064 1.934-0.16 2.844-0.284 0.558-0.075 1.106-0.164 1.636-0.263l0.043 0.092c0.309 0.732 0.569 1.444 0.775 2.108 0.166 0.5 0.323 1.12 0.438 1.754 0.102 0.518 0.152 1.011 0.152 1.517 0 0.018-0 0.035-0 0.053zM23.111 19.698q-0.651 0.114-1.33 0.206c-0.711 0.096-1.422 0.167-2.165 0.228 0.26-0.356 0.519-0.711 0.772-1.067 0.469-0.668 0.91-1.348 1.337-2.030 0.277 0.487 0.548 0.974 0.793 1.451q0.306 0.612 0.594 1.212zM22.51 13.511c-0.245 0.48-0.516 0.964-0.793 1.451-0.427-0.679-0.868-1.362-1.337-2.030-0.252-0.356-0.512-0.711-0.772-1.067 0.736 0.060 1.465 0.132 2.165 0.228q0.679 0.092 1.33 0.206-0.281 0.601-0.594 1.212zM16 13.255c-1.516 0-2.745 1.229-2.745 2.745s1.229 2.745 2.745 2.745c1.516 0 2.745-1.229 2.745-2.745-0.002-1.515-1.23-2.743-2.745-2.745zM16 17.682c-0.927 0-1.678-0.751-1.678-1.678s0.751-1.678 1.678-1.678c0.926 0 1.676 0.749 1.678 1.674-0.002 0.926-0.752 1.676-1.678 1.678z"></path>
</svg>
