<!-- Generated by IcoMoon.io -->
<svg version="1.1" xmlns="http://www.w3.org/2000/svg" width="32" height="32" viewBox="0 0 32 32">
<title>conference</title>
<path d="M6.095 19.81h1.608c0.421 0 0.762-0.341 0.762-0.762s-0.341-0.762-0.762-0.762h-1.608c-0.421 0-0.762-0.341-0.762-0.762v-11.429c0-0.421 0.341-0.762 0.762-0.762h14.476c0.421 0 0.762 0.341 0.762 0.762v11.429c0 0.421-0.341 0.762-0.762 0.762h-8.762l-4.731 4.876c-0.091 0.124-0.146 0.28-0.146 0.449 0 0.421 0.341 0.762 0.762 0.762 0.176 0 0.339-0.060 0.468-0.161l4.28-4.403h8.13c1.262 0 2.286-1.023 2.286-2.286v-11.429c0-1.262-1.023-2.286-2.286-2.286h-14.476c-1.262 0-2.286 1.023-2.286 2.286v11.429c0 1.262 1.023 2.286 2.286 2.286zM26.324 11.429h-1.181c-0.421 0-0.762 0.341-0.762 0.762s0.341 0.762 0.762 0.762h1.181c0.189 0 0.343 0.153 0.343 0.343v8.457c0 0.189-0.154 0.343-0.343 0.343h-1.943v2.286l-2.232-2.286h-6.568c-0.189 0-0.343-0.154-0.343-0.343 0-0.421-0.341-0.762-0.762-0.762s-0.762 0.341-0.762 0.762c0 1.031 0.836 1.867 1.867 1.867h5.943l2.857 2.91c0.161 0.145 0.376 0.234 0.611 0.234 0.486 0 0.883-0.378 0.913-0.856l0-2.288h0.411c0.002 0 0.005 0 0.008 0 1.031 0 1.867-0.836 1.867-1.867 0 0 0 0 0 0v-8.457c0-1.031-0.836-1.867-1.867-1.867zM8.381 9.905h9.905c0.421 0 0.762-0.341 0.762-0.762s-0.341-0.762-0.762-0.762h-9.905c-0.421 0-0.762 0.341-0.762 0.762s0.341 0.762 0.762 0.762zM8.381 13.714h5.333c0.421 0 0.762-0.341 0.762-0.762s-0.341-0.762-0.762-0.762h-5.333c-0.421 0-0.762 0.341-0.762 0.762s0.341 0.762 0.762 0.762z"></path>
</svg>
