<!-- Generated by IcoMoon.io -->
<svg version="1.1" xmlns="http://www.w3.org/2000/svg" width="32" height="32" viewBox="0 0 32 32">
<title>conferense</title>
<path d="M9.102 26.738l-1.92-1.351v-0.711c0-0.213 0.036-0.391 0.142-0.569 0.213-0.32 0.32-0.711 0.32-1.102v-1.351c0-0.924-0.604-1.742-1.458-2.027-0.498-0.178-1.067-0.178-1.564 0-0.889 0.284-1.458 1.102-1.458 2.027v1.351c0 0.391 0.107 0.782 0.32 1.102 0.107 0.178 0.142 0.356 0.142 0.569v0.711l-1.92 1.351c-0.569 0.391-0.924 1.067-0.924 1.742v0.64c0 0.284 0.249 0.533 0.533 0.533s0.533-0.249 0.533-0.533v-0.64c0-0.356 0.178-0.676 0.462-0.889l2.133-1.529c0.142-0.107 0.213-0.249 0.213-0.427v-0.996c0-0.391-0.107-0.782-0.32-1.102-0.107-0.178-0.142-0.356-0.142-0.569v-1.351c0-0.462 0.284-0.889 0.747-1.031 0.284-0.107 0.604-0.107 0.889 0 0.427 0.142 0.747 0.569 0.747 1.031v1.351c0 0.213-0.036 0.391-0.142 0.569-0.213 0.32-0.32 0.711-0.32 1.102v0.996c0 0.178 0.071 0.32 0.213 0.427l2.133 1.529c0.284 0.213 0.462 0.533 0.462 0.889v0.64c0 0.284 0.249 0.533 0.533 0.533s0.533-0.249 0.533-0.533v-0.64c0.036-0.676-0.32-1.351-0.889-1.742zM19.698 26.738l-1.92-1.351v-0.711c0-0.213 0.071-0.391 0.142-0.569 0.213-0.32 0.32-0.711 0.32-1.102v-1.351c0-0.924-0.604-1.742-1.458-2.027-0.498-0.178-1.067-0.178-1.564 0-0.889 0.284-1.458 1.102-1.458 2.027v1.351c0 0.391 0.107 0.782 0.32 1.102 0.107 0.178 0.142 0.356 0.142 0.569v0.711l-1.92 1.351c-0.569 0.391-0.924 1.067-0.924 1.742v0.64c0 0.284 0.249 0.533 0.533 0.533s0.533-0.249 0.533-0.533v-0.64c0-0.356 0.178-0.676 0.462-0.889l2.133-1.529c0.142-0.107 0.213-0.249 0.213-0.427v-0.996c0-0.391-0.107-0.782-0.32-1.102-0.107-0.178-0.142-0.356-0.142-0.569v-1.351c0-0.462 0.284-0.889 0.747-1.031 0.284-0.107 0.604-0.107 0.889 0 0.427 0.142 0.747 0.569 0.747 1.031v1.351c0 0.213-0.071 0.391-0.142 0.569-0.213 0.32-0.32 0.711-0.32 1.102v0.996c0 0.178 0.071 0.32 0.213 0.427l2.133 1.529c0.284 0.213 0.462 0.533 0.462 0.889v0.64c0 0.284 0.249 0.533 0.533 0.533s0.533-0.249 0.533-0.533v-0.64c0.036-0.676-0.32-1.351-0.889-1.742zM30.293 26.738l-1.92-1.351v-0.711c0-0.213 0.071-0.391 0.142-0.569 0.213-0.32 0.32-0.711 0.32-1.102v-1.351c0-0.924-0.604-1.742-1.458-2.027-0.498-0.178-1.067-0.178-1.564 0-0.889 0.284-1.458 1.102-1.458 2.027v1.351c0 0.391 0.107 0.782 0.32 1.102 0.107 0.178 0.142 0.356 0.142 0.569v0.711l-1.92 1.351c-0.569 0.391-0.924 1.067-0.924 1.742v0.64c0 0.284 0.249 0.533 0.533 0.533s0.533-0.249 0.533-0.533v-0.64c0-0.356 0.178-0.676 0.462-0.889l2.133-1.529c0.142-0.107 0.213-0.249 0.213-0.427v-0.996c0-0.391-0.107-0.782-0.32-1.102-0.107-0.178-0.142-0.356-0.142-0.569v-1.351c0-0.462 0.284-0.889 0.747-1.031 0.284-0.107 0.604-0.107 0.889 0 0.427 0.142 0.747 0.569 0.747 1.031v1.351c0 0.213-0.036 0.391-0.142 0.569-0.213 0.32-0.32 0.711-0.32 1.102v0.996c0 0.178 0.071 0.32 0.213 0.427l2.133 1.529c0.284 0.213 0.462 0.533 0.462 0.889v0.64c0 0.284 0.249 0.533 0.533 0.533s0.533-0.249 0.533-0.533v-0.64c0.036-0.676-0.32-1.351-0.889-1.742zM23.822 13.476c0.284 0 0.533-0.249 0.533-0.533s-0.249-0.533-0.533-0.533h-7.289v-1.92c0-0.284-0.249-0.533-0.533-0.533s-0.533 0.249-0.533 0.533v1.92h-7.289c-0.284 0-0.533 0.249-0.533 0.533s0.249 0.533 0.533 0.533h2.524l0.569 10.916c0 0.284 0.284 0.533 0.569 0.498 0.284 0 0.533-0.249 0.498-0.569l-0.569-10.809h8.462l-0.533 10.809c0 0.284 0.213 0.533 0.498 0.569 0 0 0.036 0 0.036 0 0.284 0 0.533-0.213 0.533-0.498l0.569-10.916h2.489zM11.911 11.662c0.284 0 0.533-0.249 0.533-0.533v-0.64c0-0.356 0.178-0.676 0.462-0.889l2.133-1.529c0.142-0.107 0.213-0.249 0.213-0.427v-0.996c0-0.391-0.107-0.782-0.32-1.102-0.107-0.178-0.142-0.356-0.142-0.569v-1.351c0-0.462 0.284-0.889 0.747-1.031 0.284-0.107 0.604-0.107 0.889 0 0.427 0.142 0.747 0.569 0.747 1.031v1.351c0 0.213-0.071 0.391-0.142 0.569-0.213 0.32-0.32 0.711-0.32 1.102v0.996c0 0.178 0.071 0.32 0.213 0.427l2.133 1.529c0.284 0.213 0.462 0.533 0.462 0.889v0.64c0 0.284 0.249 0.533 0.533 0.533s0.533-0.249 0.533-0.533v-0.64c0-0.711-0.356-1.351-0.924-1.742l-1.884-1.387v-0.711c0-0.213 0.071-0.391 0.142-0.569 0.213-0.32 0.32-0.711 0.32-1.102v-1.351c0-0.924-0.604-1.742-1.458-2.027-0.498-0.178-1.067-0.178-1.564 0-0.889 0.284-1.458 1.102-1.458 2.027v1.351c0 0.391 0.107 0.782 0.32 1.102 0.107 0.178 0.142 0.356 0.142 0.569v0.711l-1.92 1.351c-0.569 0.391-0.924 1.067-0.924 1.742v0.64c0 0.32 0.249 0.569 0.533 0.569z"></path>
</svg>
