<!-- Generated by IcoMoon.io -->
<svg version="1.1" xmlns="http://www.w3.org/2000/svg" width="32" height="32" viewBox="0 0 32 32">
<title>congratulation</title>
<path d="M20.724 23.528c-0.32 0.054-0.561 0.33-0.561 0.662 0 0.068 0.010 0.134 0.029 0.197l0.296 1.138c0.008 0.030 0.013 0.064 0.013 0.099 0 0.206-0.167 0.373-0.373 0.373-0.076 0-0.146-0.023-0.205-0.061l-3.496-2.117c-0.148-0.090-0.327-0.144-0.518-0.144s-0.37 0.053-0.523 0.146l-3.508 2.085c-0.056 0.035-0.124 0.056-0.197 0.056-0.206 0-0.373-0.167-0.373-0.373 0-0.036 0.005-0.071 0.015-0.105l0.99-3.914c0.018-0.071 0.028-0.153 0.028-0.237 0-0.304-0.134-0.576-0.347-0.76l-3.14-2.729c-0.084-0.069-0.138-0.173-0.138-0.29 0-0.204 0.163-0.369 0.366-0.373l1.585-0.107c0.356-0.017 0.639-0.311 0.639-0.67 0-0.032-0.002-0.064-0.007-0.096l0 0.004c-0.036-0.34-0.321-0.603-0.667-0.603-0.012 0-0.024 0-0.036 0.001l-3.343 0.183c-0.528 0.033-0.945 0.47-0.945 1.004 0 0.301 0.132 0.571 0.341 0.755l4.306 3.75-1.356 5.41c-0.024 0.082-0.038 0.177-0.038 0.275 0 0.555 0.45 1.006 1.006 1.006 0.207 0 0.4-0.063 0.56-0.17l4.812-2.878 4.792 2.91c0.155 0.103 0.346 0.165 0.551 0.165 0.555 0 1.006-0.45 1.006-1.006 0-0.091-0.012-0.179-0.035-0.263l-0.715-2.82c-0.076-0.292-0.338-0.505-0.65-0.505-0.040 0-0.078 0.003-0.116 0.010zM20.427 21.082c0.116 0.099 0.268 0.16 0.434 0.16s0.318-0.060 0.435-0.16l3.892-3.344c0.197-0.184 0.321-0.446 0.321-0.736 0-0.521-0.396-0.949-0.903-1.001l-5.612-0.343-2.11-5.333c-0.15-0.373-0.509-0.632-0.929-0.632-0 0-0.001 0-0.001 0h0c-0 0-0.001 0-0.001 0-0.42 0-0.779 0.259-0.926 0.626l-1.93 4.776c-0.031 0.074-0.048 0.16-0.048 0.25 0 0.242 0.128 0.453 0.32 0.571l0.003 0.002c0.099 0.061 0.219 0.097 0.347 0.097 0.279 0 0.518-0.17 0.619-0.412l1.266-3.128c0.054-0.144 0.19-0.245 0.35-0.245s0.297 0.101 0.35 0.242l1.525 3.858c0.145 0.357 0.478 0.609 0.873 0.632l4.071 0.252c0.2 0.008 0.359 0.172 0.359 0.373 0 0.117-0.053 0.221-0.137 0.289l-2.561 2.202c-0.142 0.124-0.231 0.305-0.231 0.507s0.089 0.383 0.231 0.506zM16 8.381c0.421 0 0.762-0.341 0.762-0.762v-2.286c0-0.421-0.341-0.762-0.762-0.762s-0.762 0.341-0.762 0.762v2.286c0 0.421 0.341 0.762 0.762 0.762zM19.048 11.474c0.421 0 0.762-0.341 0.762-0.762v-5.379c0-0.421-0.341-0.762-0.762-0.762s-0.762 0.341-0.762 0.762v5.379c0 0.421 0.341 0.762 0.762 0.762zM22.095 14.431c0.421 0 0.762-0.341 0.762-0.762v-8.335c0-0.421-0.341-0.762-0.762-0.762s-0.762 0.341-0.762 0.762v8.335c0 0.421 0.341 0.762 0.762 0.762zM12.907 11.474c0.421 0 0.762-0.341 0.762-0.762v-5.379c0-0.421-0.341-0.762-0.762-0.762s-0.762 0.341-0.762 0.762v5.379c0 0.421 0.341 0.762 0.762 0.762zM9.859 14.431c0.421 0 0.762-0.341 0.762-0.762v-8.335c0-0.421-0.341-0.762-0.762-0.762s-0.762 0.341-0.762 0.762v8.335c0 0.421 0.341 0.762 0.762 0.762z"></path>
</svg>
