<!-- Generated by IcoMoon.io -->
<svg version="1.1" xmlns="http://www.w3.org/2000/svg" width="32" height="32" viewBox="0 0 32 32">
<title>creative</title>
<path d="M25.828 6.909c-1.662-3.86-5.434-6.513-9.825-6.513-5.891 0-10.667 4.776-10.667 10.667 0 2.945 1.193 5.611 3.123 7.541q0.181 0.181 0.355 0.355c1.599 1.424 2.612 3.478 2.645 5.768l0 0.187c0 0.34 0.275 0.615 0.615 0.615s0.615-0.275 0.615-0.615v-0.181c-0.034-2.657-1.201-5.034-3.038-6.677q-0.176-0.161-0.336-0.321c-1.706-1.708-2.762-4.067-2.762-6.672 0-3.89 2.352-7.23 5.712-8.675 1.146-0.49 2.408-0.761 3.734-0.761s2.588 0.271 3.735 0.761c3.356 1.445 5.707 4.782 5.707 8.669 0 2.607-1.058 4.967-2.768 6.675q-0.16 0.16-0.327 0.313c-1.847 1.65-3.013 4.028-3.047 6.678l-0 0.187c0 0.34 0.275 0.615 0.615 0.615s0.615-0.275 0.615-0.615v-0.181c0.034-2.297 1.046-4.35 2.637-5.767q0.196-0.178 0.363-0.362c1.932-1.93 3.126-4.598 3.126-7.545 0-1.498-0.309-2.925-0.867-4.219zM20.86 27.275h-9.721c-0.34 0-0.615 0.275-0.615 0.615s0.275 0.615 0.615 0.615h9.721c0.34 0 0.615-0.275 0.615-0.615s-0.275-0.615-0.615-0.615zM18.766 30.375h-5.532c-0.34 0-0.615 0.275-0.615 0.615s0.275 0.615 0.615 0.615h5.532c0.34 0 0.615-0.275 0.615-0.615s-0.275-0.615-0.615-0.615zM16 25.529c0.34 0 0.615-0.275 0.615-0.615v-9.184c-0-0.081-0.016-0.158-0.044-0.228l0.001 0.004c-0.033-0.079-0.078-0.146-0.135-0.203l-3.556-3.556c-0.111-0.111-0.265-0.18-0.436-0.18-0.34 0-0.616 0.276-0.616 0.616 0 0.17 0.069 0.324 0.18 0.436l3.374 3.381v8.914c0 0.34 0.275 0.615 0.615 0.615zM18.208 14.393l1.778-1.778c0.113-0.113 0.183-0.269 0.183-0.441 0-0.344-0.279-0.622-0.622-0.622-0.171 0-0.327 0.069-0.439 0.181l-1.778 1.778c-0.111 0.111-0.18 0.265-0.18 0.436 0 0.34 0.276 0.616 0.616 0.616 0.17 0 0.324-0.069 0.436-0.18z"></path>
</svg>
