<!-- Generated by IcoMoon.io -->
<svg version="1.1" xmlns="http://www.w3.org/2000/svg" width="32" height="32" viewBox="0 0 32 32">
<title>cycle</title>
<path d="M21.404 15.111v-0.782c0-0.818-0.391-1.6-1.067-2.062l-2.418-1.707v-0.96c0-0.249 0.071-0.533 0.213-0.747 0.249-0.391 0.356-0.853 0.356-1.28v-1.671c0-1.102-0.711-2.062-1.742-2.382-0.604-0.178-1.244-0.213-1.849 0-1.031 0.356-1.742 1.316-1.742 2.382v1.671c0 0.462 0.107 0.889 0.356 1.28 0.142 0.213 0.213 0.498 0.213 0.747v0.96l-2.347 1.707c-0.676 0.462-1.067 1.244-1.067 2.062v0.782c0 0.284 0.249 0.533 0.533 0.533s0.533-0.249 0.533-0.533v-0.782c0-0.462 0.213-0.924 0.604-1.173l2.631-1.849c0.142-0.107 0.213-0.249 0.213-0.427v-1.28c0-0.462-0.107-0.889-0.356-1.28-0.142-0.213-0.213-0.498-0.213-0.747v-1.671c0-0.64 0.391-1.173 0.996-1.387 0.391-0.107 0.782-0.107 1.173 0 0.604 0.213 0.996 0.747 0.996 1.387v1.671c0 0.249-0.071 0.533-0.213 0.747-0.249 0.391-0.356 0.853-0.356 1.28v1.209c0 0.178 0.071 0.32 0.213 0.427l2.631 1.849c0.391 0.284 0.604 0.711 0.604 1.173v0.782c0 0.284 0.249 0.533 0.533 0.533s0.569-0.178 0.569-0.462zM10.382 25.244l-2.418-1.707v-0.96c0-0.249 0.071-0.533 0.213-0.747 0.249-0.391 0.356-0.853 0.356-1.28v-1.671c0-1.102-0.711-2.062-1.742-2.382-0.604-0.213-1.244-0.213-1.849 0-1.031 0.356-1.742 1.316-1.742 2.382v1.671c0 0.462 0.107 0.889 0.356 1.28 0.142 0.213 0.213 0.498 0.213 0.747v0.96l-2.347 1.707c-0.676 0.462-1.067 1.244-1.067 2.062v0.782c0 0.284 0.249 0.533 0.533 0.533s0.533-0.249 0.533-0.533v-0.782c0-0.462 0.213-0.924 0.604-1.173l2.631-1.849c0.142-0.107 0.213-0.249 0.213-0.427v-1.209c0-0.462-0.107-0.889-0.356-1.28-0.142-0.213-0.213-0.498-0.213-0.747v-1.671c0-0.64 0.391-1.173 0.996-1.387 0.391-0.107 0.782-0.107 1.173 0 0.604 0.213 0.996 0.747 0.996 1.387v1.671c0 0.249-0.071 0.533-0.213 0.747-0.249 0.391-0.356 0.853-0.356 1.28v1.173c0 0.178 0.071 0.32 0.213 0.427l2.631 1.849c0.391 0.284 0.604 0.711 0.604 1.173v0.818c0 0.284 0.249 0.533 0.533 0.533s0.533-0.249 0.533-0.533v-0.782c0.036-0.818-0.391-1.6-1.031-2.062zM30.578 25.244l-2.418-1.707v-0.96c0-0.249 0.071-0.533 0.213-0.747 0.249-0.391 0.356-0.853 0.356-1.28v-1.671c0-1.102-0.711-2.062-1.742-2.382-0.604-0.213-1.244-0.213-1.849 0-1.031 0.356-1.742 1.316-1.742 2.382v1.671c0 0.462 0.107 0.889 0.356 1.28 0.142 0.213 0.213 0.498 0.213 0.747v0.96l-2.347 1.707c-0.676 0.462-1.067 1.244-1.067 2.062v0.782c0 0.284 0.249 0.533 0.533 0.533s0.533-0.249 0.533-0.533v-0.782c0-0.462 0.213-0.924 0.604-1.173l2.631-1.849c0.142-0.107 0.213-0.249 0.213-0.427v-1.209c0-0.462-0.107-0.889-0.356-1.28-0.142-0.213-0.213-0.498-0.213-0.747v-1.671c0-0.64 0.391-1.173 0.996-1.387 0.391-0.142 0.782-0.142 1.173 0 0.604 0.213 0.996 0.747 0.996 1.387v1.671c0 0.249-0.071 0.533-0.213 0.747-0.249 0.391-0.356 0.853-0.356 1.28v1.173c0 0.178 0.071 0.32 0.213 0.427l2.631 1.849c0.391 0.284 0.604 0.711 0.604 1.173v0.818c0 0.284 0.249 0.533 0.533 0.533s0.569-0.249 0.569-0.533v-0.782c0-0.818-0.391-1.6-1.067-2.062zM19.804 22.649l-3.413-2.027v-3.733c0-0.284-0.249-0.533-0.533-0.533s-0.533 0.249-0.533 0.533v3.733l-3.413 2.027c-0.249 0.142-0.32 0.462-0.178 0.747 0.107 0.178 0.284 0.249 0.462 0.249 0.107 0 0.178-0.036 0.284-0.071l3.378-2.027 3.378 2.027c0.071 0.036 0.178 0.071 0.284 0.071 0.178 0 0.356-0.107 0.462-0.249 0.142-0.249 0.071-0.569-0.178-0.747z"></path>
</svg>
