<!-- Generated by IcoMoon.io -->
<svg version="1.1" xmlns="http://www.w3.org/2000/svg" width="32" height="32" viewBox="0 0 32 32">
<title>docs</title>
<path d="M24.495 6.857l-4.122-2.91c-0.122-0.087-0.274-0.138-0.438-0.138-0.421 0-0.763 0.342-0.763 0.763 0 0.257 0.127 0.485 0.323 0.623l3.888 2.722c0.144 0.1 0.236 0.265 0.236 0.451 0 0.005-0 0.010-0 0.014v17.752c0 0.303-0.246 0.549-0.549 0.549h-14.141c-0.303 0-0.549-0.246-0.549-0.549v-20.251c0-0.303 0.246-0.549 0.549-0.549h7.284c0.303 0 0.549 0.246 0.549 0.549v3.2c0 0.875 0.71 1.585 1.585 1.585h3.749c0.421 0 0.762-0.341 0.762-0.762s-0.341-0.762-0.762-0.762h-3.749c-0.034 0-0.061-0.027-0.061-0.061v-3.749c0-0.842-0.682-1.524-1.524-1.524h-8.381c-0.842 0-1.524 0.682-1.524 1.524v21.333c0 0.842 0.682 1.524 1.524 1.524h15.238c0.842 0 1.524-0.682 1.524-1.524v-18.59c-0.009-0.503-0.261-0.945-0.643-1.216zM21.333 13.714h-10.667c-0.421 0-0.762 0.341-0.762 0.762s0.341 0.762 0.762 0.762h10.667c0.421 0 0.762-0.341 0.762-0.762s-0.341-0.762-0.762-0.762zM22.095 18.286c0-0.421-0.341-0.762-0.762-0.762h-10.667c-0.421 0-0.762 0.341-0.762 0.762s0.341 0.762 0.762 0.762h10.667c0.421 0 0.762-0.341 0.762-0.762zM10.667 21.333c-0.421 0-0.762 0.341-0.762 0.762s0.341 0.762 0.762 0.762h6.095c0.421 0 0.762-0.341 0.762-0.762s-0.341-0.762-0.762-0.762z"></path>
</svg>
