<!-- Generated by IcoMoon.io -->
<svg version="1.1" xmlns="http://www.w3.org/2000/svg" width="32" height="32" viewBox="0 0 32 32">
<title>ecology</title>
<path d="M31.154 12.882c-0.045-0.285-0.289-0.5-0.583-0.5-0.326 0-0.59 0.264-0.59 0.59 0 0.051 0.007 0.101 0.019 0.149 0.184 0.862 0.289 1.856 0.289 2.876s-0.106 2.014-0.307 2.974c-0.384 1.844-1.125 3.558-2.149 5.065-1.527 2.229-3.668 4.005-6.179 5.084-0.854 0.368-1.751 0.655-2.681 0.851-0.959 0.2-1.953 0.305-2.973 0.305s-2.014-0.105-2.974-0.305c-1.843-0.384-3.558-1.125-5.065-2.149-1.221-0.832-2.305-1.849-3.212-3.012l2.679-0.032c0.326 0 0.59-0.264 0.59-0.59s-0.264-0.59-0.59-0.59h-3.826c-0 0-0 0-0 0-0.322 0-0.584 0.258-0.59 0.579v3.833c0 0.326 0.264 0.59 0.59 0.59s0.59-0.264 0.59-0.59v-2.027c0.277 0.327 0.569 0.647 0.871 0.953 1.374 1.375 3.006 2.493 4.817 3.275 0.925 0.4 1.897 0.711 2.905 0.924 1.037 0.217 2.114 0.332 3.217 0.332s2.18-0.114 3.218-0.332c1.997-0.421 3.853-1.23 5.484-2.345 2.413-1.648 4.337-3.959 5.509-6.671 0.4-0.925 0.711-1.897 0.924-2.905 0.217-1.037 0.332-2.114 0.332-3.217s-0.114-2.18-0.332-3.218zM2.844 10.439c1.844-4.292 5.609-7.451 10.182-8.421 0.959-0.2 1.954-0.305 2.973-0.305s2.014 0.105 2.974 0.305c1.843 0.384 3.558 1.125 5.065 2.149 1.174 0.8 2.222 1.772 3.107 2.88l-2.634 0.028c-0.326 0-0.59 0.264-0.59 0.59s0.264 0.59 0.59 0.59h3.822c0.018 0.002 0.038 0.003 0.059 0.003s0.041-0.001 0.061-0.003l0.044 0 0.064-0.021c0.075-0.031 0.138-0.075 0.192-0.128l0.036-0.043 0.039-0.046 0.028-0.050s0.018-0.032 0.025-0.050c0-0.008 0.001-0.018 0.001-0.028s-0-0.020-0.001-0.030c0-0.016 0-0.034 0-0.052 0.002-0.017 0.003-0.036 0.003-0.055s-0.001-0.039-0.003-0.058l0 0.002v-3.844c0-0.326-0.264-0.59-0.59-0.59s-0.59 0.264-0.59 0.59v2.091c-0.26-0.302-0.53-0.601-0.811-0.882-1.362-1.373-2.978-2.491-4.772-3.278-0.924-0.4-1.896-0.711-2.904-0.924-1.037-0.217-2.114-0.33-3.217-0.33s-2.18 0.114-3.218 0.33c-1.996 0.423-3.851 1.233-5.48 2.349-2.415 1.647-4.339 3.956-5.512 6.667-0.4 0.925-0.711 1.897-0.924 2.905-0.217 1.037-0.332 2.114-0.332 3.217s0.114 2.18 0.332 3.218c0.039 0.169 0.275 0.37 0.558 0.371 0.018 0.002 0.038 0.003 0.059 0.003s0.041-0.001 0.061-0.003c0.27-0.056 0.471-0.294 0.471-0.578 0-0.047-0.006-0.093-0.016-0.137-0.184-0.862-0.289-1.857-0.289-2.876s0.106-2.014 0.307-2.974c0.201-0.928 0.493-1.823 0.865-2.675zM16 26.688c0.326 0 0.59-0.264 0.59-0.59v-12.043c0-3.636-2.946-6.584-6.581-6.588h-2.237c-0.326 0-0.59 0.264-0.59 0.59v2.731c0 3.636 2.946 6.584 6.581 6.588h1.647v8.722c0 0.326 0.264 0.59 0.59 0.59zM8.363 10.791v-2.133h1.646c2.984 0.002 5.402 2.42 5.404 5.404v1.017l-4.978-4.978c-0.108-0.119-0.264-0.194-0.437-0.194-0.326 0-0.59 0.264-0.59 0.59 0 0.172 0.074 0.327 0.192 0.435l5.263 5.263h-1.102c-2.981-0.006-5.395-2.423-5.397-5.404zM24.224 11.545c-3.637 0.002-6.585 2.951-6.585 6.588v2.731c0 0.326 0.264 0.59 0.59 0.59h2.236c3.636-0.004 6.581-2.952 6.581-6.588v-2.731c0-0.326-0.264-0.59-0.59-0.59zM25.87 14.862c-0.002 2.984-2.42 5.402-5.404 5.404h-0.861l5.099-5.095c0.087-0.102 0.141-0.236 0.141-0.382 0-0.326-0.264-0.59-0.59-0.59-0.146 0-0.28 0.053-0.383 0.141l-5.048 5.048v-1.255c0.002-2.984 2.42-5.402 5.404-5.404h1.646z"></path>
</svg>
