<!-- Generated by IcoMoon.io -->
<svg version="1.1" xmlns="http://www.w3.org/2000/svg" width="32" height="32" viewBox="0 0 32 32">
<title>exhibition</title>
<path d="M10.103 24.564l-2.621 2.286c-0.164 0.141-0.267 0.348-0.267 0.579 0 0.421 0.341 0.762 0.762 0.762 0.19 0 0.363-0.069 0.496-0.184l2.62-2.285c0.164-0.141 0.267-0.348 0.267-0.579 0-0.421-0.341-0.762-0.762-0.762-0.19 0-0.363 0.069-0.496 0.184zM15.238 21.333h-9.105c-0.44-0.004-0.796-0.36-0.8-0.8v-11.353c0.004-0.44 0.36-0.796 0.8-0.8h6.819c0.421 0 0.762-0.341 0.762-0.762s-0.341-0.762-0.762-0.762h-6.819c-1.282 0.004-2.32 1.042-2.324 2.323v11.353c0.004 1.282 1.042 2.32 2.323 2.324h9.105v3.81c0 0.421 0.341 0.762 0.762 0.762s0.762-0.341 0.762-0.762v-3.81c0-0.842-0.682-1.524-1.524-1.524zM21.813 24.564c-0.132-0.114-0.306-0.183-0.495-0.183-0.421 0-0.762 0.341-0.762 0.762 0 0.231 0.103 0.438 0.266 0.578l2.622 2.287c0.132 0.114 0.306 0.183 0.495 0.183 0.421 0 0.762-0.341 0.762-0.762 0-0.231-0.103-0.438-0.266-0.578zM25.867 6.857h-9.105v-2.286c0-0.421-0.341-0.762-0.762-0.762s-0.762 0.341-0.762 0.762v2.286c0 0.842 0.682 1.524 1.524 1.524h9.105c0.44 0.004 0.796 0.36 0.8 0.8v11.353c-0.004 0.44-0.36 0.796-0.8 0.8h-6.758c-0.421 0-0.762 0.341-0.762 0.762s0.341 0.762 0.762 0.762h6.75c0 0 0 0 0 0 1.285 0 2.327-1.039 2.331-2.323v-11.353c-0.004-1.282-1.042-2.319-2.323-2.324zM10.385 15.551c0.26-0.109 0.439-0.361 0.439-0.655 0-0.391-0.317-0.709-0.709-0.709-0.153 0-0.295 0.049-0.411 0.131-1.103 0.6-2.527 1.522-2.207 2.658 0.259 0.914 1.448 1.105 2.552 1.105 0.251 0 0.495 0 0.762 0 0.457 0 0.968-0.084 1.524-0.16 0.874 0.924 2.109 1.498 3.478 1.498 2.307 0 4.233-1.633 4.685-3.806 2.017-0.915 3.914-2.111 3.556-3.353-0.114-0.389-0.457-1.524-4.77-0.922-0.874-0.921-2.106-1.493-3.473-1.493-2.643 0-4.785 2.142-4.785 4.785 0 0.721 0.159 1.405 0.445 2.018-0.375 0.036-0.793 0.073-1.22 0.073s-0.845-0.037-1.251-0.109c0.424-0.413 0.866-0.768 1.358-1.047zM15.718 17.836c-0.529-0.003-1.027-0.132-1.466-0.359 0.711-0.144 1.42-0.312 2.151-0.525 0.373-0.107 1.158-0.343 2.088-0.67-0.569 0.944-1.58 1.571-2.74 1.592zM22.499 12.625c-0.579 0.531-1.251 0.972-1.988 1.292-0.115-0.484-0.251-0.939-0.447-1.36 0.315-0.017 0.664-0.043 1.019-0.043 0.51 0 1.007 0.054 1.486 0.157zM12.472 14.606c0-1.807 1.465-3.272 3.272-3.272s3.272 1.465 3.272 3.272v0c-0.757 0.318-1.744 0.663-2.753 0.959-1.004 0.297-2.030 0.545-3.074 0.741-0.514-0.458-0.709-1.055-0.717-1.697z"></path>
</svg>
