<!-- Generated by IcoMoon.io -->
<svg version="1.1" xmlns="http://www.w3.org/2000/svg" width="32" height="32" viewBox="0 0 32 32">
<title>fax</title>
<path d="M25.356 8.511c-0.052-0.013-0.112-0.020-0.173-0.020-0.421 0-0.762 0.341-0.762 0.762 0 0.341 0.224 0.63 0.533 0.727 0.995 0.267 1.711 1.155 1.712 2.211v12.191c0 1.262-1.023 2.286-2.286 2.286h-16.762c-1.262 0-2.286-1.023-2.286-2.286v-12.19c0-0.001 0-0.001 0-0.002 0-1.062 0.724-1.955 1.706-2.212 0.348-0.091 0.589-0.389 0.589-0.743 0-0.421-0.342-0.763-0.763-0.763-0.068 0-0.133 0.009-0.196 0.025-1.655 0.434-2.859 1.921-2.859 3.689 0 0.002 0 0.003 0 0.005v12.19c0 2.104 1.706 3.81 3.81 3.81h16.762c2.104 0 3.81-1.706 3.81-3.81v-12.19c-0.001-1.756-1.191-3.234-2.808-3.674zM7.619 17.524c-0.421 0-0.762 0.341-0.762 0.762s0.341 0.762 0.762 0.762h16.762c0.421 0 0.762-0.341 0.762-0.762s-0.341-0.762-0.762-0.762h-1.524v-9.509l-4.030-3.985c-0.132-0.114-0.306-0.183-0.496-0.183-0.421 0-0.762 0.341-0.762 0.762 0 0.19 0.069 0.363 0.184 0.497l3.58 3.588v8.83h-10.667v-12.19h4.571v3.81c0 0.463 0.375 0.838 0.838 0.838h3.672c0.421 0 0.762-0.341 0.762-0.762s-0.341-0.762-0.762-0.762h-2.987v-3.81c0-0.463-0.375-0.838-0.838-0.838h-5.943c-0.463 0-0.838 0.375-0.838 0.838v12.876zM10.667 22.156c0 0.421-0.341 0.762-0.762 0.762s-0.762-0.341-0.762-0.762c0-0.421 0.341-0.762 0.762-0.762s0.762 0.341 0.762 0.762zM13.684 22.156c0 0.421-0.341 0.762-0.762 0.762s-0.762-0.341-0.762-0.762c0-0.421 0.341-0.762 0.762-0.762s0.762 0.341 0.762 0.762zM16.762 22.156c0 0.421-0.341 0.762-0.762 0.762s-0.762-0.341-0.762-0.762c0-0.421 0.341-0.762 0.762-0.762s0.762 0.341 0.762 0.762zM19.855 11.528h-7.665c-0.421 0-0.762 0.341-0.762 0.762s0.341 0.762 0.762 0.762h7.695c0.421 0 0.762-0.341 0.762-0.762s-0.341-0.762-0.762-0.762zM19.855 14.476h-7.665c-0.421 0-0.762 0.341-0.762 0.762s0.341 0.762 0.762 0.762h7.695c0.421 0 0.762-0.341 0.762-0.762s-0.341-0.762-0.762-0.762z"></path>
</svg>
