<!-- Generated by IcoMoon.io -->
<svg version="1.1" xmlns="http://www.w3.org/2000/svg" width="32" height="32" viewBox="0 0 32 32">
<title>fb</title>
<path d="M24.899 8.792c-0.195 0.14-0.321 0.366-0.321 0.621 0 0.164 0.052 0.316 0.14 0.44 1.217 1.708 1.947 3.84 1.947 6.143 0 5.891-4.776 10.667-10.667 10.667s-10.667-4.776-10.667-10.667c0-5.891 4.776-10.667 10.667-10.667 2.068 0 3.998 0.588 5.632 1.606 0.086 0.085 0.258 0.152 0.445 0.152 0.421 0 0.762-0.341 0.762-0.762 0-0.323-0.201-0.599-0.485-0.71-1.82-1.134-4.024-1.805-6.385-1.805-6.733 0-12.19 5.458-12.19 12.19s5.458 12.19 12.19 12.19c6.733 0 12.19-5.458 12.19-12.19 0-2.633-0.835-5.072-2.255-7.065-0.115-0.15-0.337-0.27-0.586-0.27-0.155 0-0.3 0.046-0.42 0.126zM16.884 21.714v-5.211h1.752l0.259-2.027h-2.011v-1.295c0-0.587 0.16-0.99 1.006-0.99h1.074v-1.821c-0.465-0.053-1.005-0.084-1.551-0.084-0.006 0-0.013 0-0.019 0-0.050-0.004-0.11-0.006-0.17-0.006-1.351 0-2.446 1.095-2.446 2.446 0 0.080 0.004 0.159 0.011 0.237l-0.001 1.514h-1.752v2.034h1.752v5.204z"></path>
</svg>
