<!-- Generated by IcoMoon.io -->
<svg version="1.1" xmlns="http://www.w3.org/2000/svg" width="32" height="32" viewBox="0 0 32 32">
<title>file-audio</title>
<path d="M28 4.813l-4.78-4.3c-0.352-0.318-0.82-0.512-1.333-0.513h-16.554c-1.105 0-2 0.895-2 2v28c0 1.105 0.895 2 2 2h21.333c1.105 0 2-0.895 2-2v-23.7c-0.001-0.59-0.258-1.12-0.665-1.485zM27.333 30c0 0.368-0.298 0.667-0.667 0.667h-21.333c-0.368 0-0.667-0.298-0.667-0.667v-28c0-0.368 0.298-0.667 0.667-0.667h16v5.333c0 0.736 0.597 1.333 1.333 1.333h2c0.368 0 0.667-0.298 0.667-0.667s-0.298-0.667-0.667-0.667h-2v-4.86l4.447 4c0.135 0.122 0.22 0.298 0.22 0.493zM21.46 27.753c-0.93-0.020-1.692-0.717-1.812-1.617-0.006-0.060-0.009-0.119-0.009-0.178 0-0.444 0.159-0.851 0.424-1.167 0.121-0.147 0.307-0.242 0.514-0.242 0.369 0 0.668 0.299 0.668 0.668 0 0.161-0.057 0.309-0.152 0.424-0.071 0.085-0.115 0.197-0.115 0.319 0 0.019 0.001 0.037 0.003 0.055 0.041 0.24 0.249 0.423 0.5 0.423 0.151 0 0.287-0.066 0.38-0.171 1.365-1.666 2.193-3.818 2.193-6.164s-0.827-4.498-2.206-6.181c-0.066-0.085-0.183-0.154-0.317-0.169-0.021-0.003-0.042-0.004-0.064-0.004-0.113 0-0.217 0.039-0.299 0.105-0.117 0.090-0.192 0.232-0.192 0.391 0 0.123 0.045 0.236 0.12 0.323 1.22 1.499 1.96 3.433 1.96 5.539 0 1.124-0.211 2.199-0.594 3.187-0.079 0.192-0.32 0.368-0.603 0.368-0.369 0-0.668-0.299-0.668-0.668 0-0.086 0.016-0.169 0.046-0.245 0.304-0.78 0.481-1.688 0.481-2.637 0-1.783-0.625-3.421-1.667-4.705-0.252-0.299-0.412-0.707-0.412-1.152 0-0.573 0.265-1.084 0.679-1.418 0.315-0.254 0.716-0.405 1.152-0.405 0.065 0 0.129 0.003 0.193 0.010 0.491 0.051 0.923 0.298 1.216 0.663 1.552 1.896 2.49 4.34 2.49 7.003s-0.939 5.108-2.503 7.020c-0.318 0.377-0.815 0.627-1.37 0.627-0.012 0-0.024-0-0.036-0zM13.42 26.5c-0.327-0.003-0.625-0.124-0.855-0.322l-3.045-3.065c-0.12-0.121-0.194-0.287-0.194-0.47 0-0.368 0.299-0.667 0.667-0.667 0.185 0 0.352 0.075 0.473 0.197l2.867 2.887v-9.473l-2.867 2.887c-0.12 0.119-0.285 0.193-0.466 0.193h-2v3.393c0 0.368-0.298 0.667-0.667 0.667s-0.667-0.298-0.667-0.667v-3.48c0-0.689 0.558-1.247 1.247-1.247h1.8l2.813-2.833c0.23-0.219 0.542-0.354 0.886-0.354 0.161 0 0.314 0.029 0.456 0.083 0.463 0.181 0.793 0.63 0.798 1.156v9.867c0 0.001 0 0.001 0 0.002 0 0.519-0.315 0.964-0.765 1.155l-0.108 0.003c-0.109 0.042-0.235 0.072-0.367 0.086zM17.633 25.073c-0.47-0.010-0.898-0.184-1.229-0.469-0.357-0.336-0.581-0.814-0.581-1.345 0-0.488 0.189-0.931 0.498-1.261 0.465-0.5 0.753-1.172 0.759-1.911 0-0.369 0.299-0.668 0.667-0.668s0.667 0.298 0.667 0.667c-0.006 1.094-0.431 2.087-1.122 2.829-0.089 0.090-0.145 0.217-0.145 0.357s0.056 0.267 0.147 0.36c0.089 0.059 0.198 0.094 0.315 0.094 0.151 0 0.289-0.059 0.392-0.155 0.86-0.914 1.389-2.148 1.389-3.506s-0.529-2.593-1.392-3.509c-0.089-0.118-0.232-0.195-0.393-0.195-0.272 0-0.493 0.221-0.493 0.493 0 0.148 0.065 0.28 0.168 0.371 0.116 0.12 0.188 0.284 0.188 0.464 0 0.368-0.299 0.667-0.667 0.667-0.188 0-0.358-0.078-0.48-0.204-0.308-0.327-0.497-0.768-0.497-1.254 0-1.011 0.819-1.83 1.83-1.83 0.525 0 0.999 0.221 1.332 0.576 1.089 1.153 1.758 2.71 1.758 4.424s-0.669 3.272-1.76 4.426c-0.34 0.352-0.819 0.574-1.35 0.577z"></path>
</svg>
