<!-- Generated by IcoMoon.io -->
<svg version="1.1" xmlns="http://www.w3.org/2000/svg" width="32" height="32" viewBox="0 0 32 32">
<title>file-xls</title>
<path d="M28 4.813l-4.78-4.3c-0.352-0.318-0.82-0.512-1.333-0.513h-16.554c-1.105 0-2 0.895-2 2v28c0 1.105 0.895 2 2 2h21.333c1.105 0 2-0.895 2-2v-23.7c-0.001-0.59-0.258-1.12-0.665-1.485zM27.333 30c0 0.368-0.298 0.667-0.667 0.667h-21.333c-0.368 0-0.667-0.298-0.667-0.667v-28c0-0.368 0.298-0.667 0.667-0.667h16v5.333c0 0.736 0.597 1.333 1.333 1.333h2c0.368 0 0.667-0.298 0.667-0.667s-0.298-0.667-0.667-0.667h-2v-4.86l4.447 4c0.135 0.122 0.22 0.298 0.22 0.493zM22.347 24h-1.527l-4-6 4-6h1.513c0.368 0 0.667-0.298 0.667-0.667s-0.298-0.667-0.667-0.667h-3.7c-0.368 0-0.667 0.298-0.667 0.667s0.298 0.667 0.667 0.667h0.627l-3.26 4.887-3.26-4.887h0.627c0.368 0 0.667-0.298 0.667-0.667s-0.298-0.667-0.667-0.667h-3.713c-0.368 0-0.667 0.298-0.667 0.667s0.298 0.667 0.667 0.667h1.513l4 6-4 6h-1.513c-0.368 0-0.667 0.298-0.667 0.667s0.298 0.667 0.667 0.667h3.72c0.368 0 0.667-0.298 0.667-0.667s-0.298-0.667-0.667-0.667h-0.613l3.24-4.867 3.247 4.867h-0.613c-0.368 0-0.667 0.298-0.667 0.667s0.298 0.667 0.667 0.667h3.72c0.368 0 0.667-0.298 0.667-0.667s-0.298-0.667-0.667-0.667z"></path>
</svg>
