<!-- Generated by IcoMoon.io -->
<svg version="1.1" xmlns="http://www.w3.org/2000/svg" width="32" height="32" viewBox="0 0 32 32">
<title>file-code</title>
<path d="M28 4.813l-4.78-4.3c-0.352-0.318-0.82-0.512-1.333-0.513h-16.554c-1.105 0-2 0.895-2 2v28c0 1.105 0.895 2 2 2h21.333c1.105 0 2-0.895 2-2v-23.7c-0.001-0.59-0.258-1.12-0.665-1.485zM27.333 30c0 0.368-0.298 0.667-0.667 0.667h-21.333c-0.368 0-0.667-0.298-0.667-0.667v-28c0-0.368 0.298-0.667 0.667-0.667h16v5.333c0 0.736 0.597 1.333 1.333 1.333h2c0.368 0 0.667-0.298 0.667-0.667s-0.298-0.667-0.667-0.667h-2v-4.86l4.447 4c0.135 0.122 0.22 0.298 0.22 0.493zM14.853 26.28h-0.107c-0.317-0.055-0.556-0.328-0.556-0.657 0-0.039 0.003-0.076 0.010-0.113l2.299-13.956c0.053-0.324 0.331-0.568 0.667-0.568 0.373 0 0.675 0.302 0.675 0.675 0 0.038-0.003 0.075-0.009 0.111l-2.326 13.949c-0.053 0.318-0.325 0.558-0.653 0.56zM11.333 24.793c-0.226-0-0.425-0.113-0.545-0.285l-3.661-5.215c-0.076-0.107-0.121-0.24-0.121-0.383s0.045-0.277 0.123-0.385l3.652-5.191c0.122-0.173 0.321-0.284 0.547-0.284 0.369 0 0.668 0.299 0.668 0.668 0 0.144-0.045 0.277-0.122 0.385l-3.385 4.811 3.38 4.833c0.074 0.106 0.119 0.238 0.119 0.38 0 0.363-0.29 0.659-0.652 0.666zM20.667 24.793c-0.368-0.001-0.666-0.299-0.666-0.667 0-0.142 0.044-0.274 0.12-0.382l3.379-4.831-3.367-4.833c-0.111-0.119-0.18-0.279-0.18-0.455 0-0.368 0.298-0.667 0.667-0.667 0.262 0 0.489 0.151 0.598 0.371l3.648 5.217c0.076 0.107 0.121 0.24 0.121 0.383s-0.045 0.277-0.123 0.385l-3.645 5.211c-0.123 0.163-0.316 0.267-0.534 0.267-0.007 0-0.014-0-0.021-0z"></path>
</svg>
