<!-- Generated by IcoMoon.io -->
<svg version="1.1" xmlns="http://www.w3.org/2000/svg" width="32" height="32" viewBox="0 0 32 32">
<title>file-pdf</title>
<path d="M28 4.813l-4.78-4.3c-0.352-0.318-0.82-0.512-1.333-0.513h-16.554c-1.105 0-2 0.895-2 2v28c0 1.105 0.895 2 2 2h21.333c1.105 0 2-0.895 2-2v-23.7c-0.001-0.59-0.258-1.12-0.665-1.485zM27.333 30c0 0.368-0.298 0.667-0.667 0.667h-21.333c-0.368 0-0.667-0.298-0.667-0.667v-28c0-0.368 0.298-0.667 0.667-0.667h16v5.333c0 0.736 0.597 1.333 1.333 1.333h2c0.368 0 0.667-0.298 0.667-0.667s-0.298-0.667-0.667-0.667h-2v-4.86l4.447 4c0.135 0.122 0.22 0.298 0.22 0.493zM7.58 22.56c-1.113 1.113-0.873 2.107-0.713 2.473 0.39 0.796 1.195 1.335 2.126 1.335 0.033 0 0.066-0.001 0.099-0.002l-0.005 0c0.812-0.003 1.545-0.337 2.073-0.873l0.054-0.060c0.060-0.080 1.487-1.92 3.040-4.36 0.98-0.193 2.053-0.347 3.213-0.46 1.6 2.053 3.333 3.093 5.14 3.093 0.044 0.002 0.094 0.004 0.146 0.004 0.707 0 1.356-0.253 1.859-0.674 0.406-0.372 0.662-0.91 0.662-1.508 0-0.012-0-0.025-0-0.037 0-1.151-0.853-2.445-2-2.445h-1.027c-1.4 0-2.827 0.053-4.153 0.16-0.486-0.691-0.96-1.483-1.376-2.31 1.163-2.664 1.59-4.577 1.243-5.937-0.215-1.042-1.125-1.813-2.215-1.813-0.009 0-0.017 0-0.026 0-1.145 0-2.372 0.793-2.372 2 0 0.747 0.667 3.213 1.847 5.667-0.48 0.953-1.067 2-1.753 3.093-2.667 0.593-4.667 1.493-5.853 2.667zM10.2 24.56c-0.287 0.282-0.679 0.457-1.113 0.46-0.025 0.002-0.054 0.003-0.083 0.003-0.385 0-0.723-0.202-0.915-0.505-0.156-0.371 0.204-0.804 0.424-1.031 1.064-0.941 2.367-1.637 3.805-1.987-1.032 1.627-1.938 2.834-2.125 3.054zM22.247 20.36h1.020c0.247 0 0.667 0.553 0.667 1.12 0.001 0.010 0.001 0.023 0.001 0.035 0 0.207-0.087 0.394-0.227 0.525-0.27 0.192-0.607 0.307-0.969 0.307-0.051 0-0.101-0.002-0.151-0.007-1.174 0-2.36-0.666-3.514-1.9 1.027-0.060 2.1-0.093 3.16-0.093zM14.667 11.12c0-0.287 0.493-0.667 1.047-0.667 0.008-0 0.017-0 0.026-0 0.478 0 0.872 0.359 0.927 0.823 0.16 0.631 0.127 1.798-0.746 3.904-0.543-1.17-0.978-2.532-1.237-3.955zM15.927 18.233q0.327 0.593 0.667 1.127-0.727 0.087-1.413 0.193 0.4-0.667 0.747-1.333z"></path>
</svg>
