<!-- Generated by IcoMoon.io -->
<svg version="1.1" xmlns="http://www.w3.org/2000/svg" width="32" height="32" viewBox="0 0 32 32">
<title>file-doc</title>
<path d="M28 4.813l-4.78-4.3c-0.352-0.318-0.82-0.512-1.333-0.513h-16.554c-1.105 0-2 0.895-2 2v28c0 1.105 0.895 2 2 2h21.333c1.105 0 2-0.895 2-2v-23.7c-0.001-0.59-0.258-1.12-0.665-1.485zM27.333 30c0 0.368-0.298 0.667-0.667 0.667h-21.333c-0.368 0-0.667-0.298-0.667-0.667v-28c0-0.368 0.298-0.667 0.667-0.667h16v5.333c0 0.736 0.597 1.333 1.333 1.333h2c0.368 0 0.667-0.298 0.667-0.667s-0.298-0.667-0.667-0.667h-2v-4.86l4.447 4c0.135 0.122 0.22 0.298 0.22 0.493zM24.107 10.587h-2.773c-0.368 0-0.667 0.298-0.667 0.667s0.298 0.667 0.667 0.667h0.527l-2.527 10.080-2.667-10.907c-0.013-0.031-0.026-0.058-0.042-0.083-0.016-0.046-0.036-0.088-0.060-0.127-0.053-0.064-0.112-0.123-0.176-0.175-0.034-0.021-0.072-0.039-0.111-0.054-0.031-0.016-0.062-0.029-0.094-0.040l-0.184-0.001c-0.020-0.002-0.043-0.003-0.067-0.003s-0.047 0.001-0.070 0.004l0.003-0c-0.034 0.013-0.063 0.026-0.090 0.042-0.043 0.016-0.082 0.036-0.12 0.060-0.064 0.053-0.123 0.112-0.176 0.176-0.024 0.038-0.045 0.080-0.060 0.124-0.015 0.027-0.028 0.053-0.040 0.081l-2.715 10.904-2.533-10.080h0.533c0.368 0 0.667-0.298 0.667-0.667s-0.298-0.667-0.667-0.667h-2.773c-0.368 0-0.667 0.298-0.667 0.667s0.298 0.667 0.667 0.667h0.867l3.24 12.987c0.075 0.292 0.336 0.505 0.647 0.505s0.572-0.212 0.646-0.5l2.708-10.911 2.713 10.9c0.075 0.292 0.336 0.505 0.647 0.505s0.572-0.212 0.646-0.5l3.234-12.998h0.86c0.368 0 0.667-0.298 0.667-0.667s-0.298-0.667-0.667-0.667z"></path>
</svg>
