<!-- Generated by IcoMoon.io -->
<svg version="1.1" xmlns="http://www.w3.org/2000/svg" width="32" height="32" viewBox="0 0 32 32">
<title>file-zip</title>
<path d="M28 4.813l-4.78-4.3c-0.352-0.318-0.82-0.512-1.333-0.513h-16.554c-1.105 0-2 0.895-2 2v28c0 1.105 0.895 2 2 2h21.333c1.105 0 2-0.895 2-2v-23.7c-0.001-0.59-0.258-1.12-0.665-1.485zM27.333 30c0 0.368-0.298 0.667-0.667 0.667h-21.333c-0.368 0-0.667-0.298-0.667-0.667v-28c0-0.368 0.298-0.667 0.667-0.667h16v5.333c0 0.736 0.597 1.333 1.333 1.333h2c0.368 0 0.667-0.298 0.667-0.667s-0.298-0.667-0.667-0.667h-2v-4.86l4.447 4c0.135 0.122 0.22 0.298 0.22 0.493zM16 27.547c-0.013 0-0.028 0-0.044 0-1.51 0-2.876-0.614-3.863-1.607-0.813-0.818-1.315-1.945-1.315-3.19 0-0.196 0.012-0.39 0.037-0.58l-0.002-0.064 1.693-5.947c0.289-0.875 1.1-1.496 2.055-1.496 0.037 0 0.073 0.001 0.11 0.003l2.662-0c0.017-0.001 0.038-0.001 0.059-0.001 0.955 0 1.765 0.62 2.050 1.479l1.718 6.015c0.022 0.167 0.034 0.361 0.034 0.557 0 1.244-0.502 2.371-1.315 3.19-0.986 1.008-2.359 1.635-3.879 1.64zM12.253 22.393c-0.013 0.11-0.021 0.237-0.021 0.366 0 0.897 0.362 1.71 0.947 2.301 0.722 0.717 1.718 1.16 2.816 1.16s2.094-0.443 2.817-1.16c0.585-0.59 0.947-1.403 0.947-2.3 0-0.129-0.008-0.256-0.022-0.382l-1.679-5.885c-0.098-0.29-0.367-0.495-0.684-0.495-0.015 0-0.030 0-0.045 0.001l-2.665-0c-0.006-0-0.014-0-0.021-0-0.319 0-0.59 0.208-0.684 0.495zM16.667 2h0.667c0.368 0 0.667 0.298 0.667 0.667v0.667c0 0.368-0.298 0.667-0.667 0.667h-0.667c-0.368 0-0.667-0.298-0.667-0.667v-0.667c0-0.368 0.298-0.667 0.667-0.667zM14.667 4h0.667c0.368 0 0.667 0.298 0.667 0.667v0.667c0 0.368-0.298 0.667-0.667 0.667h-0.667c-0.368 0-0.667-0.298-0.667-0.667v-0.667c0-0.368 0.298-0.667 0.667-0.667zM16.667 6h0.667c0.368 0 0.667 0.298 0.667 0.667v0.667c0 0.368-0.298 0.667-0.667 0.667h-0.667c-0.368 0-0.667-0.298-0.667-0.667v-0.667c0-0.368 0.298-0.667 0.667-0.667zM14.667 8h0.667c0.368 0 0.667 0.298 0.667 0.667v0.667c0 0.368-0.298 0.667-0.667 0.667h-0.667c-0.368 0-0.667-0.298-0.667-0.667v-0.667c0-0.368 0.298-0.667 0.667-0.667zM16.667 10h0.667c0.368 0 0.667 0.298 0.667 0.667v0.667c0 0.368-0.298 0.667-0.667 0.667h-0.667c-0.368 0-0.667-0.298-0.667-0.667v-0.667c0-0.368 0.298-0.667 0.667-0.667zM14.667 12h0.667c0.368 0 0.667 0.298 0.667 0.667v0.667c0 0.368-0.298 0.667-0.667 0.667h-0.667c-0.368 0-0.667-0.298-0.667-0.667v-0.667c0-0.368 0.298-0.667 0.667-0.667zM16 21.267c0 0.009 0.001 0.018 0.001 0.028 0 0.299-0.197 0.553-0.469 0.637-0.484 0.076-0.857 0.453-0.924 0.929-0.001 0.546 0.666 0.999 1.386 0.999s1.387-0.453 1.387-0.993c0-0.368 0.298-0.667 0.667-0.667s0.667 0.298 0.667 0.667c0 1.28-1.22 2.327-2.72 2.327s-2.72-1.047-2.72-2.327c0.063-1.091 0.845-1.983 1.877-2.21 0.066-0.016 0.124-0.024 0.183-0.024 0.368 0 0.667 0.298 0.667 0.667 0 0.007-0 0.015-0 0.022z"></path>
</svg>
