<!-- Generated by IcoMoon.io -->
<svg version="1.1" xmlns="http://www.w3.org/2000/svg" width="32" height="32" viewBox="0 0 32 32">
<title>file-video</title>
<path d="M28 4.813l-4.78-4.3c-0.352-0.318-0.82-0.512-1.333-0.513h-16.554c-1.105 0-2 0.895-2 2v28c0 1.105 0.895 2 2 2h21.333c1.105 0 2-0.895 2-2v-23.7c-0.001-0.59-0.258-1.12-0.665-1.485zM27.333 30c0 0.368-0.298 0.667-0.667 0.667h-21.333c-0.368 0-0.667-0.298-0.667-0.667v-28c0-0.368 0.298-0.667 0.667-0.667h16v5.333c0 0.736 0.597 1.333 1.333 1.333h2c0.368 0 0.667-0.298 0.667-0.667s-0.298-0.667-0.667-0.667h-2v-4.86l4.447 4c0.135 0.122 0.22 0.298 0.22 0.493zM24.753 25.38c-0.002 0-0.004 0-0.006 0-0.342 0-0.652-0.135-0.881-0.354l-0.073-0.086-1.24-1.72c-0.069-0.104-0.111-0.231-0.111-0.368 0-0.368 0.298-0.667 0.667-0.667 0.212 0 0.401 0.099 0.523 0.253l1.034 1.428v-9.913l-2.787 3.873c-0.22 0.302-0.351 0.681-0.351 1.090s0.132 0.788 0.355 1.095c0.066 0.098 0.107 0.225 0.107 0.362 0 0.368-0.298 0.667-0.667 0.667-0.212 0-0.401-0.099-0.523-0.253-0.379-0.522-0.605-1.174-0.605-1.879 0-0.297 0.040-0.585 0.116-0.859 0.113-0.388 0.296-0.746 0.534-1.059l2.947-4.099 0.073-0.087c0.228-0.219 0.539-0.353 0.88-0.353 0.002 0 0.004 0 0.007 0 0.126 0.002 0.247 0.019 0.363 0.049l0.11 0.038c0.454 0.192 0.769 0.632 0.773 1.146v10.381c0 0.006 0 0.014 0 0.022 0 0.438-0.211 0.826-0.537 1.069-0.1 0.076-0.213 0.134-0.337 0.168-0.116 0.033-0.242 0.052-0.372 0.055zM15.68 25.333h-6.667c-0.002 0-0.004 0-0.007 0-1.654 0-2.995-1.335-3.007-2.986v-6.968c0-0.368 0.298-0.667 0.667-0.667s0.667 0.298 0.667 0.667v6.967c0.002 0.488 0.212 0.927 0.545 1.232 0.279 0.259 0.651 0.418 1.061 0.421h6.734c0 0 0 0 0 0 0.914 0 1.656-0.739 1.66-1.653v-6.667c0-0.006 0-0.013 0-0.020 0-0.915-0.739-1.656-1.653-1.66h-6.967c-0.368 0-0.667-0.298-0.667-0.667s0.298-0.667 0.667-0.667h6.967c1.649 0 2.987 1.337 2.987 2.987v6.667c0 0.008 0 0.017 0 0.027 0 1.649-1.337 2.987-2.987 2.987-0 0-0 0-0 0z"></path>
</svg>
