<!-- Generated by IcoMoon.io -->
<svg version="1.1" xmlns="http://www.w3.org/2000/svg" width="32" height="32" viewBox="0 0 32 32">
<title>file-image</title>
<path d="M28 4.813l-4.78-4.3c-0.352-0.318-0.82-0.512-1.333-0.513h-16.554c-1.105 0-2 0.895-2 2v28c0 1.105 0.895 2 2 2h21.333c1.105 0 2-0.895 2-2v-23.7c-0.001-0.59-0.258-1.12-0.665-1.485zM27.333 30c0 0.368-0.298 0.667-0.667 0.667h-21.333c-0.368 0-0.667-0.298-0.667-0.667v-28c0-0.368 0.298-0.667 0.667-0.667h16v5.333c0 0.736 0.597 1.333 1.333 1.333h2c0.368 0 0.667-0.298 0.667-0.667s-0.298-0.667-0.667-0.667h-2v-4.86l4.447 4c0.135 0.122 0.22 0.298 0.22 0.493zM25.287 28h-18.573c-0.001 0-0.002 0-0.004 0-0.368 0-0.667-0.298-0.667-0.667 0-0.157 0.054-0.301 0.145-0.415l4.812-6.145c0.123-0.156 0.313-0.256 0.525-0.256 0.118 0 0.229 0.031 0.325 0.084l2.457 1.332 3.953-5.793c0.122-0.178 0.324-0.294 0.553-0.294 0.007 0 0.015 0 0.022 0 0.234 0.007 0.437 0.135 0.551 0.324l4.348 7.276c0.032 0.075 0.050 0.162 0.050 0.254 0 0.368-0.298 0.667-0.667 0.667-0.212 0-0.4-0.099-0.523-0.253l-3.814-6.361-3.713 5.46c-0.122 0.176-0.323 0.29-0.55 0.29-0.119 0-0.23-0.031-0.326-0.085l-2.49-1.378-3.613 4.627h17.2c0.368 0 0.667 0.298 0.667 0.667s-0.298 0.667-0.667 0.667zM12.253 14.127h-0.12c-0.555-0.112-1.043-0.346-1.454-0.672-0.825-0.629-1.356-1.621-1.356-2.737 0-1.9 1.54-3.44 3.44-3.44s3.44 1.54 3.44 3.44c0 0.783-0.262 1.506-0.703 2.084-0.117 0.154-0.31 0.258-0.527 0.258-0.368 0-0.667-0.298-0.667-0.667 0-0.151 0.050-0.29 0.135-0.402 0.262-0.346 0.421-0.786 0.421-1.263 0-1.163-0.943-2.107-2.107-2.107s-2.107 0.943-2.107 2.107c0 1.028 0.737 1.885 1.711 2.070 0.356 0.034 0.623 0.32 0.623 0.669 0 0.37-0.3 0.669-0.669 0.669-0.021 0-0.042-0.001-0.063-0.003zM12.667 6.6c-0.368 0-0.667-0.298-0.667-0.667v-1.060c0-0.368 0.298-0.667 0.667-0.667s0.667 0.298 0.667 0.667v1.060c0 0.368-0.298 0.667-0.667 0.667zM12.667 17.207c-0.368 0-0.667-0.298-0.667-0.667v-1.060c0-0.368 0.298-0.667 0.667-0.667s0.667 0.298 0.667 0.667v1.060c0 0.368-0.298 0.667-0.667 0.667zM8 11.333h-1.080c-0.368 0-0.667-0.298-0.667-0.667s0.298-0.667 0.667-0.667h1.080c0.368 0 0.667 0.298 0.667 0.667s-0.298 0.667-0.667 0.667zM18.587 11.333h-1.060c-0.368 0-0.667-0.298-0.667-0.667s0.298-0.667 0.667-0.667h1.060c0.368 0 0.667 0.298 0.667 0.667s-0.298 0.667-0.667 0.667zM8.627 15.5c-0.001 0-0.002 0-0.004 0-0.368 0-0.667-0.298-0.667-0.667 0-0.185 0.075-0.352 0.197-0.473l0.747-0.747c0.116-0.1 0.268-0.16 0.434-0.16 0.368 0 0.667 0.298 0.667 0.667 0 0.166-0.061 0.318-0.161 0.434l-0.739 0.779c-0.117 0.104-0.272 0.167-0.442 0.167-0.011 0-0.022-0-0.033-0.001zM16.127 8c-0.001 0-0.003 0-0.004 0-0.368 0-0.667-0.298-0.667-0.667 0-0.185 0.075-0.353 0.197-0.473l0.753-0.753c0.112-0.088 0.254-0.14 0.409-0.14 0.368 0 0.667 0.298 0.667 0.667 0 0.16-0.056 0.307-0.15 0.422l-0.732 0.752c-0.12 0.12-0.286 0.193-0.469 0.193-0.001 0-0.003 0-0.004 0zM16.88 15.5c-0.001 0-0.003 0-0.004 0-0.183 0-0.349-0.074-0.47-0.193l-0.747-0.747c-0.1-0.116-0.16-0.268-0.16-0.434 0-0.368 0.298-0.667 0.667-0.667 0.166 0 0.318 0.061 0.434 0.161l0.732 0.739c0.122 0.121 0.197 0.288 0.197 0.473 0 0.368-0.298 0.667-0.667 0.667-0.001 0-0.003 0-0.004 0zM9.38 8c-0.001 0-0.002 0-0.004 0-0.183 0-0.349-0.074-0.47-0.193l-0.753-0.753c-0.143-0.123-0.233-0.304-0.233-0.506 0-0.368 0.298-0.667 0.667-0.667 0.202 0 0.383 0.090 0.506 0.232l0.754 0.754c0.118 0.12 0.191 0.285 0.191 0.467 0 0.365-0.293 0.661-0.657 0.667z"></path>
</svg>
