<!-- Generated by IcoMoon.io -->
<svg version="1.1" xmlns="http://www.w3.org/2000/svg" width="32" height="32" viewBox="0 0 32 32">
<title>fpso</title>
<path d="M30.45 11.922c0.097 0.097 0.231 0.157 0.379 0.157 0.295 0 0.534-0.239 0.534-0.534 0-0.147-0.059-0.28-0.156-0.377l-10.311-10.372c-0.097-0.097-0.231-0.157-0.379-0.157-0.295 0-0.534 0.239-0.534 0.534 0 0.147 0.059 0.28 0.156 0.377l-0-0zM30.997 18.489l-5.358-5.376c0.38-0.412 0.613-0.964 0.613-1.57 0-0.636-0.256-1.211-0.67-1.63l0 0-3.755-3.772c-0.416-0.423-0.994-0.684-1.633-0.684-0.607 0-1.159 0.236-1.568 0.622l0.001-0.001-5.035-5.070c-0.51-0.514-1.216-0.832-1.996-0.832s-1.487 0.318-1.996 0.831l-0 0c-0.509 0.514-0.824 1.221-0.824 2.002 0 0.486 0.122 0.944 0.337 1.345l-0.007-0.015 2.901 5.465c0.092 0.17 0.268 0.283 0.471 0.283 0.295 0 0.534-0.239 0.534-0.534 0-0.092-0.023-0.178-0.064-0.254l0.001 0.003-2.894-5.461c-0.126-0.238-0.2-0.52-0.2-0.82 0-0.484 0.193-0.922 0.506-1.243l-0 0c0.317-0.322 0.757-0.521 1.244-0.521s0.928 0.199 1.244 0.521l0 0 5.031 5.052-8.636 8.69c-0.070 0.070-0.129 0.151-0.175 0.24l-0.003 0.005-2.464 4.825c-0.092 0.028-0.267 0.1-0.58 0.235l-4.836 1.458c-0.59 0.182-1.011 0.723-1.011 1.362 0 0.393 0.16 0.749 0.417 1.006l0 0 2.343 2.372c0.084 0.081 0.195 0.135 0.318 0.146l0.002 0-0.107 0.21c-0.070 0.131-0.112 0.287-0.112 0.453 0 0.538 0.436 0.974 0.974 0.974 0.166 0 0.322-0.041 0.458-0.114l-0.005 0.003 0.085-0.046 2.759 2.773c0.254 0.259 0.608 0.419 0.999 0.42h0c0.003 0 0.006 0 0.010 0 0.123 0 0.242-0.016 0.356-0.045l-0.010 0.002c0.487-0.126 0.867-0.492 1.011-0.961l0.003-0.010 1.707-5.689 4.622-2.379c0.094-0.049 0.175-0.108 0.245-0.178l-0 0 8.636-8.715 5.351 5.387c0.314 0.32 0.508 0.76 0.508 1.244s-0.194 0.924-0.508 1.245l0-0c-0.315 0.32-0.753 0.518-1.237 0.518-0.302 0-0.587-0.077-0.834-0.213l0.009 0.005-5.422-2.908c-0.068-0.034-0.149-0.054-0.234-0.054-0.295 0-0.533 0.239-0.533 0.533 0 0.195 0.104 0.365 0.26 0.458l0.002 0.001 5.44 2.916c0.384 0.212 0.842 0.336 1.329 0.336 0.779 0 1.484-0.319 1.991-0.834l0-0c0.507-0.513 0.82-1.219 0.82-1.998 0-0.786-0.319-1.498-0.834-2.012l-0-0zM3.705 26.272v-0.021l-2.357-2.354c-0.066-0.065-0.107-0.155-0.107-0.254 0-0.036 0.005-0.071 0.015-0.104l-0.001 0.003c0.031-0.12 0.121-0.215 0.236-0.252l0.003-0.001 4.398-1.326zM8.651 30.503c-0.037 0.119-0.131 0.21-0.25 0.241l-0.002 0.001c-0.024 0.006-0.053 0.009-0.082 0.009-0.097 0-0.185-0.039-0.249-0.102l0 0-2.521-2.535 4.508-2.322zM24.821 12.427l-0.309 0.313-9.010 9.052-10.745 5.532-0.26-0.26 5.497-10.795 9.33-9.38c0.223-0.224 0.532-0.363 0.873-0.363s0.65 0.139 0.873 0.363l0 0 3.751 3.776c0.224 0.226 0.362 0.537 0.362 0.88s-0.138 0.654-0.362 0.88l0-0zM18.791 10.425v0c-0.001 0-0.003 0-0.004 0-0.694 0-1.322 0.284-1.774 0.743l-0 0-2.197 2.201c-0.455 0.46-0.736 1.092-0.736 1.79s0.281 1.331 0.736 1.79l-0-0c0.452 0.459 1.080 0.743 1.774 0.743 0.001 0 0.003 0 0.004 0h-0c0.001 0 0.003 0 0.004 0 0.694 0 1.322-0.284 1.774-0.743l0-0 2.19-2.201c0.456-0.459 0.737-1.092 0.737-1.79s-0.282-1.331-0.737-1.79l0 0c-0.451-0.458-1.078-0.742-1.77-0.743h-0zM19.819 13.98l-2.19 2.201c-0.262 0.266-0.625 0.43-1.028 0.43h-0c-0.402-0-0.766-0.165-1.027-0.43l-0-0c-0.264-0.267-0.427-0.633-0.427-1.038s0.163-0.772 0.427-1.038l-0 0 2.204-2.183c0.262-0.266 0.625-0.43 1.028-0.43h0c0 0 0.001 0 0.001 0 0.402 0 0.765 0.165 1.026 0.43l0 0c0.26 0.266 0.42 0.63 0.42 1.031 0 0.408-0.166 0.778-0.434 1.045l-0 0z"></path>
</svg>
