<!-- Generated by IcoMoon.io -->
<svg version="1.1" xmlns="http://www.w3.org/2000/svg" width="32" height="32" viewBox="0 0 32 32">
<title>graduate</title>
<path d="M26.841 5.824c-0.005-0.139-0.062-0.264-0.153-0.356l0 0-5.152-5.134c-0.096-0.096-0.23-0.156-0.377-0.156s-0.28 0.060-0.377 0.156v0 0.021h-15.627c-0.295 0-0.533 0.239-0.533 0.533v0 30.222c0 0.295 0.239 0.533 0.533 0.533v0h21.333c0.295 0 0.533-0.239 0.533-0.533v0-24.889c-0-0.159-0.070-0.301-0.181-0.398l-0.001-0.001zM25.956 30.578h-20.267v-29.156h15.428l4.267 4.267h-3.694v-2.133c0-0.295-0.239-0.533-0.533-0.533s-0.533 0.239-0.533 0.533v0 2.667c0 0.295 0.239 0.533 0.533 0.533v0h4.8zM8.889 6.756h3.556c0.295 0 0.533-0.239 0.533-0.533s-0.239-0.533-0.533-0.533v0h-3.556c-0.295 0-0.533 0.239-0.533 0.533s0.239 0.533 0.533 0.533v0zM14.044 12.089h-5.156c-0.295 0-0.533 0.239-0.533 0.533s0.239 0.533 0.533 0.533v0h5.156c0.295 0 0.533-0.239 0.533-0.533s-0.239-0.533-0.533-0.533v0zM20.089 12.622c0 0.295 0.239 0.533 0.533 0.533v0h2.667c0.295 0 0.533-0.239 0.533-0.533s-0.239-0.533-0.533-0.533v0h-2.667c-0.295 0-0.533 0.239-0.533 0.533v0zM18.844 12.622c0-0.295-0.239-0.533-0.533-0.533v0h-1.778c-0.295 0-0.533 0.239-0.533 0.533s0.239 0.533 0.533 0.533v0h1.778c0.295 0 0.533-0.239 0.533-0.533v0zM20.444 17.956c-0.002 0-0.005 0-0.008 0-1.964 0-3.556 1.592-3.556 3.556 0 0.908 0.34 1.736 0.9 2.364l-0.003-0.004c-0.002 0.019-0.004 0.041-0.004 0.064s0.001 0.045 0.004 0.067l-0-0.003v5.017c0.001 0.294 0.239 0.532 0.533 0.532 0.097 0 0.187-0.026 0.266-0.071l-0.003 0.001 1.87-1.067 1.87 1.067c0.076 0.044 0.166 0.069 0.263 0.069 0.294 0 0.532-0.238 0.533-0.532v-5.017c0.002-0.019 0.004-0.041 0.004-0.064s-0.001-0.045-0.004-0.067l0 0.003c0.557-0.625 0.897-1.453 0.897-2.361 0-1.964-1.592-3.556-3.556-3.556-0.003 0-0.006 0-0.009 0h0zM20.444 19.022c1.375 0 2.489 1.114 2.489 2.489s-1.114 2.489-2.489 2.489c-1.375 0-2.489-1.114-2.489-2.489v0c0-1.375 1.114-2.489 2.489-2.489v0zM20.708 27.339c-0.076-0.044-0.166-0.069-0.263-0.069s-0.187 0.026-0.266 0.071l0.003-0.001-1.337 0.75v-3.406c0.465 0.242 1.016 0.385 1.6 0.385s1.135-0.142 1.62-0.394l-0.020 0.009v3.406zM14.222 20.622c-0.001 0-0.003 0-0.005 0-0.217 0-0.412-0.091-0.55-0.238l-0-0c-0.322-0.294-0.751-0.473-1.223-0.473s-0.902 0.18-1.225 0.475l0.001-0.001c-0.14 0.147-0.336 0.238-0.555 0.238s-0.415-0.091-0.554-0.238l-0-0c-0.316-0.293-0.741-0.473-1.207-0.473-0.005 0-0.011 0-0.017 0h0.001c-0.295 0-0.533 0.239-0.533 0.533s0.239 0.533 0.533 0.533v0c0.002-0 0.004-0 0.006-0 0.216 0 0.411 0.091 0.548 0.238l0 0c0.321 0.293 0.75 0.472 1.221 0.472s0.9-0.179 1.223-0.473l-0.001 0.001c0.14-0.147 0.338-0.239 0.556-0.239s0.416 0.091 0.556 0.238l0 0c0.316 0.293 0.741 0.473 1.207 0.473 0.005 0 0.011-0 0.017-0h-0.001c0.295 0 0.533-0.239 0.533-0.533s-0.239-0.533-0.533-0.533v0z"></path>
</svg>
