<!-- Generated by IcoMoon.io -->
<svg version="1.1" xmlns="http://www.w3.org/2000/svg" width="32" height="32" viewBox="0 0 32 32">
<title>guap-logo</title>
<path d="M27.787 12.862c-1.972-0.514-4.637-0.887-7.579-1.068 0.049 0.781 0.081 1.585 0.103 2.401 5.377 0.35 8.22 1.257 9.095 1.808-1.183 0.764-5.749 1.94-13.404 1.94s-12.247-1.178-13.411-1.942c1.115-0.735 5.293-1.844 12.522-1.935 0.657-0.004 1.188-0.538 1.188-1.195 0-0.66-0.535-1.195-1.195-1.195-0.003 0-0.005 0-0.008 0h-0.014c-3.542 0.044-15.084 0.49-15.084 4.326 0 4.125 13.328 4.331 16 4.331s16-0.208 16-4.333c0-1.825-2.403-2.663-4.213-3.135zM17.805 20.309c-0.35 5.389-1.257 8.223-1.808 9.097-0.764-1.183-1.94-5.749-1.94-13.404s1.176-12.23 1.942-13.408c0.735 1.144 1.879 5.504 1.94 12.806 0.006 0.656 0.539 1.186 1.195 1.186 0 0 0 0 0 0v0c0 0 0 0 0 0 0.66 0 1.195-0.535 1.195-1.195 0-0.004-0-0.009-0-0.013-0.034-3.904-0.385-7.563-0.98-10.302-0.769-3.464-1.832-5.075-3.351-5.075-4.125 0-4.333 13.328-4.333 16s0.208 16 4.333 16c1.827 0 2.665-2.403 3.135-4.211 0.514-1.974 0.887-4.642 1.068-7.593-0.884 0.061-1.702 0.093-2.398 0.113z"></path>
</svg>
