<!-- Generated by IcoMoon.io -->
<svg version="1.1" xmlns="http://www.w3.org/2000/svg" width="32" height="32" viewBox="0 0 32 32">
<title>institute-partners</title>
<path d="M31.748 13.639l-0.548-0.896c-0.098-0.133-0.254-0.218-0.43-0.218-0.295 0-0.533 0.239-0.533 0.533 0 0.087 0.021 0.169 0.058 0.242l0.546 0.893c0.018 0.030 0.029 0.066 0.029 0.105 0 0.068-0.034 0.129-0.085 0.165l-2.134 1.465c-0.032 0.021-0.071 0.034-0.113 0.034-0.072 0-0.135-0.037-0.171-0.094l-4.064-6.625c-0.018-0.029-0.028-0.065-0.028-0.103 0-0.069 0.035-0.13 0.088-0.167l2.155-1.458c0.035-0.031 0.082-0.051 0.133-0.051 0.006 0 0.012 0 0.018 0.001 0.054 0.012 0.099 0.046 0.127 0.091l2.045 3.361c0.093 0.164 0.267 0.273 0.466 0.273 0.295 0 0.533-0.239 0.533-0.533 0-0.11-0.033-0.212-0.090-0.296l-2.043-3.358c-0.228-0.363-0.626-0.601-1.079-0.601-0.26 0-0.502 0.078-0.703 0.213l-2.15 1.455c-0.337 0.23-0.555 0.612-0.555 1.046 0 0.193 0.044 0.377 0.121 0.541-0.16 0.202-0.399 0.344-0.672 0.369-0.443-0.050-0.841-0.135-1.223-0.254-0.956-0.294-2.113-0.488-3.31-0.527-2.034-0.001-3.542 0.085-4.623 1.166v0c-0.075 0.039-0.462 0.206-1.685 0.206-1.095 0-2.389-0.711-3.079-1.173 0.028-0.1 0.044-0.214 0.044-0.332 0-0.432-0.217-0.814-0.549-1.041l-2.159-1.461c-0.197-0.131-0.439-0.21-0.699-0.21-0.453 0-0.851 0.238-1.076 0.595l-0.643 1.072c-0.056 0.083-0.089 0.185-0.089 0.294 0 0.295 0.239 0.533 0.533 0.533 0.199 0 0.373-0.109 0.464-0.271l0.641-1.069c0.036-0.057 0.1-0.095 0.172-0.095 0.042 0 0.081 0.013 0.114 0.035l2.154 1.457c0.054 0.036 0.090 0.097 0.090 0.166 0 0.038-0.011 0.074-0.030 0.105l-3.911 6.431c-0.001 0-0.002 0-0.003 0-0.186 0-0.349 0.095-0.443 0.24l-2.103-1.42c-0.052-0.037-0.086-0.097-0.086-0.166 0-0.039 0.011-0.075 0.030-0.105l1.909-3.139c0.043-0.075 0.068-0.165 0.068-0.26 0-0.295-0.239-0.533-0.533-0.533-0.185 0-0.348 0.094-0.443 0.237l-1.946 3.131c-0.118 0.189-0.188 0.419-0.188 0.665 0 0.429 0.213 0.809 0.54 1.039l2.137 1.468c0.199 0.137 0.445 0.219 0.711 0.22 0.001 0 0.003 0 0.004 0 0.194 0 0.378-0.046 0.54-0.128 1.079 0.657 2.005 1.446 2.785 2.363l0.013 0.016c-0.25 0.281-0.403 0.653-0.403 1.060 0 0.788 0.571 1.443 1.322 1.573 0.003 0.055-0.001 0.117-0.001 0.18 0 0.882 0.715 1.596 1.596 1.596 0.114 0 0.226-0.012 0.333-0.035 0.18 0.685 0.797 1.179 1.53 1.179 0.474 0 0.9-0.207 1.193-0.535l0.001-0.002c0.266 0.535 0.808 0.895 1.434 0.895 0.476 0 0.903-0.208 1.195-0.538l0.467-0.478 1.835 1.166c0.258 0.166 0.574 0.265 0.912 0.265 0.495 0 0.941-0.211 1.252-0.548l0.079-0.087c0.213-0.234 0.362-0.53 0.418-0.858 0.127 0.023 0.271 0.043 0.419 0.043 0.492 0 0.935-0.212 1.242-0.549l0.079-0.087c0.262-0.288 0.427-0.669 0.441-1.089l0.064-0.003c0.002 0 0.004 0 0.006 0 0.497 0 0.944-0.213 1.255-0.553l0.079-0.087c0.213-0.233 0.362-0.528 0.418-0.854 0.144 0.033 0.307 0.058 0.476 0.058 0.495 0 0.941-0.212 1.252-0.55l0.079-0.087c0.279-0.3 0.45-0.704 0.45-1.148 0-0.316-0.087-0.612-0.238-0.865l1.878-1.511c0.191 0.124 0.424 0.197 0.675 0.197 0.266 0 0.513-0.083 0.716-0.225l2.129-1.462c0.335-0.232 0.551-0.614 0.551-1.047 0-0.244-0.069-0.472-0.188-0.665zM21.216 10.82c0.421 0.137 0.911 0.235 1.417 0.276 0.501-0.008 0.934-0.195 1.258-0.497l3.298 5.402-1.998 1.618-8.004-5.006c-0.194-0.126-0.43-0.2-0.684-0.2s-0.491 0.075-0.689 0.203l-3.152 2.070c-0.031 0.020-0.068 0.032-0.109 0.032-0.060 0-0.114-0.026-0.151-0.067l-0.491-0.551c0.779-1.079 1.537-2.019 2.341-2.917l-0.030 0.034 0.039-0.039c0.729-0.729 1.778-0.853 3.847-0.853 1.121 0.037 2.185 0.216 3.196 0.521zM7.467 20.388c-0.001-0.009-0.001-0.019-0.001-0.030 0-0.136 0.052-0.261 0.136-0.355l1.575-1.777c0.098-0.109 0.239-0.177 0.396-0.177 0.294 0 0.533 0.238 0.533 0.533 0 0.137-0.052 0.262-0.136 0.356l-1.575 1.777c-0.098 0.108-0.239 0.176-0.396 0.176-0.284 0-0.516-0.222-0.532-0.501zM8.964 22.521c-0.109-0.098-0.177-0.239-0.177-0.397 0-0.136 0.051-0.26 0.135-0.354l2.488-2.78c0.088-0.1 0.213-0.167 0.354-0.178l0.034-0c0.002-0 0.004-0 0.005-0 0.293 0 0.53 0.237 0.53 0.53 0 0.137-0.052 0.262-0.137 0.356l-2.489 2.78c-0.097 0.101-0.234 0.164-0.385 0.164-0.137 0-0.261-0.051-0.356-0.136zM10.83 23.662c-0.11-0.098-0.178-0.239-0.178-0.396 0-0.136 0.051-0.261 0.136-0.354l1.955-2.2c0.088-0.1 0.213-0.167 0.354-0.178l0.059-0c0.002-0 0.004-0 0.005-0 0.293 0 0.53 0.237 0.53 0.53 0 0.137-0.052 0.262-0.137 0.356l0-0-1.956 2.201c-0.097 0.109-0.239 0.178-0.396 0.178-0.143 0-0.273-0.057-0.369-0.149zM14.222 23.965c-0.098 0.109-0.239 0.177-0.396 0.177-0.294 0-0.533-0.238-0.533-0.533 0-0.137 0.052-0.262 0.136-0.356l1.095-1.23c0.088-0.1 0.213-0.166 0.354-0.178l0.055-0c0.292 0.003 0.527 0.241 0.527 0.533 0 0.135-0.050 0.259-0.133 0.353zM24.981 19.634l-0.078 0.085c-0.117 0.127-0.284 0.206-0.469 0.206-0.127 0-0.245-0.037-0.344-0.101l-0.595-0.379c-0.052-0.057-0.107-0.109-0.165-0.158-0.071-0.055-0.154-0.091-0.245-0.105l-3.139-1.991c-0.084-0.057-0.187-0.092-0.299-0.092-0.295 0-0.533 0.239-0.533 0.533 0 0.194 0.103 0.363 0.257 0.456l3.433 2.177c0.075 0.102 0.12 0.231 0.12 0.37 0 0.166-0.065 0.318-0.17 0.43l-0.078 0.085c-0.117 0.127-0.284 0.206-0.469 0.206-0.127 0-0.245-0.037-0.344-0.101l-0.332-0.212-0.039-0.039c-0.039-0.030-0.083-0.055-0.131-0.073l-2.539-1.612c-0.084-0.057-0.187-0.092-0.299-0.092-0.295 0-0.533 0.239-0.533 0.533 0 0.194 0.103 0.363 0.257 0.456l2.651 1.683c0.117 0.115 0.19 0.275 0.19 0.452 0 0.166-0.064 0.317-0.169 0.43l-0.078 0.085c-0.117 0.127-0.284 0.206-0.469 0.206-0.127 0-0.245-0.037-0.344-0.101l-0.449-0.286c-0.073-0.085-0.152-0.161-0.238-0.228-0.085-0.066-0.186-0.107-0.297-0.113l-1.175-0.747c-0.078-0.047-0.173-0.076-0.274-0.076-0.295 0-0.533 0.239-0.533 0.533 0 0.183 0.092 0.345 0.233 0.441l1.549 0.993c0.055 0.092 0.087 0.202 0.087 0.32 0 0.166-0.064 0.318-0.169 0.431l-0.078 0.085c-0.117 0.127-0.284 0.206-0.469 0.206-0.127 0-0.245-0.037-0.344-0.101l-1.694-1.065c0.211-0.267 0.338-0.609 0.338-0.981 0-0.88-0.713-1.593-1.593-1.593-0.034 0-0.067 0.001-0.1 0.003-0.031-0-0.067-0-0.102-0-0.106-0.69-0.646-1.228-1.328-1.329-0.006-0.036-0.004-0.077-0.004-0.118s-0.002-0.082-0.005-0.123c-0.047-0.834-0.739-1.497-1.587-1.497-0.284 0-0.551 0.075-0.782 0.205-0.247-0.565-0.802-0.948-1.447-0.948-0.475 0-0.901 0.208-1.193 0.537l-0.844 0.965c-0.8-0.917-1.715-1.704-2.73-2.349l3.434-5.737c0.846 0.54 2.268 1.298 3.588 1.298 0.213 0 0.409 0 0.597 0-0.576 0.711-1.148 1.497-1.454 1.913-0.103 0.144-0.165 0.323-0.165 0.517 0 0.226 0.084 0.433 0.223 0.59l0.579 0.65c0.235 0.26 0.573 0.422 0.948 0.422 0.258 0 0.498-0.077 0.699-0.208l3.156-2.073c0.031-0.020 0.068-0.031 0.108-0.031s0.078 0.012 0.109 0.032l8.291 5.191c0.146 0.118 0.239 0.297 0.239 0.497 0 0.166-0.064 0.318-0.168 0.431z"></path>
</svg>
