<!-- Generated by IcoMoon.io -->
<svg version="1.1" xmlns="http://www.w3.org/2000/svg" width="32" height="32" viewBox="0 0 32 32">
<title>international-projects</title>
<path d="M21.724 3.499c-1.445-0.689-3.14-1.091-4.929-1.091-6.451 0-11.68 5.229-11.68 11.68s5.229 11.68 11.68 11.68c6.451 0 11.68-5.229 11.68-11.68 0-1.436-0.259-2.811-0.733-4.081-1.057-2.859-3.209-5.188-5.947-6.478zM16.796 3.463c4.368 0.010 8.116 2.652 9.744 6.423l-3.952 1.516c-0.068-0.171-0.132-0.356-0.203-0.516-0.146-0.356-0.306-0.686-0.469-1.020s-0.334-0.651-0.512-0.964-0.356-0.615-0.551-0.903-0.388-0.572-0.587-0.839-0.405-0.53-0.615-0.761-0.423-0.48-0.64-0.711-0.441-0.434-0.661-0.626-0.452-0.38-0.679-0.548-0.462-0.324-0.693-0.462c-0.192-0.118-0.425-0.242-0.665-0.354-0.177-0.080-0.305-0.133-0.437-0.183q0.48-0.053 0.921-0.053zM14.126 4.213c0.195 0.002 0.384 0.020 0.569 0.053 0.202 0.036 0.395 0.086 0.581 0.148 0.207 0.068 0.403 0.146 0.592 0.236 0.21 0.099 0.407 0.206 0.598 0.323 0.175 0.105 0.377 0.244 0.58 0.389s0.409 0.316 0.608 0.491 0.402 0.356 0.601 0.572 0.395 0.427 0.59 0.651 0.384 0.473 0.569 0.711 0.356 0.516 0.548 0.786 0.356 0.562 0.519 0.85 0.331 0.601 0.484 0.91 0.306 0.64 0.444 0.967c0.064 0.149 0.121 0.306 0.181 0.459l-4.48 1.639-3.335-9.163c0.092-0.012 0.199-0.018 0.308-0.018 0.014 0 0.029 0 0.043 0zM7.172 9.6c0.744-1.571 1.808-2.882 3.115-3.893-0.011 0.049-0.047 0.113-0.079 0.185-0.094 0.193-0.195 0.437-0.283 0.688-0.105 0.308-0.183 0.574-0.247 0.852s-0.121 0.562-0.167 0.857-0.078 0.597-0.103 0.903-0.036 0.629-0.036 0.949 0 0.654 0.028 0.988 0.053 0.679 0.092 1.020c0.034 0.267 0.26 0.472 0.533 0.472 0.297 0 0.537-0.241 0.537-0.537 0-0.023-0.001-0.046-0.004-0.068-0.039-0.317-0.067-0.637-0.089-0.954s-0.028-0.619-0.025-0.917 0-0.59 0.036-0.875 0.053-0.558 0.092-0.825 0.089-0.523 0.149-0.768 0.128-0.48 0.203-0.711c0.089-0.259 0.176-0.468 0.273-0.671 0.087-0.181 0.187-0.363 0.298-0.537 0.103-0.157 0.22-0.311 0.347-0.457 0.116-0.137 0.243-0.265 0.379-0.382 0.13-0.112 0.27-0.213 0.417-0.302l0.135-0.072 3.332 9.22-4.764 1.732c-0.053-0.156-0.11-0.313-0.156-0.469-0.103-0.356-0.196-0.686-0.281-1.028-0.059-0.236-0.269-0.408-0.519-0.408-0.295 0-0.534 0.239-0.534 0.534 0 0.045 0.005 0.088 0.016 0.13 0.088 0.352 0.184 0.707 0.294 1.063 0.053 0.174 0.117 0.356 0.174 0.526l-3.687 1.362c-0.302-0.936-0.475-2.012-0.475-3.129 0-1.625 0.368-3.165 1.026-4.54zM19.737 24.135c-0.148 0.027-0.319 0.043-0.493 0.043-0.015 0-0.031-0-0.046-0-0.193-0.002-0.382-0.020-0.566-0.053-0.202-0.036-0.395-0.086-0.581-0.148-0.207-0.068-0.403-0.146-0.592-0.236-0.21-0.099-0.407-0.206-0.597-0.322-0.175-0.105-0.378-0.244-0.58-0.39s-0.409-0.316-0.608-0.491-0.402-0.356-0.601-0.572-0.398-0.423-0.587-0.647-0.384-0.473-0.569-0.711-0.356-0.516-0.548-0.786-0.356-0.562-0.519-0.85-0.331-0.601-0.484-0.91-0.277-0.64-0.434-0.996c-0.082-0.188-0.153-0.388-0.231-0.58l4.764-1.735 3.403 9.355zM7.012 18.208l3.691-1.344c0.082 0.213 0.164 0.427 0.252 0.636 0.149 0.356 0.306 0.686 0.469 1.020s0.334 0.651 0.512 0.964 0.356 0.615 0.551 0.903 0.384 0.572 0.583 0.843 0.405 0.526 0.612 0.775 0.423 0.48 0.64 0.711 0.437 0.434 0.661 0.629 0.452 0.37 0.661 0.537 0.462 0.324 0.693 0.462 0.427 0.242 0.64 0.356c-0.052 0.001-0.112 0.001-0.173 0.001-4.377 0-8.137-2.646-9.767-6.425zM23.076 22.628l0.060-0.117c0.094-0.193 0.195-0.437 0.283-0.688 0.105-0.308 0.183-0.575 0.247-0.852s0.121-0.562 0.167-0.857 0.078-0.597 0.103-0.903 0.036-0.629 0.036-0.949 0-0.654-0.028-0.988-0.053-0.679-0.092-1.020c-0.034-0.267-0.26-0.472-0.533-0.472-0.297 0-0.537 0.241-0.537 0.537 0 0.023 0.001 0.046 0.004 0.068 0.039 0.317 0.067 0.637 0.089 0.95s0.028 0.622 0.025 0.917 0 0.59-0.036 0.875-0.053 0.558-0.092 0.825-0.089 0.523-0.149 0.768-0.128 0.48-0.203 0.711c-0.086 0.252-0.169 0.454-0.262 0.65-0.087 0.181-0.187 0.362-0.298 0.537-0.103 0.157-0.221 0.311-0.347 0.457-0.114 0.139-0.239 0.268-0.373 0.387-0.086 0.073-0.178 0.142-0.273 0.206l-3.392-9.269 4.48-1.632c0.068 0.199 0.139 0.395 0.196 0.594 0.103 0.356 0.196 0.686 0.281 1.028 0.059 0.236 0.269 0.408 0.519 0.408 0.295 0 0.534-0.239 0.534-0.534 0-0.045-0.006-0.088-0.016-0.13-0.088-0.352-0.184-0.707-0.294-1.063-0.064-0.217-0.142-0.434-0.217-0.647l3.975-1.447c0.293 0.927 0.462 1.994 0.462 3.099 0 3.494-1.686 6.594-4.288 8.532zM25.628 23.591c-0.601 0.56-1.265 1.069-1.976 1.511-1.465 0.906-3.124 1.531-4.899 1.8-0.643 0.098-1.3 0.149-1.97 0.149-1.112 0-2.191-0.141-3.22-0.405-2.443-0.623-4.609-1.937-6.279-3.721-0.567-0.609-1.076-1.273-1.518-1.983-0.906-1.465-1.531-3.124-1.8-4.899-0.097-0.64-0.148-1.294-0.148-1.961 0-1.115 0.141-2.197 0.407-3.229 0.623-2.441 1.935-4.606 3.717-6.275 0.609-0.567 1.273-1.076 1.983-1.518 1.465-0.906 3.124-1.531 4.899-1.8 0.335-0.049 0.533-0.272 0.533-0.542 0-0.298-0.241-0.539-0.539-0.539-0.028 0-0.055 0.002-0.081 0.006-1.998 0.309-3.792 0.994-5.376 1.983-1.523 0.946-2.851 2.176-3.909 3.617-1.565 2.137-2.542 4.733-2.692 7.549-0.013 0.249-0.020 0.5-0.020 0.752 0 0.721 0.054 1.429 0.16 2.12 0.294 1.928 0.976 3.727 1.963 5.316 0.95 1.518 2.185 2.841 3.63 3.894 2.127 1.558 4.707 2.532 7.505 2.689l0.037 0.695h-3.065c-1.469 0.006-2.658 1.197-2.66 2.666 0 0.295 0.239 0.534 0.533 0.534h11.41c0.295 0 0.533-0.239 0.533-0.533 0-0.002 0-0.005 0-0.008 0-0.58-0.187-1.117-0.503-1.553-0.486-0.669-1.274-1.105-2.163-1.105h-0.889c-0.295 0-0.533 0.239-0.533 0.533s0.239 0.533 0.533 0.533h0.889c0.534 0.001 1.007 0.262 1.298 0.664 0.087 0.119 0.158 0.251 0.209 0.392l-10.165 0.011c0.227-0.626 0.816-1.065 1.507-1.067h3.595c0.295 0 0.533-0.239 0.533-0.533v-1.212c0.627-0.012 1.231-0.063 1.822-0.152 1.928-0.293 3.727-0.974 5.317-1.96 0.767-0.478 1.486-1.030 2.145-1.644 0.069-0.084 0.117-0.204 0.117-0.336 0-0.295-0.239-0.533-0.533-0.533-0.113 0-0.218 0.035-0.305 0.096z"></path>
</svg>
