<!-- Generated by IcoMoon.io -->
<svg version="1.1" xmlns="http://www.w3.org/2000/svg" width="28" height="32" viewBox="0 0 28 32">
<title>job</title>
<path d="M16.347 27.667c-0.309 0.062-0.539 0.331-0.539 0.654 0 0.044 0.004 0.088 0.013 0.13 0.021 0.101 0.033 0.221 0.033 0.345 0 0.004 0 0.008-0 0.012 0 0 0 0.001 0 0.001 0 1.024-0.83 1.853-1.853 1.853s-1.853-0.83-1.853-1.853c0-1.024 0.83-1.853 1.853-1.853 0.132 0 0.261 0.014 0.385 0.040 0.028 0.006 0.074 0.011 0.121 0.011 0.375 0 0.68-0.304 0.68-0.68 0-0.328-0.233-0.602-0.542-0.666-0.201-0.043-0.427-0.067-0.658-0.067-0.004 0-0.009 0-0.013 0 0.001 0 0 0 0 0-1.76 0-3.187 1.427-3.187 3.187s1.427 3.187 3.187 3.187c1.76 0 3.187-1.427 3.187-3.187 0-0.217-0.022-0.429-0.063-0.634-0.070-0.274-0.332-0.488-0.644-0.488-0.037 0-0.074 0.003-0.11 0.009zM23.62 11.333c-0.166-0.173-0.4-0.28-0.658-0.28-0.055 0-0.109 0.005-0.161 0.014l-16.448 2.866c-0.477-0.789-0.793-1.727-0.878-2.73l17.458-2.857c0.434-0.076 0.76-0.45 0.76-0.9 0-0.088-0.012-0.172-0.035-0.253-1.249-4.19-5.073-7.197-9.599-7.197-4.354 0-8.058 2.783-9.431 6.666-0.040 0.128-0.050 0.194-0.050 0.263 0 0.368 0.298 0.667 0.667 0.667 0.282 0 0.523-0.175 0.62-0.422 1.21-3.432 4.42-5.844 8.194-5.844 3.754 0 6.951 2.387 8.155 5.726l-17.274 2.86c-0.464 0.076-0.814 0.475-0.814 0.954 0 0.009 0 0.018 0 0.027 0.053 1.47 0.495 2.828 1.226 3.985 0.137 0.265 0.444 0.464 0.797 0.464 0.048 0 0.095-0.004 0.142-0.011l16.095-2.866c-0.315 1.040-0.782 1.944-1.383 2.742l-12.451 2.331c-0.425 0.080-0.743 0.449-0.743 0.892 0 0.21 0.071 0.403 0.191 0.557l2.918 3.785c0.695 0.89 1.768 1.457 2.973 1.46h0.287c0.003 0 0.007 0 0.011 0 1.188 0 2.246-0.555 2.93-1.419l2.213-2.814c0.083-0.11 0.133-0.249 0.133-0.4 0-0.368-0.298-0.667-0.667-0.667-0.217 0-0.41 0.104-0.532 0.265l-2.195 2.802c-0.445 0.562-1.127 0.92-1.893 0.92-0.003 0-0.005 0-0.008 0h-0.286c-0.769-0.016-1.448-0.387-1.882-0.954l-2.498-3.246 11.92-2.253c0.226-0.042 0.418-0.163 0.552-0.331 0.881-1.124 1.532-2.469 1.862-3.935 0.024-0.12 0.030-0.181 0.030-0.243 0-0.242-0.096-0.462-0.251-0.624z"></path>
</svg>
