<!-- Generated by IcoMoon.io -->
<svg version="1.1" xmlns="http://www.w3.org/2000/svg" width="32" height="32" viewBox="0 0 32 32">
<title>laureate</title>
<path d="M30.791 6.4h-29.582c-0.676 0-1.209 0.533-1.209 1.209v17.102c0 0.711 0.533 1.244 1.209 1.244h18.88c0.284 0 0.533-0.249 0.533-0.533s-0.249-0.533-0.533-0.533h-18.88c-0.071 0-0.142-0.071-0.142-0.142v-17.138c0-0.071 0.071-0.142 0.142-0.142h29.547c0.071 0 0.142 0.071 0.142 0.142v17.102c0 0.071-0.071 0.142-0.142 0.142h-1.813c-0.284 0-0.533 0.249-0.533 0.533s0.249 0.533 0.533 0.533h1.813c0.676 0 1.209-0.533 1.209-1.209v-17.102c0.036-0.676-0.498-1.209-1.173-1.209zM28.978 19.911c0-2.169-1.742-3.911-3.911-3.911s-3.911 1.742-3.911 3.911c0 1.138 0.498 2.133 1.244 2.844v6.4c0 0.213 0.107 0.391 0.32 0.498 0.178 0.071 0.391 0.071 0.569-0.071l1.778-1.493 1.778 1.493c0.107 0.071 0.213 0.107 0.356 0.107 0.071 0 0.142 0 0.213-0.036 0.178-0.071 0.32-0.284 0.32-0.498v-6.4c0.747-0.711 1.244-1.707 1.244-2.844zM22.222 19.911c0-1.564 1.28-2.844 2.844-2.844s2.844 1.28 2.844 2.844-1.28 2.844-2.844 2.844-2.844-1.28-2.844-2.844zM26.667 28.018l-1.244-1.067c-0.213-0.178-0.498-0.178-0.676 0l-1.244 1.067v-4.551c0.498 0.213 1.031 0.356 1.6 0.356s1.102-0.142 1.6-0.356v4.551zM3.378 11.022h17.422c0.284 0 0.533-0.249 0.533-0.533s-0.249-0.533-0.533-0.533h-17.422c-0.284 0-0.533 0.249-0.533 0.533s0.249 0.533 0.533 0.533zM3.378 13.511h17.422c0.284 0 0.533-0.249 0.533-0.533s-0.249-0.533-0.533-0.533h-17.422c-0.284 0-0.533 0.249-0.533 0.533s0.249 0.533 0.533 0.533zM3.378 16h17.422c0.284 0 0.533-0.249 0.533-0.533s-0.249-0.533-0.533-0.533h-17.422c-0.284 0-0.533 0.249-0.533 0.533s0.249 0.533 0.533 0.533z"></path>
</svg>
