<!-- Generated by IcoMoon.io -->
<svg version="1.1" xmlns="http://www.w3.org/2000/svg" width="32" height="32" viewBox="0 0 32 32">
<title>live</title>
<path d="M13.379 13.021c0 0.631-0.512 1.143-1.143 1.143s-1.143-0.512-1.143-1.143c0-0.631 0.512-1.143 1.143-1.143s1.143 0.512 1.143 1.143zM21.021 13.021c0 0.631-0.512 1.143-1.143 1.143s-1.143-0.512-1.143-1.143c0-0.631 0.512-1.143 1.143-1.143s1.143 0.512 1.143 1.143zM9.646 17.28c-0.294 0.11-0.499 0.389-0.499 0.715 0 0.105 0.021 0.205 0.059 0.295 1.042 2.715 3.518 4.269 6.794 4.269s5.76-1.57 6.804-4.297c0.031-0.080 0.050-0.173 0.050-0.27 0-0.421-0.341-0.762-0.762-0.762-0.324 0-0.6 0.202-0.711 0.486-1.099 2.855-3.857 3.304-5.381 3.304s-4.267-0.45-5.333-3.299c-0.109-0.297-0.389-0.505-0.717-0.505-0.11 0-0.214 0.023-0.309 0.065zM25.966 8.975c-0.141-0.171-0.352-0.279-0.589-0.279-0.421 0-0.762 0.341-0.762 0.762 0 0.145 0.041 0.281 0.111 0.397 1.217 1.707 1.946 3.839 1.946 6.142 0 5.891-4.776 10.667-10.667 10.667s-10.667-4.776-10.667-10.667c0-5.891 4.776-10.667 10.667-10.667 2.067 0 3.998 0.588 5.632 1.606 0.086 0.085 0.258 0.152 0.445 0.152 0.421 0 0.762-0.341 0.762-0.762 0-0.323-0.201-0.599-0.485-0.71-1.82-1.134-4.024-1.805-6.385-1.805-6.733 0-12.19 5.458-12.19 12.19s5.458 12.19 12.19 12.19c6.733 0 12.19-5.458 12.19-12.19 0-2.633-0.835-5.072-2.255-7.065z"></path>
</svg>
