<!-- Generated by IcoMoon.io -->
<svg version="1.1" xmlns="http://www.w3.org/2000/svg" width="32" height="32" viewBox="0 0 32 32">
<title>logo-i08</title>
<path d="M25.823 12.585l-4.16-4.899c-0.135-0.158-0.334-0.258-0.557-0.258-0.18 0-0.345 0.065-0.472 0.174l-2.053 1.745c-0.155 0.134-0.252 0.332-0.252 0.551 0 0.18 0.065 0.345 0.173 0.472l3.981 4.688v0.029c-0.029 1.028-1.532 2.63-2.475 3.398l-5.483 4.655c-0.054 0.033-0.119 0.053-0.189 0.053-0.119 0-0.225-0.057-0.291-0.145-0.066-0.074-0.106-0.171-0.106-0.277 0-0.004 0-0.008 0-0.012 0.003-0.077 0.038-0.145 0.091-0.193l3.404-2.9c0.162-0.127 0.265-0.323 0.265-0.543 0-0.38-0.308-0.689-0.689-0.689-0.181 0-0.346 0.070-0.469 0.184l-4.359 3.698c-0.047 0.038-0.107 0.061-0.173 0.061-0.015 0-0.029-0.001-0.043-0.003-0.106-0.015-0.199-0.069-0.264-0.148-0.066-0.065-0.107-0.154-0.107-0.252 0-0.092 0.035-0.175 0.093-0.238l3.403-2.889c0.149-0.127 0.243-0.315 0.243-0.526 0-0.381-0.309-0.689-0.689-0.689-0.171 0-0.327 0.062-0.447 0.165l-3.921 3.331c-0.047 0.037-0.107 0.060-0.173 0.060-0.023 0-0.045-0.003-0.066-0.008-0.097-0.020-0.181-0.071-0.242-0.143-0.066-0.064-0.107-0.153-0.107-0.252 0-0.092 0.035-0.175 0.093-0.238l3.403-2.899c0.149-0.127 0.243-0.315 0.243-0.526 0-0.381-0.309-0.689-0.689-0.689-0.171 0-0.327 0.062-0.447 0.165l-2.881 2.454c-0.045 0.037-0.103 0.060-0.166 0.060-0.002 0-0.004-0-0.007-0h-0.040c-0.109-0.015-0.202-0.069-0.267-0.149-0.067-0.065-0.107-0.154-0.107-0.253 0-0.093 0.036-0.178 0.095-0.241l2.379-2.021c0.149-0.127 0.243-0.315 0.243-0.526 0-0.381-0.309-0.689-0.689-0.689-0.171 0-0.327 0.062-0.447 0.165l-2.381 2.022c-0.355 0.318-0.578 0.777-0.578 1.289 0 0.439 0.164 0.84 0.434 1.145 0.127 0.15 0.278 0.279 0.446 0.381l0.057 0.034-0.014 0.054c-0.035 0.132-0.055 0.284-0.055 0.44 0 0.99 0.798 1.794 1.786 1.804 0.049 0 0.104 0 0.168 0h0.056l0.021 0.052c0.078 0.197 0.18 0.367 0.307 0.517 0.285 0.337 0.692 0.567 1.153 0.623 0.071 0.009 0.143 0.014 0.215 0.014 0.246 0 0.479-0.054 0.688-0.151l0.052-0.025 0.033 0.060c0.062 0.105 0.127 0.196 0.2 0.28 0.325 0.386 0.811 0.633 1.355 0.636 0.004 0 0.008 0 0.012 0 0.403 0 0.771-0.147 1.055-0.39l5.449-4.628c0.506-0.411 3.023-2.562 2.989-4.567v0-0.015c-0.018-0.29-0.124-0.552-0.291-0.763l-3.59-4.243 1.059-0.898 3.739 4.408c0.127 0.149 0.315 0.243 0.526 0.243 0.381 0 0.689-0.309 0.689-0.689 0-0.171-0.062-0.327-0.165-0.447zM11.636 9.782l-2.686 4.226c-0.069 0.106-0.11 0.235-0.11 0.374 0 0.382 0.31 0.692 0.692 0.692 0.243 0 0.457-0.125 0.58-0.315l2.713-4.287 0.054 0.017c0.268 0.092 0.576 0.145 0.896 0.145 0.002 0 0.004 0 0.006 0 0.396-0.002 0.775-0.078 1.123-0.215l0.014-0.006 1.23 0.776 1.245 0.838-0.481 0.7-0.070 0.111-1.765-1.034-0.049-0.021c-0.087-0.042-0.188-0.066-0.295-0.066-0.246 0-0.461 0.127-0.585 0.319l-0.025 0.051c-0.205 0.338-0.535 0.583-0.925 0.671-0.105 0.024-0.213 0.037-0.325 0.037-0.080 0-0.158-0.007-0.234-0.019-0.008-0-0.028-0.001-0.047-0.001s-0.039 0.001-0.058 0.002c0.001-0 0-0-0.001-0-0.38 0-0.688 0.308-0.688 0.688 0 0.344 0.252 0.629 0.582 0.68 0.137 0.023 0.291 0.036 0.447 0.036 0.779 0 1.483-0.317 1.992-0.828l0.041-0.041 1.491 0.873c0.167 0.117 0.374 0.187 0.597 0.187 0.079 0 0.156-0.009 0.23-0.025 0.4-0.101 0.59-0.437 0.728-0.683 0.031-0.056 0.060-0.107 0.095-0.163l0.793-1.131c0.083-0.131 0.132-0.291 0.132-0.462 0-0.303-0.155-0.57-0.389-0.727l-1.675-1.127-1.552-0.983c-0.113-0.071-0.25-0.113-0.398-0.113-0.139 0-0.27 0.038-0.382 0.104-0.223 0.127-0.495 0.203-0.784 0.204-0.277-0-0.537-0.072-0.763-0.198l-0.011-0.009c-0.035-0.033-0.073-0.063-0.113-0.089l-2.241-1.429c-0.11-0.070-0.244-0.112-0.388-0.112-0.271 0.001-0.508 0.141-0.646 0.352l-3.51 5.422c-0.069 0.106-0.11 0.235-0.11 0.374 0 0.382 0.31 0.692 0.692 0.692 0.243 0 0.457-0.125 0.58-0.315l3.182-4.915z"></path>
</svg>
