<!-- Generated by IcoMoon.io -->
<svg version="1.1" xmlns="http://www.w3.org/2000/svg" width="32" height="32" viewBox="0 0 32 32">
<title>logo-i07</title>
<path d="M10.294 25.555c-0 0-0 0-0.001 0-0.428 0-0.776-0.347-0.776-0.776 0-0.085 0.014-0.167 0.039-0.244l1.992-6.162-1.552-1.137c-0.207-0.141-0.342-0.377-0.342-0.643 0-0.428 0.347-0.776 0.776-0.776 0.182 0 0.349 0.063 0.481 0.167l2.006 1.469c0.194 0.143 0.319 0.37 0.319 0.627 0 0.085-0.014 0.167-0.039 0.244l-1.434 4.438 3.782-2.738c0.126-0.092 0.284-0.147 0.455-0.147s0.329 0.055 0.457 0.149l3.78 2.737-1.435-4.443c-0.024-0.071-0.038-0.154-0.038-0.239 0-0.256 0.124-0.483 0.315-0.624l2.015-1.47c0.131-0.103 0.298-0.166 0.479-0.166 0.428 0 0.776 0.347 0.776 0.776 0 0.267-0.134 0.502-0.339 0.641l-1.554 1.138 1.994 6.167c0.024 0.071 0.037 0.153 0.037 0.238 0 0.428-0.347 0.776-0.776 0.776-0.171 0-0.329-0.055-0.457-0.149l-5.255-3.804-5.25 3.801c-0.126 0.093-0.284 0.149-0.456 0.149zM25.232 14.703v0l-7.044-0.010c-0.341-0.002-0.629-0.223-0.732-0.53l-1.456-4.443-1.455 4.437c-0.104 0.313-0.395 0.535-0.737 0.535l-7.044 0.010c-0.428 0-0.776-0.347-0.776-0.776s0.347-0.776 0.776-0.776l6.481-0.010 2.017-6.16c0.105-0.312 0.395-0.534 0.737-0.534s0.632 0.221 0.735 0.528l2.015 6.165 6.481 0.010c0.428 0 0.776 0.347 0.776 0.776s-0.347 0.776-0.776 0.776z"></path>
</svg>
