<!-- Generated by IcoMoon.io -->
<svg version="1.1" xmlns="http://www.w3.org/2000/svg" width="32" height="32" viewBox="0 0 32 32">
<title>logo-indo</title>
<path d="M25.988 15.942c0-2.302-3.652-3.549-7.069-3.951-0.026-0.003-0.057-0.005-0.087-0.005-0.415 0-0.751 0.336-0.751 0.751 0 0.384 0.288 0.7 0.66 0.745 3.921 0.458 5.746 1.746 5.746 2.46 0 1.065-3.297 2.614-8.477 2.614q-0.718 0-1.387-0.039-0.388-0.481-0.764-1.022c-0.349-0.498-0.673-0.999-0.97-1.499q0.436-0.731 0.97-1.499c1.038-1.503 2.208-2.806 3.523-3.946 1.771-1.478 3.038-1.808 3.48-1.5 0.308 0.215 0.425 0.865 0.314 1.734-0.004 0.029-0.006 0.063-0.006 0.097 0 0.415 0.336 0.751 0.751 0.751 0.381 0 0.695-0.283 0.744-0.65 0.243-1.897-0.387-2.766-0.942-3.159-1.2-0.84-3.074-0.287-5.279 1.552-1.442 1.249-2.7 2.65-3.768 4.193q-0.339 0.491-0.615 0.918c-0.388-0.752-0.739-1.633-1.002-2.551-0.474-1.782-0.251-2.645 0.079-2.874s1.164-0.060 2.093 0.496c0.111 0.068 0.245 0.108 0.388 0.108 0.416 0 0.752-0.337 0.752-0.752 0-0.272-0.145-0.511-0.361-0.643-1.943-1.165-3.106-0.877-3.725-0.436-0.718 0.502-1.42 1.67-0.692 4.387 0.043 0.157 0.089 0.316 0.14 0.477-2.401 0.747-3.72 1.889-3.72 3.245 0 1.487 1.524 2.585 3.722 3.27-0.71 2.207-0.692 4.102 0.533 4.959 0.346 0.243 0.776 0.388 1.24 0.388 0.013 0 0.026-0 0.040-0 0.64 0 1.47-0.223 2.533-0.871 0.197-0.137 0.324-0.363 0.324-0.618 0-0.415-0.336-0.751-0.751-0.751-0.128 0-0.248 0.032-0.353 0.088-0.966 0.59-1.798 0.797-2.166 0.541-0.483-0.337-0.506-1.588 0.070-3.353 0.742 0.163 1.648 0.297 2.569 0.375 2.233 2.618 4.758 4.6 6.66 4.6 0.013 0 0.028 0 0.042 0 0.466 0 0.899-0.145 1.254-0.393 0.478-0.335 1.042-1.056 0.984-2.565-0.016-0.402-0.346-0.722-0.751-0.722-0.415 0-0.751 0.336-0.751 0.751 0 0.010 0 0.020 0.001 0.031 0.025 0.639-0.103 1.106-0.353 1.28-0.669 0.469-2.69-0.495-4.934-2.886h0.072c4.961-0.010 9.99-1.424 9.99-4.125zM7.533 15.942c0-0.5 0.855-1.264 2.715-1.844 0.328 0.774 0.635 1.398 0.973 2.003-0.383 0.498-0.68 1.103-0.936 1.697-1.763-0.537-2.762-1.27-2.762-1.856zM12.063 17.513q0.258 0.401 0.535 0.799c-0.291-0.045-0.582-0.093-0.842-0.145q0.142-0.324 0.306-0.654zM13.937 16.047c0 1.14 0.924 2.064 2.063 2.064s2.064-0.924 2.064-2.064c0-1.14-0.924-2.063-2.064-2.063-1.139 0.001-2.062 0.924-2.063 2.063zM16.561 16.047c0 0.31-0.251 0.561-0.561 0.561s-0.56-0.251-0.56-0.561c0-0.31 0.251-0.56 0.56-0.56 0.309 0.001 0.559 0.251 0.561 0.56z"></path>
</svg>
