<!-- Generated by IcoMoon.io -->
<svg version="1.1" xmlns="http://www.w3.org/2000/svg" width="32" height="32" viewBox="0 0 32 32">
<title>logo-i02</title>
<path d="M14.225 14.208c-0.464 0.464-0.751 1.105-0.751 1.813s0.287 1.349 0.751 1.813v0c0.135 0.116 0.312 0.187 0.506 0.187 0.428 0 0.776-0.347 0.776-0.776 0-0.193-0.070-0.369-0.187-0.505-0.184-0.184-0.299-0.44-0.299-0.722 0-0.564 0.458-1.022 1.022-1.022s1.022 0.458 1.022 1.022c0 0.282-0.114 0.538-0.3 0.723-0.104 0.131-0.167 0.298-0.167 0.48 0 0.428 0.347 0.776 0.776 0.776 0.176 0 0.339-0.059 0.469-0.158 0.473-0.464 0.767-1.113 0.767-1.83 0-1.416-1.148-2.564-2.564-2.564-0.717 0-1.365 0.294-1.83 0.768zM23.079 8.943l-0.074-0.076c-0.125-0.089-0.28-0.142-0.448-0.142-0.428 0-0.776 0.347-0.776 0.776 0 0.196 0.073 0.375 0.193 0.512 1.526 1.526 2.471 3.636 2.471 5.967s-0.944 4.44-2.471 5.968c-0.138 0.14-0.224 0.332-0.224 0.545s0.085 0.405 0.224 0.545l-0-0c0.14 0.138 0.333 0.224 0.545 0.224s0.405-0.085 0.545-0.224c1.804-1.806 2.92-4.3 2.92-7.055 0-2.747-1.11-5.235-2.905-7.039zM7.564 15.981c-0-0.008-0-0.017-0-0.026 0-2.322 0.944-4.423 2.469-5.941 0.108-0.132 0.173-0.303 0.173-0.488 0-0.428-0.347-0.776-0.776-0.776-0.185 0-0.355 0.065-0.488 0.173-1.804 1.805-2.921 4.3-2.921 7.056s1.117 5.251 2.923 7.057l0.043 0.043c0.139 0.137 0.33 0.222 0.541 0.223h0c0.001 0 0.003 0 0.005 0 0.212 0 0.404-0.085 0.544-0.223 0.138-0.14 0.224-0.332 0.224-0.545s-0.085-0.405-0.224-0.545c-1.55-1.523-2.511-3.641-2.511-5.985 0-0.008 0-0.017 0-0.025zM20.331 11.346c-0.136-0.129-0.319-0.208-0.522-0.208-0.010 0-0.019 0-0.029 0.001-0.412 0.019-0.739 0.359-0.739 0.775 0 0.219 0.090 0.416 0.236 0.557 0.934 0.878 1.515 2.122 1.515 3.501 0 1.322-0.534 2.52-1.399 3.388-0.138 0.14-0.224 0.332-0.224 0.545s0.085 0.405 0.224 0.545l-0-0c0.139 0.138 0.331 0.224 0.543 0.225h0c0.213-0.001 0.405-0.087 0.545-0.227 1.14-1.141 1.844-2.717 1.844-4.457 0-0.006 0-0.012-0-0.018-0.001-1.821-0.767-3.463-1.993-4.624zM12.678 19.371c-0.868-0.869-1.404-2.069-1.404-3.394 0-1.314 0.527-2.504 1.382-3.371 0.138-0.139 0.223-0.332 0.223-0.544s-0.085-0.405-0.224-0.545c-0.135-0.138-0.322-0.223-0.53-0.223-0.006 0-0.012 0-0.018 0-0.212 0.001-0.405 0.089-0.544 0.229-1.133 1.146-1.832 2.721-1.832 4.461 0 1.752 0.71 3.338 1.857 4.486l0.014 0.014c0.139 0.138 0.331 0.224 0.543 0.225h0c0.423-0.007 0.763-0.352 0.763-0.776 0-0.209-0.082-0.398-0.216-0.538z"></path>
</svg>
