<!-- Generated by IcoMoon.io -->
<svg version="1.1" xmlns="http://www.w3.org/2000/svg" width="32" height="32" viewBox="0 0 32 32">
<title>logo-i01</title>
<path d="M25.212 6.788c-0.481-0.48-1.144-0.777-1.877-0.777s-1.397 0.297-1.877 0.777l-3.142 3.142-8.285-2.122c-0.057-0.015-0.123-0.024-0.19-0.024-0.209 0-0.399 0.083-0.539 0.218l-2.162 2.166c-0.138 0.138-0.224 0.329-0.224 0.54 0 0.305 0.179 0.569 0.438 0.691l4.465 2.085c0.094 0.045 0.205 0.071 0.322 0.071 0.422 0 0.764-0.342 0.764-0.764 0-0.305-0.179-0.569-0.438-0.691l-3.472-1.627 1.078-1.078 8.293 2.118c0.057 0.015 0.123 0.024 0.19 0.024 0.209 0 0.399-0.083 0.539-0.218l3.45-3.45c0.201-0.192 0.475-0.31 0.776-0.31 0.621 0 1.125 0.504 1.125 1.125 0 0.301-0.118 0.574-0.311 0.776l-3.442 3.44c-0.139 0.138-0.224 0.33-0.224 0.541 0 0.422 0.342 0.765 0.765 0.765 0.211 0 0.402-0.085 0.54-0.223l3.439-3.446c0.478-0.48 0.773-1.142 0.773-1.873s-0.295-1.393-0.773-1.874zM22.741 16.27c-0.087-0.334-0.386-0.576-0.741-0.576-0.422 0-0.764 0.342-0.764 0.764 0 0.067 0.009 0.132 0.025 0.193l1.341 5.274-1.074 1.080-3.006-6.481c-0.124-0.264-0.388-0.443-0.693-0.443-0.211 0-0.402 0.085-0.54 0.224l-2.896 2.895c-0.139 0.138-0.224 0.329-0.224 0.54 0 0.053 0.005 0.105 0.016 0.155l0.608 3.038-0.983 0.983-1.695-3.656c-0.078-0.165-0.207-0.295-0.368-0.37l-3.662-1.699 0.983-0.983 3.041 0.611c0.046 0.010 0.098 0.015 0.152 0.015 0.211 0 0.402-0.086 0.54-0.225l2.785-2.785c0.138-0.138 0.224-0.329 0.224-0.54s-0.085-0.402-0.224-0.54c-0.14-0.136-0.331-0.22-0.541-0.22s-0.402 0.084-0.541 0.22l-2.496 2.494-3.041-0.611c-0.045-0.009-0.097-0.015-0.15-0.015-0.211 0-0.402 0.086-0.541 0.224l-2.046 2.048c-0.139 0.138-0.225 0.33-0.225 0.541 0 0.306 0.18 0.57 0.439 0.692l4.401 2.038 2.036 4.397c0.124 0.264 0.388 0.444 0.694 0.444 0.212 0 0.403-0.086 0.541-0.225l2.046-2.046c0.139-0.138 0.224-0.329 0.224-0.54 0-0.053-0.005-0.105-0.016-0.155l-0.608-3.038 1.831-1.831 3.002 6.481c0.124 0.264 0.388 0.443 0.693 0.443 0.211 0 0.402-0.085 0.54-0.224l2.162-2.172c0.135-0.139 0.218-0.329 0.218-0.539 0-0.068-0.009-0.133-0.025-0.196z"></path>
</svg>
