<!-- Generated by IcoMoon.io -->
<svg version="1.1" xmlns="http://www.w3.org/2000/svg" width="32" height="32" viewBox="0 0 32 32">
<title>logo-i05</title>
<path d="M25.945 11.074c0-0.001 0-0.001 0-0.002 0-0.408-0.315-0.742-0.715-0.773l-0.003-0c-0.499-0.038-0.96-0.157-1.384-0.346l0.027 0.011c-0.091-0.041-0.197-0.064-0.309-0.064-0.429 0-0.776 0.347-0.776 0.776 0 0.317 0.19 0.589 0.462 0.71l0.005 0.002c0.316 0.142 0.686 0.263 1.072 0.346l0.038 0.007c-0.163 2.306-1.241 9.996-8.365 12.695-3.466-1.311-5.927-3.914-7.317-7.736-0.54-1.457-0.913-3.144-1.044-4.899l-0.004-0.062c2.18-0.463 3.914-2.182 4.267-4.22h8.184c0.084 0.471 0.225 0.892 0.418 1.283l-0.012-0.028c0.128 0.262 0.393 0.439 0.699 0.439 0.429 0 0.776-0.347 0.776-0.776 0-0.122-0.028-0.238-0.079-0.341l0.002 0.005c-0.199-0.396-0.316-0.863-0.318-1.357v-0.001c0-0.428-0.347-0.776-0.776-0.776v0h-9.592c-0.428 0-0.776 0.347-0.776 0.776v0c0 1.807-1.639 3.404-3.652 3.555-0.403 0.031-0.718 0.366-0.718 0.774 0 0.001 0 0.002 0 0.002v-0c0.056 2.208 0.474 4.301 1.195 6.247l-0.043-0.134c1.552 4.319 4.488 7.358 8.475 8.793 0.078 0.029 0.168 0.046 0.262 0.047h0.111c0.094-0 0.184-0.017 0.267-0.048l-0.005 0.002c3.987-1.433 6.918-4.474 8.475-8.793 0.679-1.811 1.097-3.903 1.153-6.086l0.001-0.025zM14.035 13.659v2.438c0.034 1.064 0.906 1.914 1.975 1.914s1.941-0.85 1.975-1.911l0-0.003v-2.438c0.001-0.018 0.001-0.040 0.001-0.062 0-1.091-0.885-1.976-1.976-1.976s-1.976 0.885-1.976 1.976c0 0.022 0 0.043 0.001 0.065l-0-0.003zM16.434 13.659v2.438c-0.015 0.222-0.199 0.396-0.424 0.396s-0.408-0.174-0.424-0.395l-0-0.001v-2.438c-0.001-0.009-0.001-0.019-0.001-0.029 0-0.235 0.19-0.425 0.425-0.425s0.425 0.19 0.425 0.425c0 0.010-0 0.020-0.001 0.030l0-0.001zM20.957 18.069c0.428 0 0.776-0.347 0.776-0.776v0-4.833s0-0.014 0-0.019c0.001-0.013 0.001-0.028 0.001-0.043s-0-0.030-0.001-0.045l0 0.002c0-0.023 0-0.047-0.010-0.068-0.008-0.030-0.016-0.055-0.025-0.079l0.002 0.005c0-0.023-0.014-0.047-0.025-0.068s-0.023-0.045-0.035-0.066-0.023-0.045-0.039-0.064-0.029-0.037-0.045-0.054c-0.018-0.023-0.037-0.043-0.056-0.062l-0-0-0.014-0.015c-0.014-0.012-0.027-0.019-0.041-0.029-0.020-0.016-0.042-0.032-0.065-0.047l-0.003-0.002-0.064-0.035-0.070-0.033-0.074-0.023-0.072-0.017c-0.012-0.001-0.027-0.001-0.042-0.001s-0.029 0-0.044 0.001l0.002-0h-0.070c-0.012-0.001-0.027-0.001-0.042-0.001s-0.029 0-0.044 0.001l0.002-0-0.070 0.010c-0.025 0-0.049 0.014-0.072 0.023s-0.049 0.015-0.070 0.025-0.043 0.023-0.064 0.035-0.045 0.025-0.066 0.039-0.037 0.029-0.054 0.045c-0.023 0.018-0.043 0.037-0.062 0.056l-0 0-0.015 0.014-1.096 1.218c-0.122 0.136-0.196 0.317-0.196 0.515 0 0.428 0.347 0.776 0.776 0.776 0.114 0 0.223-0.025 0.321-0.069l-0.005 0.002v2.909c0.001 0.425 0.344 0.769 0.768 0.774h0zM11.933 18.069c0.428 0 0.776-0.347 0.776-0.776v0-4.833s0-0.014 0-0.019c0.001-0.013 0.001-0.028 0.001-0.043s-0-0.030-0.001-0.045l0 0.002c0-0.023 0-0.047-0.010-0.068-0.008-0.030-0.016-0.055-0.025-0.079l0.002 0.005c0-0.023-0.014-0.047-0.025-0.068s-0.023-0.045-0.035-0.066-0.023-0.045-0.039-0.064-0.029-0.037-0.045-0.054c-0.018-0.023-0.037-0.043-0.056-0.062l-0-0-0.014-0.015c-0.014-0.012-0.027-0.019-0.041-0.029-0.020-0.016-0.042-0.032-0.065-0.047l-0.003-0.002-0.064-0.035-0.072-0.035-0.074-0.023-0.072-0.017c-0.012-0.001-0.027-0.001-0.042-0.001s-0.029 0-0.044 0.001l0.002-0h-0.068c-0.012-0.001-0.027-0.001-0.042-0.001s-0.029 0-0.044 0.001l0.002-0-0.070 0.010c-0.025 0-0.049 0.014-0.072 0.023s-0.049 0.015-0.070 0.025-0.043 0.023-0.064 0.035-0.045 0.025-0.066 0.039-0.037 0.029-0.054 0.045c-0.023 0.018-0.043 0.037-0.062 0.056l-0 0-0.015 0.014-1.096 1.218c-0.122 0.136-0.196 0.317-0.196 0.515 0 0.428 0.347 0.776 0.776 0.776 0.114 0 0.223-0.025 0.321-0.069l-0.005 0.002v2.909c0 0 0 0 0 0 0 0.426 0.343 0.771 0.768 0.776h0z"></path>
</svg>
