<!-- Generated by IcoMoon.io -->
<svg version="1.1" xmlns="http://www.w3.org/2000/svg" width="32" height="32" viewBox="0 0 32 32">
<title>logo-fdpo</title>
<path d="M15.383 22.602h-2.746c-1.088-0.002-1.969-0.884-1.97-1.972v-10.706c0-0.428-0.347-0.776-0.776-0.776s-0.776 0.347-0.776 0.776v10.705c0.002 1.945 1.579 3.522 3.524 3.524h2.744c0.428 0 0.776-0.347 0.776-0.776s-0.347-0.776-0.776-0.776zM12.905 10.731h1.486c0.428 0 0.776-0.347 0.776-0.776s-0.347-0.776-0.776-0.776h-1.486c-0.428 0-0.776 0.347-0.776 0.776s0.347 0.776 0.776 0.776zM22.251 9.179h-5.203c-0.428 0-0.776 0.347-0.776 0.776s0.347 0.776 0.776 0.776h5.203c0.428 0 0.776-0.347 0.776-0.776s-0.347-0.776-0.776-0.776zM22.251 11.762h-1.488c-0.428 0-0.776 0.347-0.776 0.776s0.347 0.776 0.776 0.776h1.488c0.428 0 0.776-0.347 0.776-0.776s-0.347-0.776-0.776-0.776zM12.905 13.314h5.203c0.428 0 0.776-0.347 0.776-0.776s-0.347-0.776-0.776-0.776h-5.203c-0.428 0-0.776 0.347-0.776 0.776s0.347 0.776 0.776 0.776zM22.251 14.336h-3.297c-0.428 0-0.776 0.347-0.776 0.776s0.347 0.776 0.776 0.776h3.297c0.428 0 0.776-0.347 0.776-0.776s-0.347-0.776-0.776-0.776zM16.202 14.336h-3.297c-0.428 0-0.776 0.347-0.776 0.776s0.347 0.776 0.776 0.776h3.297c0.428 0 0.776-0.347 0.776-0.776s-0.347-0.776-0.776-0.776zM22.357 19.099c-0.428 0-0.776 0.347-0.776 0.776 0 0.857-0.695 1.552-1.552 1.552s-1.552-0.695-1.552-1.552c0-0.857 0.695-1.552 1.552-1.552 0.428 0 0.776-0.347 0.776-0.776s-0.347-0.776-0.776-0.776c-0.003 0-0.008-0-0.012-0-1.714 0-3.103 1.389-3.103 3.103 0 0.695 0.229 1.337 0.615 1.855l-0.006 3.496c0 0 0 0.001 0 0.001 0 0.428 0.347 0.776 0.776 0.776 0.094 0 0.184-0.017 0.267-0.047l1.48-0.53 1.617 0.537c0.073 0.025 0.157 0.040 0.244 0.040 0.428 0 0.776-0.347 0.776-0.776 0-0 0-0 0-0.001v-3.698c0-0.015 0-0.031 0-0.047 0.284-0.458 0.452-1.013 0.452-1.608-0.001-0.428-0.348-0.774-0.776-0.774-0.001 0-0.003 0-0.004 0zM21.139 24.153l-0.851-0.283c-0.075-0.027-0.162-0.042-0.253-0.042s-0.178 0.016-0.259 0.044l-0.695 0.248v-1.288c0.281 0.094 0.605 0.148 0.941 0.148 0.402 0 0.785-0.077 1.137-0.217zM25.988 9.804v-0.283c-0.002-1.945-1.579-3.522-3.524-3.524h-12.593c-2.213 0.017-3.879 1.821-3.879 4.038 0 0.001 0 0.002 0 0.003 0 1.041 0.395 1.99 1.043 2.706 0.139 0.154 0.345 0.253 0.573 0.253 0.428 0 0.776-0.347 0.776-0.776 0-0.2-0.076-0.383-0.2-0.52-0.396-0.438-0.639-1.022-0.639-1.663 0-0.001 0-0.002 0-0.002 0-1.373 0.979-2.488 2.352-2.488h12.558c0.002 0 0.005 0 0.008 0 1.090 0 1.974 0.884 1.974 1.974 0 0 0 0 0 0v11.109c-0.001 0.015-0.002 0.032-0.002 0.049s0.001 0.035 0.002 0.052c-0.016 0.367-0.131 0.707-0.319 0.994-0.077 0.108-0.125 0.252-0.125 0.407 0 0.182 0.067 0.348 0.177 0.475l0.085 0.094c0.132 0.146 0.322 0.238 0.533 0.238 0.245 0 0.461-0.123 0.59-0.311 0.392-0.558 0.626-1.249 0.626-1.995 0-0.001 0-0.002 0-0.003v-10.666c-0-0.056-0.006-0.111-0.016-0.164z"></path>
</svg>
