<!-- Generated by IcoMoon.io -->
<svg version="1.1" xmlns="http://www.w3.org/2000/svg" width="32" height="32" viewBox="0 0 32 32">
<title>logo-igf</title>
<path d="M26.017 10.797c-0.001-0.103-0.021-0.201-0.058-0.29l0.002-0.012c-0.031-0.101-0.079-0.188-0.141-0.263l-1.925-2.345c-0.143-0.176-0.36-0.287-0.602-0.287s-0.459 0.111-0.601 0.285l-1.941 2.346c-0.061 0.074-0.108 0.161-0.138 0.256l-0.002 0.005v0.017c-0.035 0.084-0.056 0.182-0.056 0.285v1.164l-0.787-0.155v-1.007c0.001-0.014 0.001-0.030 0.001-0.046s-0-0.032-0.001-0.048c0.008-0.040 0.013-0.088 0.014-0.137 0-1.418-1.652-2.487-3.846-2.489v0c-2.191 0-3.846 1.071-3.846 2.488 0 0.059 0.008 0.117 0.020 0.172l-0.001 1.092-0.667 0.122v-1.164c0-0.012 0-0.023 0-0.037 0.001-0.012 0.001-0.026 0.001-0.040 0-0.186-0.066-0.357-0.175-0.491l-1.925-2.345c-0.143-0.176-0.36-0.287-0.602-0.287s-0.459 0.111-0.601 0.285l-1.935 2.356c-0.018 0.024-0.036 0.050-0.052 0.078-0.108 0.134-0.173 0.303-0.175 0.486v12.825c0 0.012 0 0.023 0 0.037 0.003 0.059 0.012 0.114 0.027 0.166-0.001 0.006-0.001 0.020-0.001 0.031s0.012 0.025 0.016 0.039 0.014 0.035 0.021 0.052c0.015 0.033 0.030 0.060 0.046 0.087l0.021 0.034c0.053 0.076 0.118 0.14 0.191 0.192l0.039 0.025c0.023 0.015 0.050 0.029 0.079 0.043l0.053 0.021c0.024 0.009 0.055 0.019 0.086 0.026l0.050 0.013c0.043 0.009 0.091 0.014 0.142 0.014s0.099-0.005 0.146-0.015l0.040-0.009 0.048-0.012c2.481-0.776 5.089-1.096 9.007-1.096 3.805 0 5.496 0.207 9.047 1.109 0.058 0.016 0.125 0.025 0.194 0.025 0.361 0 0.665-0.247 0.751-0.582 0.015-0.060 0.023-0.123 0.023-0.188 0-0.022-0.001-0.043-0.003-0.064 0-0.015 0-0.032 0-0.050zM7.54 22.586v-11.522l1.199-1.458 1.071 1.303c-0.187-0.058-0.41-0.107-0.639-0.136-0.049-0.006-0.083-0.008-0.117-0.008-0.432 0-0.782 0.35-0.782 0.782 0 0.398 0.297 0.726 0.681 0.775 0.586 0.072 0.871 0.287 0.931 0.373v7.69c0 0.428 0.347 0.776 0.776 0.776s0.776-0.347 0.776-0.776v-6.844l0.655-0.13v6.615c0 0.428 0.347 0.776 0.776 0.776s0.776-0.347 0.776-0.776v-9.462c0-0.023 0-0.047 0-0.068 0.107-0.337 0.952-0.861 2.279-0.861 1.422 0 2.29 0.603 2.29 0.931-0.001 0.014-0.001 0.030-0.001 0.046s0 0.032 0.001 0.048c-0.008 0.040-0.013 0.088-0.014 0.137v9.23c0 0.428 0.347 0.776 0.776 0.776s0.776-0.347 0.776-0.776v-6.629l0.787 0.155v6.827c0 0.428 0.347 0.776 0.776 0.776s0.776-0.347 0.776-0.776v-9.344l1.164-1.427 1.071 1.303c-0.187-0.058-0.41-0.107-0.64-0.136-0.049-0.006-0.083-0.008-0.117-0.008-0.432 0-0.782 0.35-0.782 0.782 0 0.398 0.297 0.726 0.681 0.775 0.586 0.072 0.873 0.287 0.931 0.375 0.003 0.059 0.012 0.115 0.026 0.168l-0.001 9.765c-3.051-0.729-4.905-0.917-8.46-0.917s-6.070 0.252-8.421 0.871zM15.926 16.345c0 0 0 0 0 0-1.038 0-1.879 0.841-1.879 1.879 0 0.002 0 0.004 0 0.006v1.675c0 0.428 0.347 0.776 0.776 0.776s0.776-0.347 0.776-0.776v-1.676c0-0.177 0.143-0.32 0.32-0.32s0.32 0.143 0.32 0.32v1.676c0 0.428 0.347 0.776 0.776 0.776s0.776-0.347 0.776-0.776v-1.676c0-0.002 0-0.004 0-0.006 0-1.032-0.833-1.87-1.863-1.879z"></path>
</svg>
