<!-- Generated by IcoMoon.io -->
<svg version="1.1" xmlns="http://www.w3.org/2000/svg" width="32" height="32" viewBox="0 0 32 32">
<title>logo-i04</title>
<path d="M23.575 6.643h-15.151c-1.338 0.002-2.422 1.086-2.424 2.424v9.976c0.002 1.338 1.086 2.422 2.424 2.424h4.829v1.317c0 0.021 0 0.043 0 0.064v0c-0.001 0.521-0.423 0.943-0.944 0.945h-0.132c-0.428 0-0.776 0.347-0.776 0.776s0.347 0.776 0.776 0.776h7.624c0.428 0 0.776-0.347 0.776-0.776s-0.347-0.776-0.776-0.776h-0.019c-0.521-0.001-0.943-0.423-0.945-0.944 0-0.429-0.347-0.776-0.776-0.776s-0.776 0.347-0.776 0.776c0.003 0.342 0.074 0.666 0.2 0.961l-2.869-0.016c0.12-0.279 0.191-0.603 0.194-0.944v-0.001c0-0.021 0-0.043 0-0.064v-1.317h8.77c1.338-0.002 2.422-1.086 2.424-2.424v-9.975c-0.001-1.34-1.088-2.426-2.428-2.426-0.001 0-0.001 0-0.002 0zM24.448 19.055c-0.001 0.482-0.391 0.872-0.873 0.873h-15.151c-0.482-0.001-0.872-0.391-0.873-0.873v-0.233h14.896c0.428 0 0.776-0.347 0.776-0.776s-0.347-0.776-0.776-0.776h-14.896v-8.202c0.001-0.482 0.391-0.872 0.873-0.873h15.151c0.482 0.001 0.872 0.391 0.873 0.873zM19.2 12.127l-4.767-2.748c-0.111-0.065-0.245-0.104-0.388-0.104-0.428 0-0.775 0.347-0.776 0.775v5.498c0 0.428 0.348 0.775 0.776 0.775 0.143 0 0.277-0.039 0.392-0.106l1.224-0.702c0.234-0.137 0.388-0.386 0.388-0.672 0-0.429-0.347-0.776-0.776-0.776-0.143 0-0.277 0.039-0.392 0.106l-0.060 0.035v-2.814l2.44 1.406-0.056 0.033c-0.234 0.137-0.388 0.386-0.388 0.672 0 0.429 0.347 0.776 0.776 0.776 0.143 0 0.277-0.039 0.392-0.106l1.216-0.704c0.234-0.137 0.388-0.386 0.388-0.672s-0.154-0.535-0.384-0.67z"></path>
</svg>
