<!-- Generated by IcoMoon.io -->
<svg version="1.1" xmlns="http://www.w3.org/2000/svg" width="32" height="32" viewBox="0 0 32 32">
<title>logo-fspo</title>
<path d="M21.072 7.808l-1.482 0.97c-0.096 0.064-0.176 0.146-0.235 0.241l-1.959 3.199c-0.070 0.114-0.112 0.253-0.112 0.401 0 0.224 0.095 0.426 0.247 0.568l0.020 0.016c0.030 0.027 0.063 0.053 0.098 0.076l0.003 0.002c0.924 0.563 1.532 1.565 1.532 2.709 0 1.493-1.036 2.745-2.428 3.076-0.37 0.086-0.625 0.393-0.625 0.761 0 0.428 0.347 0.776 0.776 0.776 0.001 0 0.002 0 0.002 0s0.001 0 0.002 0c0.061 0 0.121-0.007 0.178-0.020 2.098-0.502 3.637-2.365 3.637-4.589 0-1.423-0.631-2.698-1.627-3.563l1.487-2.449 0.809-0.529 1.154 1.154-0.634 0.954c-0.079 0.12-0.127 0.267-0.127 0.425 0 0.107 0.022 0.209 0.061 0.302l0.912 2.202c0.099 0.235 0.304 0.409 0.553 0.463l1.12 0.234v1.631l-1.115 0.233c-0.255 0.055-0.46 0.228-0.557 0.458l-0.915 2.212c-0.037 0.088-0.059 0.189-0.059 0.296 0 0.158 0.047 0.305 0.129 0.428l0.623 0.951-1.154 1.154-0.946-0.634c-0.12-0.079-0.267-0.127-0.425-0.127-0.107 0-0.209 0.022-0.302 0.061l-2.202 0.919c-0.235 0.099-0.409 0.304-0.463 0.553l-0.232 1.114h-1.633l-0.12-0.582c-0.075-0.357-0.387-0.62-0.76-0.62-0.428 0-0.776 0.347-0.776 0.776 0 0.058 0.006 0.114 0.018 0.168l0.249 1.191c0.075 0.353 0.382 0.614 0.75 0.619h2.91c0 0 0.001 0 0.001 0 0.372 0 0.683-0.262 0.758-0.612l0.27-1.328 1.449-0.601 1.138 0.747c0.119 0.078 0.265 0.125 0.422 0.125 0.214 0 0.407-0.086 0.547-0.226l2.046-2.046c0.14-0.14 0.226-0.334 0.226-0.547 0-0.157-0.047-0.303-0.127-0.425l-0.743-1.136 0.605-1.455 1.332-0.277c0.348-0.080 0.605-0.386 0.607-0.752v-2.909c0-0 0-0.001 0-0.001 0-0.372-0.262-0.683-0.612-0.758l-1.328-0.271-0.601-1.449 0.747-1.138c0.078-0.119 0.125-0.265 0.125-0.422 0-0.214-0.086-0.407-0.226-0.547l-2.048-2.050c-0.14-0.14-0.334-0.226-0.547-0.226-0.157 0-0.303 0.047-0.425 0.127zM14.545 6.012c-0 0-0.001 0-0.001 0-0.372 0-0.683 0.262-0.758 0.612l-0.271 1.328-1.449 0.599-1.138-0.745c-0.119-0.078-0.265-0.125-0.422-0.125-0.214 0-0.407 0.086-0.547 0.226l-2.050 2.048c-0.14 0.14-0.226 0.334-0.226 0.547 0 0.157 0.047 0.303 0.127 0.425l0.743 1.136-0.601 1.453-1.332 0.277c-0.348 0.080-0.605 0.386-0.607 0.752v2.909c0 0 0 0.001 0 0.001 0 0.372 0.262 0.683 0.612 0.758l1.328 0.27 0.601 1.449-0.745 1.138c-0.078 0.119-0.125 0.265-0.125 0.422 0 0.214 0.086 0.407 0.226 0.547l2.046 2.046c0.14 0.14 0.334 0.226 0.547 0.226 0.157 0 0.303-0.047 0.425-0.127l1.479-0.968c0.096-0.064 0.176-0.146 0.235-0.241l1.97-3.225c0.071-0.115 0.112-0.253 0.112-0.402 0-0.279-0.148-0.524-0.369-0.661l-0.003-0.002c-0.899-0.568-1.488-1.556-1.488-2.682 0-1.473 1.007-2.71 2.37-3.061 0.369-0.087 0.622-0.394 0.622-0.761 0-0.428-0.347-0.776-0.776-0.776-0.072 0-0.141 0.010-0.206 0.028-2.057 0.531-3.556 2.375-3.556 4.569 0 1.41 0.62 2.676 1.602 3.54l-1.504 2.475-0.809 0.529-1.164-1.154 0.642-0.956c0.079-0.12 0.127-0.267 0.127-0.425 0-0.107-0.022-0.209-0.061-0.302l-0.919-2.202c-0.099-0.235-0.304-0.409-0.553-0.463l-1.114-0.232v-1.633l1.117-0.233c0.254-0.054 0.459-0.227 0.557-0.457l0.915-2.212c0.037-0.088 0.059-0.19 0.059-0.296 0-0.158-0.047-0.305-0.129-0.428l-0.623-0.951 1.164-1.154 0.937 0.632c0.12 0.079 0.267 0.127 0.425 0.127 0.107 0 0.209-0.022 0.302-0.061l2.202-0.919c0.235-0.099 0.407-0.304 0.461-0.553l0.234-1.114h1.633l0.134 0.642c0.069 0.364 0.384 0.635 0.763 0.635 0.428 0 0.776-0.347 0.776-0.776 0-0.062-0.007-0.123-0.021-0.181l-0.261-1.253c-0.075-0.353-0.383-0.615-0.752-0.619z"></path>
</svg>
