<!-- Generated by IcoMoon.io -->
<svg version="1.1" xmlns="http://www.w3.org/2000/svg" width="32" height="32" viewBox="0 0 32 32">
<title>logo-i06</title>
<path d="M25.703 6.206c-0.138-0.13-0.325-0.209-0.53-0.209-0.055 0-0.108 0.006-0.159 0.016-0.709 0.145-7.122 1.572-12.428 6.878-2.83 2.818-4.245 5.339-4.207 7.515 0.001 0.656 0.165 1.272 0.454 1.813l-2.551 2.52c-0.135 0.135-0.219 0.321-0.219 0.527 0 0.411 0.333 0.745 0.745 0.745 0.205 0 0.391-0.083 0.526-0.217l9.195-9.199c0.134-0.134 0.218-0.32 0.218-0.526 0-0.411-0.333-0.743-0.743-0.743-0.205 0-0.391 0.083-0.526 0.218l-5.516 5.518c-0.058-0.203-0.092-0.437-0.095-0.679-0.021-1.204 0.617-3.299 3.762-6.446 3.947-3.947 8.551-5.624 10.581-6.206-0.206 0.799-0.568 2.075-1.193 3.923l-2.265 0.060c-0.418 0.013-0.753 0.355-0.753 0.775 0 0.091 0.016 0.179 0.045 0.26l0.854 2.413c-0.491 0.727-2.234 3-6.26 5.485-0.233 0.128-0.389 0.372-0.389 0.653 0 0.41 0.333 0.743 0.743 0.743 0.158 0 0.304-0.049 0.424-0.133 5.073-3.131 6.764-5.97 6.939-6.282 0.063-0.108 0.1-0.238 0.1-0.377 0-0.093-0.017-0.182-0.047-0.264l-0.64-1.808 1.769-0.041c0.33-0.008 0.608-0.221 0.712-0.516 1.272-3.706 1.608-5.416 1.662-5.721 0.010-0.046 0.015-0.098 0.015-0.152 0-0.211-0.084-0.402-0.221-0.542z"></path>
</svg>
