<!-- Generated by IcoMoon.io -->
<svg version="1.1" xmlns="http://www.w3.org/2000/svg" width="32" height="32" viewBox="0 0 32 32">
<title>magister</title>
<path d="M27.78 12.715c3.488-3.488 3.972-8.722 4.018-10.812 0-0.011 0-0.023 0-0.036 0-0.891-0.723-1.614-1.614-1.614-0.014 0-0.028 0-0.042 0.001-2.085 0.046-7.322 0.526-10.81 4.014l-0.896 0.896c-0.096 0.095-0.155 0.226-0.155 0.372s0.059 0.277 0.155 0.372c0.098 0.097 0.233 0.157 0.382 0.157s0.284-0.060 0.382-0.157l0.878-0.878c3.2-3.2 8.121-3.662 10.080-3.705 0.010-0.001 0.022-0.001 0.034-0.001 0.15 0 0.286 0.060 0.386 0.158s0.16 0.235 0.16 0.385c0 0.006-0 0.011-0 0.017-0.050 1.958-0.498 6.865-3.716 10.079l-3.449 3.449c-0.065 0.027-0.12 0.064-0.167 0.11-0.124 0.127-0.241 0.264-0.348 0.409l-3.243 3.246c-0.105 0.098-0.17 0.236-0.17 0.39 0 0.295 0.239 0.533 0.533 0.533 0.154 0 0.293-0.065 0.39-0.169l1.799-1.796c0.020 0.643 0.083 1.256 0.189 1.855 0.132 0.667 0.214 1.522 0.214 2.397 0 0.231-0.006 0.46-0.017 0.688-0.201 2.62-3.672 6.468-4.692 7.545l-5.22-2.951 5.689-5.689c0.089-0.095 0.143-0.223 0.143-0.364 0-0.295-0.239-0.533-0.533-0.533-0.141 0-0.269 0.054-0.364 0.143l-8.067 8.053-2.066-2.066 3.982-3.982c0.089-0.095 0.143-0.223 0.143-0.364 0-0.295-0.239-0.533-0.533-0.533-0.141 0-0.269 0.054-0.364 0.143l-3.982 3.982-1.294-1.294 7.054-7.061c0.166-0.166 0.395-0.269 0.649-0.269 0.507 0 0.918 0.411 0.918 0.918 0 0.253-0.103 0.483-0.269 0.649l-1.422 1.422c-0.089 0.095-0.143 0.223-0.143 0.364 0 0.295 0.239 0.533 0.533 0.533 0.141 0 0.269-0.054 0.364-0.143l1.422-1.422c0.344-0.356 0.556-0.842 0.556-1.377 0-1.096-0.888-1.984-1.984-1.984-0.535 0-1.021 0.212-1.378 0.556l-7.057 7.057-2.069-2.066 14.364-14.364c0.089-0.095 0.143-0.223 0.143-0.364 0-0.295-0.239-0.533-0.533-0.533-0.141 0-0.269 0.054-0.364 0.143l-0.074 0.078-0.025 0.021-0.398 0.398c-0.065 0.027-0.12 0.064-0.167 0.11-0.931 0.931-1.938 0.782-3.456 0.562-0.781-0.149-1.679-0.234-2.597-0.234-0.272 0-0.543 0.008-0.811 0.022-3.454 0.265-8.3 5.076-8.496 5.282-0.097 0.097-0.157 0.23-0.157 0.378 0 0.096 0.025 0.186 0.070 0.264l3.334 5.896-1.963 1.963c-0.096 0.096-0.156 0.23-0.156 0.377s0.060 0.28 0.156 0.377l7.676 7.676c0.097 0.096 0.23 0.156 0.377 0.156s0.28-0.060 0.377-0.156l1.973-1.948 5.835 3.3c0.075 0.043 0.165 0.069 0.262 0.069 0.148 0 0.282-0.060 0.378-0.157 0.206-0.206 5.013-5.052 5.284-8.533 0.015-0.248 0.024-0.537 0.024-0.829 0-0.903-0.082-1.788-0.24-2.645-0.182-1.237-0.317-2.168 0.27-3.004zM1.376 13.945c1.077-1.020 4.921-4.487 7.577-4.7 0.219-0.013 0.476-0.020 0.734-0.020 0.854 0 1.69 0.078 2.5 0.228 0.474 0.089 1.121 0.152 1.782 0.161l-9.592 9.6zM27.31 7.698c0 0.295 0.239 0.533 0.533 0.533s0.533-0.239 0.533-0.533c-0.008-2.092-1.705-3.785-3.797-3.787-0.295 0-0.534 0.239-0.534 0.533s0.239 0.533 0.533 0.533c1.504 0.002 2.723 1.217 2.731 2.719z"></path>
</svg>
