<!-- Generated by IcoMoon.io -->
<svg version="1.1" xmlns="http://www.w3.org/2000/svg" width="32" height="32" viewBox="0 0 32 32">
<title>mail</title>
<path d="M24.381 6.095h-16.762c-2.104 0-3.81 1.706-3.81 3.81 0 0 0 0 0 0.001 0 0.731 0.372 1.376 0.937 1.755l9.15 6.062c0.596 0.404 1.331 0.646 2.122 0.646s1.526-0.241 2.135-0.654l6.737-4.517c0.226-0.135 0.374-0.378 0.374-0.656 0-0.421-0.341-0.762-0.762-0.762-0.173 0-0.332 0.057-0.46 0.154l-6.749 4.524c-0.357 0.242-0.798 0.387-1.272 0.387s-0.915-0.145-1.28-0.392l-9.135-6.052c-0.164-0.106-0.272-0.288-0.274-0.495 0-1.263 1.023-2.286 2.286-2.286h16.762c1.262 0 2.286 1.023 2.286 2.286v12.19c0 1.262-1.023 2.286-2.286 2.286h-16.762c-1.262 0-2.286-1.023-2.286-2.286v-6.857c0-0.421-0.341-0.762-0.762-0.762s-0.762 0.341-0.762 0.762v6.857c0 2.104 1.706 3.81 3.81 3.81h16.762c2.104 0 3.81-1.706 3.81-3.81v-12.19c0-2.104-1.706-3.81-3.81-3.81zM24.145 22.194c0.418-0.004 0.754-0.344 0.754-0.762 0-0.248-0.119-0.469-0.303-0.608l-2.958-2.188c-0.125-0.093-0.283-0.149-0.453-0.149-0.421 0-0.763 0.341-0.763 0.763 0 0.251 0.121 0.473 0.307 0.612l2.958 2.18c0.126 0.095 0.285 0.152 0.457 0.152zM8.023 22.042l2.956-2.179c0.189-0.14 0.309-0.363 0.309-0.613 0-0.421-0.341-0.763-0.763-0.763-0.171 0-0.328 0.056-0.455 0.151l-2.954 2.178c-0.189 0.14-0.309 0.363-0.309 0.613 0 0.421 0.341 0.763 0.763 0.763 0.171 0 0.328-0.056 0.455-0.151z"></path>
</svg>
