<!-- Generated by IcoMoon.io -->
<svg version="1.1" xmlns="http://www.w3.org/2000/svg" width="32" height="32" viewBox="0 0 32 32">
<title>mastery</title>
<path d="M13.867 21.618l-6.187 6.258c-0.747 0.747-1.956 0.747-2.702 0l-1.031-1.031c-0.356-0.356-0.569-0.853-0.569-1.351s0.213-0.996 0.569-1.351l6.187-6.293c0.213-0.213 0.213-0.533 0-0.747s-0.533-0.213-0.747 0l-6.187 6.293c-0.569 0.569-0.889 1.316-0.889 2.098s0.32 1.529 0.889 2.098l1.031 1.031c0.569 0.569 1.351 0.889 2.098 0.889 0.782 0 1.529-0.284 2.098-0.889l6.187-6.293c0.213-0.213 0.213-0.533 0-0.747-0.213-0.178-0.533-0.178-0.747 0.036zM29.404 4.8l-2.062-2.062c-0.32-0.32-0.853-0.391-1.244-0.107l-3.556 2.631c-0.213 0.178-0.356 0.427-0.391 0.711s0.071 0.533 0.284 0.747l0.213 0.213-4.764 4.764c-0.213 0.213-0.213 0.533 0 0.747 0.107 0.107 0.249 0.142 0.391 0.142s0.284-0.036 0.391-0.142l5.156-5.156c0.213-0.213 0.213-0.533 0-0.747l-0.533-0.498 3.378-2.489 1.92 1.92-2.489 3.378-0.498-0.498c-0.213-0.213-0.533-0.213-0.747 0 0 0 0 0 0 0l-5.049 5.049c-0.213 0.213-0.213 0.533 0 0.747 0.107 0.107 0.249 0.142 0.391 0.142s0.284-0.036 0.391-0.142l4.658-4.658 0.213 0.213c0.178 0.178 0.427 0.284 0.676 0.284 0.036 0 0.036 0 0.071 0 0.284-0.036 0.533-0.142 0.711-0.391l2.596-3.556c0.284-0.391 0.249-0.924-0.107-1.244zM22.222 19.378l-9.742-9.742c0.569-1.813 0.071-3.84-1.316-5.191-1.493-1.493-3.84-1.92-5.796-1.067-0.178 0.071-0.284 0.213-0.32 0.391s0.036 0.356 0.142 0.462l3.022 3.022c0.427 0.427 0.427 1.173 0 1.6s-1.173 0.427-1.6 0l-3.022-3.022c-0.107-0.142-0.284-0.178-0.462-0.142s-0.32 0.142-0.391 0.32c-0.853 1.956-0.427 4.267 1.067 5.796 1.351 1.351 3.342 1.849 5.156 1.316l9.742 9.742c-0.533 1.813-0.036 3.804 1.316 5.156 0.996 0.996 2.276 1.529 3.662 1.529 0 0 0 0 0 0 1.387 0 2.702-0.533 3.662-1.529 0.996-0.996 1.529-2.276 1.529-3.662s-0.533-2.702-1.529-3.662c-1.316-1.387-3.307-1.849-5.12-1.316zM26.631 27.271c-0.782 0.782-1.813 1.209-2.916 1.209 0 0 0 0 0 0-1.102 0-2.133-0.427-2.916-1.209-1.138-1.138-1.529-2.844-0.96-4.373 0.071-0.213 0.036-0.427-0.107-0.569l-10.204-10.204c-0.107-0.107-0.249-0.142-0.391-0.142-0.071 0-0.142 0-0.178 0.036-1.493 0.569-3.236 0.178-4.373-0.96-0.996-0.996-1.422-2.453-1.102-3.84l2.418 2.418c0.427 0.427 0.96 0.64 1.564 0.64s1.138-0.213 1.564-0.64c0.427-0.427 0.64-0.96 0.64-1.564s-0.213-1.138-0.64-1.564l-2.418-2.418c1.351-0.32 2.809 0.107 3.84 1.102 1.138 1.138 1.529 2.88 0.924 4.373-0.071 0.213-0.036 0.427 0.107 0.569l10.204 10.24c0.142 0.142 0.356 0.178 0.569 0.107 1.529-0.569 3.236-0.213 4.373 0.924 0.782 0.782 1.209 1.813 1.209 2.916s-0.427 2.169-1.209 2.951z"></path>
</svg>
