<!-- Generated by IcoMoon.io -->
<svg version="1.1" xmlns="http://www.w3.org/2000/svg" width="32" height="32" viewBox="0 0 32 32">
<title>meeting</title>
<path d="M17.356 17.585c-0.491-0.198-0.912-0.423-1.305-0.687-0.248-0.206-0.422-0.543-0.422-0.92 0-0.078 0.008-0.155 0.022-0.229 0.174-0.183 0.334-0.328 0.479-0.465 0.762-0.762 1.219-1.234 1.524-3.749 0.050-0.263 0.079-0.565 0.079-0.874 0-1.183-0.421-2.267-1.122-3.111-0.873-0.883-2.088-1.439-3.434-1.455l-0.224-0c-1.343 0.019-2.553 0.575-3.428 1.462-0.695 0.837-1.116 1.921-1.116 3.104 0 0.309 0.029 0.611 0.084 0.904 0.277 2.492 0.704 3.017 1.519 3.718 0.145 0.13 0.305 0.282 0.48 0.472 0.013 0.067 0.021 0.143 0.021 0.222 0 0.377-0.174 0.714-0.445 0.935-0.37 0.249-0.791 0.474-1.235 0.655-1.975 0.863-5.068 2.242-5.068 5.754 0 0.421 0.341 0.762 0.762 0.762s0.762-0.341 0.762-0.762c0-2.499 2.286-3.528 4.084-4.35 0.628-0.246 1.171-0.549 1.666-0.913 0.581-0.487 0.961-1.236 0.961-2.074 0-0.311-0.052-0.609-0.149-0.887l-0.040-0.11-0.091-0.107c-0.224-0.256-0.453-0.49-0.694-0.71-0.548-0.509-0.769-0.768-1.028-2.81-0.039-0.195-0.061-0.419-0.061-0.648 0-0.805 0.276-1.546 0.738-2.133 0.587-0.569 1.388-0.933 2.275-0.96l0.257-0c0.892 0.027 1.693 0.391 2.286 0.968 0.441 0.573 0.707 1.302 0.707 2.093 0 0.241-0.025 0.475-0.071 0.702-0.225 2.050-0.476 2.263-1.017 2.781-0.248 0.226-0.477 0.46-0.692 0.706l-0.1 0.117-0.046 0.13c-0.091 0.259-0.143 0.558-0.143 0.868 0 0.838 0.38 1.587 0.976 2.084 0.481 0.354 1.026 0.657 1.609 0.886 1.847 0.832 4.079 1.845 4.133 4.291-0.19 0.198-1.44 1.143-7.619 1.143h-0.274c-0.096 0.001-0.21 0.001-0.324 0.001-1.497 0-2.973-0.086-4.425-0.254 0.15 0.013 0.119 0.011 0.087 0.011-0.388 0-0.708 0.29-0.756 0.664-0.004 0.031-0.006 0.062-0.006 0.093 0 0.388 0.29 0.708 0.664 0.756 1.323 0.157 2.85 0.246 4.399 0.246 0.126 0 0.253-0.001 0.379-0.002l0.225 0c4.907 0 7.87-0.571 8.823-1.707 0.213-0.233 0.343-0.545 0.343-0.887 0-0.004-0-0.009-0-0.013-0.038-3.489-3.147-4.876-5.006-5.714zM24.968 18.164c-0.294-0.119-0.545-0.249-0.781-0.4-0.098-0.080-0.172-0.221-0.172-0.379 0-0.007 0-0.015 0-0.022l0.236-0.22c0.587-0.541 0.861-0.952 1.044-2.568 0.030-0.169 0.047-0.364 0.047-0.563 0-0.84-0.306-1.608-0.813-2.2-0.603-0.622-1.449-1.014-2.387-1.024h-0.154c-0.941 0.014-1.788 0.405-2.399 1.028-0.503 0.587-0.81 1.356-0.81 2.196 0 0.199 0.017 0.394 0.050 0.583 0.18 1.595 0.454 2.006 1.041 2.547 0.128 0.114 0.244 0.231 0.354 0.354 0.145 0.176 0.357 0.285 0.594 0.285 0.421 0 0.762-0.341 0.762-0.762 0-0.2-0.077-0.381-0.203-0.517-0.15-0.171-0.304-0.328-0.467-0.475-0.31-0.286-0.432-0.401-0.569-1.627-0.022-0.111-0.035-0.238-0.035-0.368 0-0.435 0.142-0.837 0.381-1.161 0.325-0.312 0.768-0.512 1.258-0.528l0.163-0c0.493 0.015 0.936 0.216 1.265 0.534 0.235 0.319 0.377 0.721 0.377 1.156 0 0.13-0.013 0.257-0.037 0.38-0.135 1.214-0.257 1.329-0.562 1.61-0.167 0.152-0.322 0.309-0.467 0.474l-0.097 0.113-0.046 0.13c-0.068 0.193-0.107 0.416-0.107 0.648 0 0.62 0.28 1.174 0.721 1.543 0.326 0.243 0.696 0.451 1.090 0.608 1.305 0.591 2.379 1.17 2.479 2.358-0.742 0.328-1.607 0.518-2.517 0.518-0.020 0-0.041-0-0.061-0-0.406 0.015-0.733 0.35-0.733 0.762 0 0.421 0.341 0.762 0.762 0.762 0.009 0 0.019-0 0.028-0l0.052 0c2.057-0.145 3.246-0.518 3.749-1.158 0.157-0.187 0.252-0.431 0.252-0.697 0-0.010-0-0.019-0-0.029 0.038-2.376-2.049-3.328-3.291-3.892z"></path>
</svg>
