<!-- Generated by IcoMoon.io -->
<svg version="1.1" xmlns="http://www.w3.org/2000/svg" width="32" height="32" viewBox="0 0 32 32">
<title>military</title>
<path d="M29.458 12.469h-9.838l-0.711-2.172-2.425-7.26c-0.067-0.207-0.258-0.355-0.483-0.356h-0c-0.226 0.001-0.417 0.148-0.483 0.352l-0.001 0.004-2.439 7.275-0.711 2.169h-9.824c-0.282 0-0.51 0.228-0.51 0.51s0.228 0.51 0.51 0.51v0h10.208c0.226-0.001 0.417-0.148 0.483-0.352l0.001-0.004 0.811-2.517 1.956-5.828 1.952 5.813 0.811 2.521c0.067 0.207 0.258 0.355 0.483 0.356h10.212c0.282 0 0.51-0.228 0.51-0.51s-0.228-0.51-0.51-0.51v0zM21.852 19.253l3.808-2.823c0.125-0.094 0.206-0.242 0.206-0.409 0-0.281-0.228-0.509-0.509-0.509-0.115 0-0.22 0.038-0.305 0.102l0.001-0.001-4.1 3.036c-0.124 0.094-0.202 0.241-0.202 0.406 0 0.052 0.008 0.102 0.022 0.149l-0.001-0.004 2.603 8.292-7.079-5.028c-0.082-0.059-0.184-0.094-0.295-0.094s-0.213 0.035-0.297 0.095l0.002-0.001-7.083 5.038 2.606-8.302c0.015-0.046 0.024-0.099 0.024-0.154 0-0.167-0.080-0.314-0.204-0.407l-0.001-0.001-4.1-3.029c-0.084-0.063-0.189-0.101-0.304-0.101-0.281 0-0.51 0.228-0.51 0.509 0 0.167 0.080 0.315 0.204 0.408l0.001 0.001 3.808 2.827-2.955 9.39c-0.016 0.047-0.025 0.101-0.025 0.157 0 0.281 0.228 0.508 0.508 0.508 0.112 0 0.216-0.036 0.3-0.098l-0.001 0.001 8.025-5.71 8.018 5.714c0.083 0.061 0.186 0.097 0.299 0.097 0.281 0 0.508-0.228 0.508-0.508 0-0.056-0.009-0.11-0.026-0.161l0.001 0.004zM20.238 6.521c1.344 0.578 2.492 1.365 3.46 2.332l0 0c0.482 0.482 0.919 1.009 1.305 1.573l0.024 0.038c0.093 0.132 0.245 0.216 0.416 0.216 0.281 0 0.508-0.228 0.508-0.508 0-0.103-0.031-0.199-0.083-0.279l0.001 0.002c-1.297-1.9-3.079-3.382-5.171-4.283l-0.078-0.030c-0.059-0.026-0.127-0.040-0.199-0.040-0.282 0-0.51 0.228-0.51 0.51 0 0.21 0.127 0.39 0.307 0.468l0.003 0.001zM6.265 10.603c0.081 0.056 0.181 0.090 0.289 0.090 0.175 0 0.33-0.089 0.421-0.223l0.001-0.002c0.796-1.167 1.773-2.145 2.903-2.916l0.038-0.024c0.531-0.364 1.139-0.7 1.778-0.976l0.070-0.027c0.187-0.078 0.316-0.26 0.316-0.471 0-0.281-0.228-0.509-0.509-0.509-0.070 0-0.136 0.014-0.197 0.040l0.003-0.001c-2.168 0.932-3.95 2.413-5.221 4.272l-0.027 0.041c-0.055 0.080-0.088 0.179-0.088 0.286 0 0.174 0.088 0.328 0.222 0.42l0.002 0.001zM5.97 20.789c-0.254-0.581-0.474-1.264-0.624-1.974l-0.013-0.071c-0.14-0.658-0.22-1.414-0.22-2.188 0-0.002 0-0.004 0-0.006v0c0-0.282-0.228-0.51-0.51-0.51s-0.51 0.228-0.51 0.51v0c0 0.002 0 0.004 0 0.005 0 0.848 0.088 1.675 0.255 2.473l-0.014-0.078c0.332 1.618 0.95 3.050 1.804 4.308l-0.027-0.041c0.093 0.132 0.245 0.216 0.416 0.216 0.281 0 0.508-0.228 0.508-0.508 0-0.103-0.031-0.199-0.083-0.279l0.001 0.002c-0.358-0.534-0.688-1.145-0.958-1.788l-0.027-0.072zM18.194 27.218c-0.66 0.14-1.417 0.22-2.194 0.22s-1.534-0.080-2.266-0.232l0.072 0.012c-0.030-0.006-0.065-0.010-0.101-0.010-0.282 0-0.51 0.228-0.51 0.51 0 0.246 0.174 0.451 0.405 0.499l0.003 0.001c0.721 0.154 1.549 0.242 2.398 0.242s1.677-0.088 2.476-0.255l-0.078 0.014c0.235-0.049 0.408-0.254 0.408-0.5 0-0.282-0.228-0.51-0.51-0.51-0.036 0-0.071 0.004-0.105 0.011l0.003-0.001zM27.396 16.043c-0.281 0-0.508 0.228-0.508 0.508v0c0 0.002 0 0.003 0 0.005 0 0.775-0.080 1.53-0.233 2.26l0.012-0.071c-0.309 1.477-0.878 2.783-1.663 3.93l0.024-0.037c-0.058 0.081-0.092 0.183-0.092 0.292 0 0.281 0.228 0.508 0.508 0.508 0.178 0 0.334-0.091 0.425-0.23l0.001-0.002c1.274-1.862 2.034-4.163 2.034-6.642 0-0.005 0-0.010 0-0.015v0.001c0-0.281-0.228-0.508-0.508-0.508v0z"></path>
</svg>
