<!-- Generated by IcoMoon.io -->
<svg version="1.1" xmlns="http://www.w3.org/2000/svg" width="32" height="32" viewBox="0 0 32 32">
<title>museum-of-police</title>
<path d="M6.4 15.111v7.822c0 0.284 0.249 0.533 0.533 0.533s0.533-0.249 0.533-0.533v-7.822c0-0.284-0.249-0.533-0.533-0.533s-0.533 0.249-0.533 0.533zM11.022 15.111v7.822c0 0.284 0.249 0.533 0.533 0.533s0.533-0.249 0.533-0.533v-7.822c0-0.284-0.249-0.533-0.533-0.533s-0.533 0.249-0.533 0.533zM15.644 15.111v7.822c0 0.284 0.249 0.533 0.533 0.533s0.533-0.249 0.533-0.533v-7.822c0-0.284-0.249-0.533-0.533-0.533s-0.533 0.249-0.533 0.533zM20.267 15.111v7.822c0 0.284 0.249 0.533 0.533 0.533s0.533-0.249 0.533-0.533v-7.822c0-0.284-0.249-0.533-0.533-0.533s-0.533 0.249-0.533 0.533zM24.889 15.111v7.822c0 0.284 0.249 0.533 0.533 0.533s0.533-0.249 0.533-0.533v-7.822c0-0.284-0.249-0.533-0.533-0.533s-0.533 0.249-0.533 0.533zM4.089 25.956h23.822c0.284 0 0.533-0.249 0.533-0.533s-0.249-0.533-0.533-0.533h-23.822c-0.284 0-0.533 0.249-0.533 0.533s0.249 0.533 0.533 0.533zM3.591 12.764c0 0 0 0 0 0s0 0.036 0 0c0.036 0.071 0.036 0.142 0.071 0.178 0 0 0 0 0 0 0.036 0.036 0.071 0.071 0.107 0.107 0 0 0 0 0.036 0 0.036 0.036 0.071 0.036 0.142 0.071 0 0 0.036 0 0.036 0 0.036 0 0.107 0.036 0.142 0.036h23.822c0 0 0 0 0 0 0.036 0 0.107 0 0.142-0.036 0 0 0.036 0 0.036 0 0.036 0 0.107-0.036 0.142-0.071 0 0 0 0 0.036 0 0.036-0.036 0.071-0.071 0.107-0.107 0 0 0 0 0 0 0.036-0.036 0.036-0.071 0.071-0.142 0 0 0 0 0 0s0 0 0 0c0-0.036 0.036-0.107 0.036-0.142 0 0 0 0 0 0s0 0 0-0.036 0-0.107-0.036-0.142c0 0 0 0 0-0.036-0.036-0.036-0.036-0.107-0.071-0.142 0 0 0 0-0.036-0.036s-0.071-0.071-0.107-0.107c0 0 0 0 0 0l-6.009-3.84c-0.249-0.142-0.569-0.107-0.747 0.142s-0.107 0.569 0.142 0.747l4.444 2.88h-20.231l4.693-3.058c0.249-0.178 0.32-0.498 0.142-0.747s-0.498-0.32-0.747-0.142l-6.151 4.018c0 0 0 0 0 0-0.036 0.036-0.071 0.071-0.107 0.107 0 0 0 0-0.036 0.036s-0.071 0.071-0.071 0.142c0 0 0 0 0 0.036s-0.036 0.071-0.036 0.142c0 0 0 0 0 0.036 0 0 0 0 0 0s0 0.071 0.036 0.107zM30.756 27.733h-29.511c-0.284 0-0.533 0.249-0.533 0.533s0.249 0.533 0.533 0.533h29.511c0.284 0 0.533-0.249 0.533-0.533s-0.249-0.533-0.533-0.533zM15.609 10.987c0.071 0.036 0.142 0.036 0.213 0.036s0.107 0 0.178-0.036c0.071 0.036 0.107 0.036 0.178 0.036s0.142 0 0.213-0.036c2.276-1.031 3.52-2.596 3.52-4.409v-2.844c0-0.284-0.249-0.533-0.533-0.533h-6.756c-0.284 0-0.533 0.249-0.533 0.533v2.844c0 1.813 1.244 3.378 3.52 4.409zM13.156 4.267h5.689v2.311c0 1.849-1.778 2.916-2.844 3.413-1.067-0.498-2.844-1.564-2.844-3.413v-2.311z"></path>
</svg>
