<!-- Generated by IcoMoon.io -->
<svg version="1.1" xmlns="http://www.w3.org/2000/svg" width="32" height="32" viewBox="0 0 32 32">
<title>passing-score</title>
<path d="M28.014 1.778h-3.406c-0.332 0-0.601 0.269-0.601 0.601s0.269 0.601 0.601 0.601h2.805v27.637h-22.841v-27.648h2.805c0.332 0 0.601-0.269 0.601-0.601s-0.269-0.601-0.601-0.601h-3.406c-0.332 0-0.601 0.269-0.601 0.601v28.85c0 0.332 0.269 0.601 0.601 0.601h24.043c0.332 0 0.601-0.269 0.601-0.601v-28.85c-0.006-0.327-0.273-0.59-0.601-0.59-0 0-0 0-0 0zM16 9.38h-8.089c-0.332 0-0.601 0.269-0.601 0.601s0.269 0.601 0.601 0.601h8.089c0.332 0 0.601-0.269 0.601-0.601s-0.269-0.601-0.601-0.601zM10.784 4.569h10.418c0.332 0 0.601-0.269 0.601-0.601v-3.2c0-0.001 0-0.002 0-0.004 0-0.332-0.269-0.601-0.601-0.601 0 0 0 0 0 0h-10.418c-0.332 0-0.601 0.269-0.601 0.601v3.2c0 0.001 0 0.002 0 0.004 0 0.332 0.269 0.601 0.601 0.601 0 0 0 0 0 0zM11.385 1.369h9.216v1.998h-9.223zM25.532 6.756c-0.109-0.109-0.259-0.176-0.425-0.176s-0.316 0.067-0.425 0.176l-3.883 3.876-1.71-1.714c-0.109-0.11-0.26-0.178-0.427-0.178-0.332 0-0.601 0.269-0.601 0.601 0 0.167 0.068 0.318 0.178 0.427l2.133 2.133c0.109 0.109 0.259 0.176 0.425 0.176s0.316-0.067 0.425-0.176l4.309-4.299c0.108-0.109 0.174-0.258 0.174-0.423s-0.067-0.315-0.174-0.423zM16 16.843h-8.089c-0.332 0-0.601 0.269-0.601 0.601s0.269 0.601 0.601 0.601h8.089c0.332 0 0.601-0.269 0.601-0.601s-0.269-0.601-0.601-0.601zM25.532 14.222c-0.109-0.109-0.259-0.176-0.425-0.176s-0.316 0.067-0.425 0.176l-3.883 3.872-1.71-1.714c-0.109-0.11-0.26-0.178-0.427-0.178-0.332 0-0.601 0.269-0.601 0.601 0 0.167 0.068 0.318 0.178 0.427l2.133 2.133c0.109 0.109 0.259 0.176 0.425 0.176s0.316-0.067 0.425-0.176l4.309-4.299c0.107-0.108 0.172-0.257 0.172-0.421s-0.066-0.313-0.173-0.421zM16 24.306h-8.089c-0.332 0-0.601 0.269-0.601 0.601s0.269 0.601 0.601 0.601h8.089c0.332 0 0.601-0.269 0.601-0.601s-0.269-0.601-0.601-0.601zM24.683 21.689l-3.883 3.868-1.71-1.714c-0.109-0.11-0.26-0.178-0.427-0.178-0.332 0-0.601 0.269-0.601 0.601 0 0.167 0.068 0.318 0.178 0.427l2.133 2.133c0.109 0.109 0.259 0.176 0.425 0.176s0.316-0.067 0.425-0.176l4.309-4.299c0.080-0.101 0.129-0.231 0.129-0.372 0-0.332-0.269-0.601-0.601-0.601-0.144 0-0.275 0.050-0.379 0.134z"></path>
</svg>
