<!-- Generated by IcoMoon.io -->
<svg version="1.1" xmlns="http://www.w3.org/2000/svg" width="30" height="32" viewBox="0 0 30 32">
<title>person</title>
<path d="M15.111 30.222c-7.095 0-12.444-2.101-12.444-4.889 0.008-2.585 1.621-4.791 3.894-5.675 1.832-0.69 3.169-1.436 3.907-2.174 0.098-0.105 0.236-0.17 0.39-0.17 0.295 0 0.533 0.239 0.533 0.533 0 0.154-0.065 0.293-0.169 0.39-0.857 0.857-2.285 1.666-4.244 2.404-1.908 0.741-3.238 2.56-3.244 4.691 0 1.809 4.672 3.823 11.378 3.823s11.362-2.007 11.378-3.813c0-0.001 0-0.003 0-0.004 0-2.068-1.263-3.84-3.060-4.588-1.8-0.723-3.384-1.593-4.38-2.375-0.731-0.579-1.355-1.25-1.866-2.004-0.092-0.139-0.134-0.272-0.134-0.415 0-0.056 0.007-0.111 0.019-0.164 0.044-0.188 0.163-0.347 0.323-0.445 1.809-1.097 2.965-3.422 2.965-5.925 0-3.627-2.352-6.578-5.244-6.578s-5.244 2.951-5.244 6.578 2.352 6.578 5.244 6.578c0.295 0 0.533 0.239 0.533 0.533s-0.239 0.533-0.533 0.533c-3.481 0-6.311-3.429-6.311-7.644s2.83-7.644 6.311-7.644 6.311 3.429 6.311 7.644c0 2.764-1.202 5.266-3.161 6.629 0.422 0.563 0.898 1.052 1.429 1.474 0.937 0.736 2.429 1.543 4.105 2.228 2.222 0.92 3.757 3.071 3.76 5.58v0.089c-0.114 2.743-5.426 4.8-12.444 4.8z"></path>
</svg>
