<!-- Generated by IcoMoon.io -->
<svg version="1.1" xmlns="http://www.w3.org/2000/svg" width="32" height="32" viewBox="0 0 32 32">
<title>phone</title>
<path d="M19.81 3.81h-7.619c-2.104 0-3.81 1.706-3.81 3.81v16.762c0 2.104 1.706 3.81 3.81 3.81h7.619c2.104 0 3.81-1.706 3.81-3.81v-16.762c0-2.104-1.706-3.81-3.81-3.81zM19.81 26.667h-7.619c-1.262 0-2.286-1.023-2.286-2.286v-15.238h9.905c0.421 0 0.762-0.341 0.762-0.762s-0.341-0.762-0.762-0.762h-9.905c0-1.262 1.023-2.286 2.286-2.286h7.619c1.262 0 2.286 1.023 2.286 2.286v12.952h-9.905c-0.056-0.015-0.119-0.023-0.185-0.023-0.421 0-0.762 0.341-0.762 0.762s0.341 0.762 0.762 0.762c0.066 0 0.13-0.008 0.191-0.024l9.899 0.001v2.331c0 1.262-1.023 2.286-2.286 2.286zM12.952 12.191c0 0.421-0.341 0.762-0.762 0.762s-0.762-0.341-0.762-0.762c0-0.421 0.341-0.762 0.762-0.762s0.762 0.341 0.762 0.762zM16.762 12.191c0 0.421-0.341 0.762-0.762 0.762s-0.762-0.341-0.762-0.762c0-0.421 0.341-0.762 0.762-0.762s0.762 0.341 0.762 0.762zM20.571 12.191c0 0.421-0.341 0.762-0.762 0.762s-0.762-0.341-0.762-0.762c0-0.421 0.341-0.762 0.762-0.762s0.762 0.341 0.762 0.762zM12.952 15.238c0 0.421-0.341 0.762-0.762 0.762s-0.762-0.341-0.762-0.762c0-0.421 0.341-0.762 0.762-0.762s0.762 0.341 0.762 0.762zM16.762 15.238c0 0.421-0.341 0.762-0.762 0.762s-0.762-0.341-0.762-0.762c0-0.421 0.341-0.762 0.762-0.762s0.762 0.341 0.762 0.762zM16.762 24.427c0 0.421-0.341 0.762-0.762 0.762s-0.762-0.341-0.762-0.762c0-0.421 0.341-0.762 0.762-0.762s0.762 0.341 0.762 0.762zM20.571 15.238c0 0.421-0.341 0.762-0.762 0.762s-0.762-0.341-0.762-0.762c0-0.421 0.341-0.762 0.762-0.762s0.762 0.341 0.762 0.762z"></path>
</svg>
