<!-- Generated by IcoMoon.io -->
<svg version="1.1" xmlns="http://www.w3.org/2000/svg" width="32" height="32" viewBox="0 0 32 32">
<title>postgraduate</title>
<path d="M8.306 16.676c-0.003 0-0.007 0-0.011 0-1.903 0-3.625 0.779-4.862 2.036l-0.001 0.001c-0.095 0.096-0.154 0.229-0.154 0.375s0.059 0.279 0.154 0.375l-0-0 5.813 5.874c0.095 0.090 0.224 0.145 0.366 0.145 0.295 0 0.533-0.239 0.533-0.533 0-0.14-0.054-0.267-0.142-0.362l0 0-5.426-5.483c1.001-0.849 2.307-1.365 3.733-1.365 1.611 0 3.068 0.658 4.117 1.72l0.001 0.001c1.057 1.071 1.709 2.543 1.709 4.167 0 1.428-0.504 2.738-1.344 3.762l0.008-0.010-1.191-1.202c-0.095-0.090-0.224-0.145-0.366-0.145-0.295 0-0.533 0.239-0.533 0.533 0 0.14 0.054 0.267 0.142 0.362l-0-0 1.593 1.614c0.097 0.097 0.231 0.158 0.379 0.158s0.282-0.060 0.379-0.158l0-0c1.245-1.263 2.014-2.999 2.014-4.914s-0.769-3.651-2.015-4.915l0.001 0.001c-1.238-1.258-2.96-2.037-4.863-2.037-0.011 0-0.023 0-0.034 0h0.002zM24.828 11.773l-4.764-4.807c-0.235-0.227-0.555-0.367-0.908-0.367s-0.673 0.14-0.909 0.367l0-0-6.35 6.4c-0.231 0.234-0.374 0.555-0.374 0.91s0.143 0.677 0.374 0.91l-0-0 4.764 4.807c0.232 0.235 0.553 0.38 0.908 0.38s0.677-0.145 0.908-0.38l0-0 6.35-6.4c0.231-0.234 0.374-0.555 0.374-0.91s-0.143-0.677-0.374-0.91l0 0zM24.071 12.839l-6.35 6.4c-0.038 0.040-0.092 0.064-0.151 0.064s-0.113-0.025-0.151-0.064l-0-0-4.764-4.796c-0.040-0.041-0.064-0.097-0.064-0.158s0.024-0.117 0.064-0.158l-0 0 6.35-6.4c0.038-0.040 0.092-0.064 0.151-0.064s0.113 0.025 0.151 0.064l0 0 4.764 4.796c0.040 0.041 0.065 0.096 0.065 0.158s-0.025 0.118-0.065 0.158v0zM6.044 26.667l1.259-1.269c0.103-0.098 0.168-0.235 0.168-0.388 0-0.295-0.239-0.533-0.533-0.533-0.155 0-0.294 0.066-0.391 0.171l-0 0-1.259 1.269c-0.088 0.095-0.142 0.222-0.142 0.362 0 0.295 0.239 0.533 0.533 0.533 0.142 0 0.27-0.055 0.366-0.145l-0 0zM4.267 23.961c-0.096-0.096-0.23-0.156-0.377-0.156s-0.28 0.060-0.377 0.156v0c-0.566 0.577-0.915 1.368-0.915 2.24 0 0.874 0.351 1.666 0.919 2.244l-0-0c0.569 0.576 1.358 0.932 2.231 0.932s1.662-0.357 2.231-0.932l0-0c0.088-0.095 0.142-0.222 0.142-0.362 0-0.295-0.239-0.533-0.533-0.533-0.142 0-0.27 0.055-0.366 0.145l0-0c-0.375 0.381-0.897 0.617-1.474 0.617s-1.098-0.236-1.474-0.616l-0-0c-0.377-0.384-0.61-0.912-0.61-1.493s0.233-1.109 0.61-1.494l-0 0c0.092-0.096 0.149-0.226 0.149-0.37 0-0.147-0.060-0.28-0.156-0.377v0zM8.683 29.173c-0.747 0.756-1.785 1.225-2.932 1.225s-2.184-0.468-2.931-1.224l-0-0c-0.752-0.762-1.216-1.81-1.216-2.965s0.464-2.203 1.216-2.966l-0 0c0.103-0.098 0.168-0.235 0.168-0.388 0-0.295-0.239-0.533-0.533-0.533-0.155 0-0.294 0.066-0.391 0.171l-0 0c-0.941 0.955-1.523 2.267-1.523 3.716s0.581 2.76 1.523 3.716l-0.001-0.001c0.941 0.952 2.247 1.542 3.691 1.542s2.75-0.59 3.69-1.542l0.001-0c0.088-0.095 0.142-0.222 0.142-0.362 0-0.295-0.239-0.533-0.533-0.533-0.142 0-0.27 0.055-0.366 0.145l0-0zM11.236 10.788c0.097 0.097 0.231 0.158 0.379 0.158s0.282-0.060 0.379-0.158l1.472-1.486 0.58 0.587c0.095 0.090 0.224 0.145 0.366 0.145 0.295 0 0.533-0.239 0.533-0.533 0-0.14-0.054-0.267-0.142-0.362l0 0-0.58-0.604 1.479-1.493c0.095-0.096 0.154-0.229 0.154-0.375s-0.059-0.279-0.154-0.375l0 0-5.561-5.6c-0.098-0.094-0.232-0.152-0.379-0.152s-0.28 0.058-0.379 0.152l0-0-3.694 3.74c-0.095 0.096-0.154 0.229-0.154 0.375s0.059 0.279 0.154 0.375l-0-0zM9.764 1.824l4.814 4.85-2.955 2.98-4.814-4.85zM11.157 20.267c0.040-0.073 0.063-0.16 0.063-0.252 0-0.195-0.104-0.365-0.26-0.458l-0.002-0.001c-0.735-0.426-1.617-0.677-2.558-0.677-0.513 0-1.008 0.075-1.475 0.214l0.037-0.009c-0.224 0.067-0.384 0.271-0.384 0.512 0 0.295 0.239 0.533 0.533 0.533 0.053 0 0.105-0.008 0.153-0.022l-0.004 0.001c0.342-0.103 0.735-0.162 1.142-0.162 0.745 0 1.444 0.199 2.046 0.546l-0.020-0.011c0.073 0.040 0.16 0.063 0.252 0.063 0.195 0 0.365-0.104 0.458-0.26l0.001-0.002zM31.314 22.044l-5.557-5.6c-0.098-0.094-0.232-0.152-0.379-0.152s-0.28 0.058-0.379 0.152l0-0-1.472 1.486-0.548-0.551c-0.097-0.098-0.232-0.159-0.38-0.159-0.296 0-0.536 0.24-0.536 0.536 0 0.147 0.059 0.28 0.155 0.377l-0-0 0.537 0.555-1.479 1.493c-0.095 0.096-0.154 0.229-0.154 0.375s0.059 0.279 0.154 0.375l-0-0 5.572 5.607c0.097 0.097 0.231 0.158 0.379 0.158s0.282-0.060 0.379-0.158l0-0 3.708-3.737c0.097-0.097 0.158-0.231 0.158-0.379s-0.060-0.282-0.158-0.379l-0-0zM27.228 25.408l-4.807-4.85 2.955-2.98 4.807 4.846z"></path>
</svg>
