<!-- Generated by IcoMoon.io -->
<svg version="1.1" xmlns="http://www.w3.org/2000/svg" width="32" height="32" viewBox="0 0 32 32">
<title>prize</title>
<path d="M28.8 4.444h-4.267v-2.667c0-0.284-0.249-0.533-0.533-0.533h-15.644c-0.284 0-0.533 0.249-0.533 0.533v2.667h-4.622c-0.284 0-0.533 0.249-0.533 0.533 0 1.636 1.067 4.764 2.702 5.938 0.107 0.071 0.213 0.107 0.32 0.107 0.178 0 0.32-0.071 0.427-0.213 0.178-0.249 0.107-0.569-0.142-0.747-1.173-0.818-2.027-3.058-2.24-4.551h4.089v7.396c0 4.267 3.378 7.858 7.644 8.213v6.436h-2.844c-0.284 0-0.533 0.249-0.533 0.533s0.249 0.533 0.533 0.533h6.756c0.284 0 0.533-0.249 0.533-0.533s-0.249-0.533-0.533-0.533h-2.844v-6.756c0-0.036 0-0.071 0-0.071 0-0.036 0-0.036 0-0.071 0-0.284-0.213-0.533-0.533-0.533-3.911-0.071-7.111-3.307-7.111-7.182v-10.631h14.578v10.596c0 2.24-1.031 4.338-2.844 5.689-0.249 0.178-0.284 0.498-0.107 0.747s0.498 0.284 0.747 0.107c2.098-1.564 3.271-3.947 3.271-6.542v-7.396h3.698c-0.178 1.493-1.067 3.733-2.24 4.551-0.249 0.178-0.284 0.498-0.142 0.747 0.107 0.142 0.284 0.213 0.427 0.213 0.107 0 0.213-0.036 0.32-0.107 1.671-1.173 2.702-4.302 2.702-5.938 0.036-0.284-0.178-0.533-0.498-0.533zM22.933 29.689h-13.867c-0.284 0-0.533 0.249-0.533 0.533s0.249 0.533 0.533 0.533h13.867c0.284 0 0.533-0.249 0.533-0.533s-0.249-0.533-0.533-0.533z"></path>
</svg>
