<!-- Generated by IcoMoon.io -->
<svg version="1.1" xmlns="http://www.w3.org/2000/svg" width="32" height="32" viewBox="0 0 32 32">
<title>professor</title>
<path d="M21.333 30.756h-4.444v-5.76l2.311 1.778c0.142 0.107 0.356 0.142 0.498 0.071 0.178-0.071 0.284-0.213 0.32-0.391l0.782-3.84c0.071-0.284-0.142-0.569-0.427-0.64s-0.569 0.142-0.64 0.427l-0.64 2.987-2.347-1.778c-0.071-0.178-0.284-0.32-0.498-0.32-0.036 0-0.071 0-0.107 0-0.142 0-0.32 0.071-0.391 0.178l-2.489 1.92-0.533-2.987c-0.071-0.284-0.356-0.462-0.64-0.427-0.284 0.071-0.462 0.356-0.427 0.64l0.782 3.84c0.036 0.178 0.178 0.32 0.32 0.391 0.071 0.036 0.107 0.036 0.178 0.036 0.107 0 0.213-0.036 0.32-0.107l2.489-1.92v5.902h-8.142c-0.569 0-1.031-0.462-1.031-1.031v-4.622c0-0.711 0.142-1.387 0.427-2.027 0.107-0.284 0.284-0.569 0.462-0.818 0.427 1.636 1.529 4.729 4.409 7.573 0.213 0.213 0.533 0.213 0.747 0s0.213-0.533 0-0.747c-3.804-3.804-4.373-8.071-4.373-8.107-0.036-0.213-0.178-0.391-0.356-0.427-0.178-0.071-0.391 0-0.569 0.142-0.569 0.569-1.031 1.244-1.351 1.991-0.32 0.782-0.498 1.6-0.498 2.453v4.658c0 1.138 0.924 2.098 2.098 2.098h13.76c0.284 0 0.533-0.249 0.533-0.533s-0.249-0.604-0.533-0.604zM25.991 22.649c-0.32-0.747-0.782-1.422-1.351-1.991 0 0-0.036 0-0.036-0.036-0.036-0.036-0.071-0.071-0.107-0.071s-0.036-0.036-0.071-0.036c-0.036 0-0.071-0.036-0.107-0.036 0 0-0.036 0-0.036 0s-0.036 0-0.036 0c-0.071 0-0.107 0-0.178 0.036 0 0 0 0 0 0-0.178 0.071-0.32 0.213-0.32 0.427 0 0.036-0.569 4.338-4.338 8.071-0.213 0.213-0.213 0.533 0 0.747 0.107 0.107 0.249 0.142 0.391 0.142s0.284-0.036 0.391-0.142c2.844-2.844 3.982-5.938 4.409-7.573 0.178 0.249 0.32 0.533 0.462 0.853 0.284 0.64 0.427 1.316 0.427 2.027v4.658c0 0.569-0.462 1.031-1.031 1.031h-0.284c-0.284 0-0.533 0.249-0.533 0.533s0.249 0.533 0.533 0.533h0.213c1.138 0 2.098-0.924 2.098-2.098v-4.622c0-0.853-0.178-1.671-0.498-2.453zM16.178 16.64c0.782 0 1.422-0.64 1.422-1.422 0-0.284-0.249-0.533-0.533-0.533s-0.533 0.249-0.533 0.533c0 0.213-0.142 0.356-0.356 0.356s-0.356-0.142-0.356-0.356c0-0.284-0.249-0.533-0.533-0.533s-0.533 0.249-0.533 0.533c0 0.782 0.64 1.422 1.422 1.422zM12.8 8.889c-1.209 0-2.062 0.533-2.062 1.316 0 0.284 0.249 0.533 0.533 0.533s0.498-0.213 0.533-0.498c0.071-0.107 0.427-0.284 0.996-0.284s0.924 0.178 0.996 0.284c0.036 0.284 0.249 0.498 0.533 0.498s0.533-0.249 0.533-0.533c0-0.782-0.889-1.316-2.062-1.316zM18.24 10.738c0.284 0 0.498-0.213 0.533-0.498 0.071-0.107 0.427-0.284 1.031-0.284s0.924 0.178 0.996 0.284c0.036 0.284 0.249 0.498 0.533 0.498s0.533-0.249 0.533-0.533c0-0.747-0.889-1.316-2.062-1.316s-2.062 0.533-2.062 1.316c-0.036 0.284 0.213 0.533 0.498 0.533zM7.751 14.044h0.249c0.142 3.271 0.604 4.231 2.453 5.689l0.711 0.533c2.844 2.24 3.378 2.667 4.978 2.667h0.213c1.422 0 1.991-0.427 4.089-2.027 0.427-0.32 0.96-0.711 1.564-1.173 1.849-1.387 2.347-2.347 2.453-5.689h0.213c0.853 0 1.529-0.64 1.529-1.387v-2.524c0-0.782-0.676-1.387-1.529-1.387h-0.178c-0.32-7.929-6.329-8.569-8.213-8.569h-0.213c-1.884 0-7.893 0.64-8.142 8.533h-0.213c-0.853 0-1.529 0.64-1.529 1.387v2.524c0.036 0.782 0.711 1.422 1.564 1.422zM23.36 9.245v0.284c0 0.889 0 1.671 0 2.382h-1.529c-0.213-0.427-0.64-0.711-1.102-0.711h-2.347c-0.498 0-0.924 0.284-1.102 0.711h-2.204c-0.213-0.427-0.64-0.711-1.102-0.711h-2.347c-0.498 0-0.924 0.284-1.102 0.711h-1.493c0-0.711 0-1.529 0-2.418v-0.249c0-0.213 0-0.427 0-0.64 1.138-0.391 2.738-1.813 3.591-2.596 0.782 0.818 2.667 2.418 5.12 2.418 2.702 0 4.231-0.178 5.618-0.462 0 0.391 0 0.818 0 1.28zM19.556 13.333c0.284 0 0.533-0.249 0.533-0.533v-0.356c0-0.071 0-0.107-0.036-0.178h0.676c0.107 0 0.178 0.071 0.178 0.178v1.067c0 0.107-0.071 0.178-0.178 0.178h-2.347c-0.107 0-0.178-0.071-0.178-0.178v-1.067c0-0.107 0.071-0.178 0.178-0.178h0.676c-0.036 0.071-0.036 0.107-0.036 0.178v0.356c0 0.284 0.249 0.533 0.533 0.533zM11.449 12.444c0-0.107 0.071-0.178 0.178-0.178h0.676c-0.036 0.071-0.036 0.107-0.036 0.178v0.356c0 0.284 0.249 0.533 0.533 0.533s0.533-0.249 0.533-0.533v-0.356c0-0.071 0-0.107-0.036-0.178h0.64c0.071 0 0.142 0.071 0.178 0.142 0 0 0 0.036 0 0.036 0 0.036 0 0.071 0 0.107v0.96c0 0.107-0.071 0.178-0.178 0.178h-2.347c-0.107 0-0.178-0.071-0.178-0.178v-1.067zM21.298 18.88c-0.604 0.462-1.138 0.853-1.564 1.173-2.062 1.564-2.382 1.813-3.449 1.813h-0.213c-1.209 0-1.493-0.213-4.302-2.418l-0.711-0.533c-1.636-1.28-1.991-1.92-2.062-5.902h1.351v0.498c0 0.676 0.569 1.244 1.244 1.244h2.347c0.676 0 1.244-0.569 1.244-1.244v-0.533h1.92v0.533c0 0.676 0.569 1.244 1.244 1.244h2.347c0.676 0 1.244-0.569 1.244-1.244v-0.533h1.387c-0.036 3.911-0.356 4.658-2.027 5.902zM25.067 10.098v2.524c0 0.178-0.213 0.32-0.462 0.32h-0.178c0-0.889 0-1.956 0-3.2h0.178c0.249 0.036 0.462 0.178 0.462 0.356zM16.071 1.244h0.213c1.884 0 5.902 0.604 6.862 5.618-1.316 0.284-2.809 0.462-5.476 0.462s-4.658-2.418-4.658-2.453c-0.107-0.107-0.249-0.178-0.391-0.213-0.142 0-0.284 0.036-0.391 0.142-1.173 1.173-2.347 2.133-3.129 2.56 0.782-5.476 5.049-6.116 6.969-6.116zM7.289 10.098c0-0.178 0.213-0.32 0.462-0.32h0.178c0 1.244 0 2.311 0 3.2h-0.213c-0.249 0-0.462-0.142-0.462-0.32v-2.56zM18.169 17.138c-0.284 0.284-0.604 0.498-0.96 0.676-0.747 0.32-1.636 0.32-2.382 0-0.356-0.142-0.711-0.391-0.96-0.676-0.213-0.213-0.533-0.213-0.747 0s-0.213 0.533 0 0.747c0.391 0.391 0.818 0.676 1.316 0.889s1.067 0.32 1.6 0.32c0.569 0 1.102-0.107 1.6-0.32s0.924-0.498 1.316-0.889c0.213-0.213 0.213-0.533 0-0.747s-0.569-0.213-0.782 0z"></path>
</svg>
