<!-- Generated by IcoMoon.io -->
<svg version="1.1" xmlns="http://www.w3.org/2000/svg" width="32" height="32" viewBox="0 0 32 32">
<title>schedule</title>
<path d="M9.905 4.572v3.048c0 0.421 0.341 0.762 0.762 0.762s0.762-0.341 0.762-0.762v-3.048c0-0.421-0.341-0.762-0.762-0.762s-0.762 0.341-0.762 0.762zM20.571 4.572v3.048c0 0.421 0.341 0.762 0.762 0.762s0.762-0.341 0.762-0.762v-3.048c0-0.421-0.341-0.762-0.762-0.762s-0.762 0.341-0.762 0.762zM11.368 15.139h-0.495l-3.718 6.476c-0.069 0.118-0.11 0.26-0.11 0.411s0.041 0.293 0.112 0.415l0.28 0.408h7.436c0.301-0.002 0.564-0.165 0.706-0.408l0.215-0.446-3.718-6.438-0.274-0.411zM13.714 21.333h-4.686l2.331-4.038zM24.632 15.276h-6.857c-0.4 0-0.724 0.324-0.724 0.724s0.324 0.724 0.724 0.724h6.857c0.4 0 0.724-0.324 0.724-0.724s-0.324-0.724-0.724-0.724zM24.632 21.372h-6.857c-0.4 0-0.724 0.324-0.724 0.724s0.324 0.724 0.724 0.724h6.857c0.4 0 0.724-0.324 0.724-0.724s-0.324-0.724-0.724-0.724zM24.632 18.324h-6.857c-0.4 0-0.724 0.324-0.724 0.724s0.324 0.724 0.724 0.724h6.857c0.4 0 0.724-0.324 0.724-0.724s-0.324-0.724-0.724-0.724zM24.381 5.333c-0.421 0-0.762 0.341-0.762 0.762s0.341 0.762 0.762 0.762c1.262 0 2.286 1.023 2.286 2.286v15.238c0 1.262-1.023 2.286-2.286 2.286h-16.762c-1.262 0-2.286-1.023-2.286-2.286v-12.19h19.299c0.421 0 0.762-0.341 0.762-0.762s-0.341-0.762-0.762-0.762h-19.299v-1.524c0-1.262 1.023-2.286 2.286-2.286 0.421 0 0.762-0.341 0.762-0.762s-0.341-0.762-0.762-0.762c-2.104 0-3.81 1.706-3.81 3.81v15.238c0 2.104 1.706 3.81 3.81 3.81h16.762c2.104 0 3.81-1.706 3.81-3.81v-15.238c0-2.104-1.706-3.81-3.81-3.81zM13.333 5.333c-0.421 0-0.762 0.341-0.762 0.762s0.341 0.762 0.762 0.762h5.333c0.421 0 0.762-0.341 0.762-0.762s-0.341-0.762-0.762-0.762z"></path>
</svg>
