<!-- Generated by IcoMoon.io -->
<svg version="1.1" xmlns="http://www.w3.org/2000/svg" width="32" height="32" viewBox="0 0 32 32">
<title>science-event</title>
<path d="M14.044 4.622h3.911c0.295 0 0.533-0.239 0.533-0.533s-0.239-0.533-0.533-0.533h-3.911c-0.295 0-0.533 0.239-0.533 0.533s0.239 0.533 0.533 0.533zM29.447 6.073c-0.047-0.226-0.111-0.425-0.193-0.614-0.081-0.186-0.18-0.362-0.294-0.527-0.574-0.831-1.534-1.376-2.62-1.376-0.001 0-0.003 0-0.004 0h-1.269c-0.295 0-0.533 0.239-0.533 0.533s0.239 0.533 0.533 0.533h1.269c0.15 0 0.296 0.016 0.437 0.045 0.272 0.057 0.525 0.167 0.747 0.319 0.221 0.148 0.412 0.336 0.564 0.554 0.076 0.109 0.141 0.226 0.195 0.349 0.106 0.247 0.165 0.52 0.165 0.806 0 0.004 0 0.008-0 0.012v19.299c-0 0.292-0.062 0.569-0.172 0.82-0.054 0.123-0.119 0.24-0.195 0.349-0.227 0.328-0.543 0.589-0.913 0.749-0.126 0.054-0.258 0.096-0.395 0.124-0.141 0.029-0.287 0.045-0.437 0.045h-21.024c-0.15-0-0.296-0.016-0.437-0.045-0.272-0.057-0.525-0.167-0.747-0.319-0.221-0.149-0.413-0.338-0.564-0.557-0.076-0.109-0.141-0.226-0.195-0.349-0.106-0.247-0.165-0.52-0.165-0.806 0-0.004 0-0.008 0-0.012v-15.338h21.867c0.295 0 0.533-0.239 0.533-0.533s-0.239-0.533-0.533-0.533h-21.867v-2.894c0-0.292 0.062-0.569 0.172-0.82 0.054-0.123 0.119-0.24 0.195-0.349 0.227-0.328 0.543-0.589 0.913-0.749 0.126-0.054 0.258-0.096 0.395-0.124 0.136-0.027 0.276-0.042 0.42-0.042 0.004 0 0.009 0 0.013 0h1.269c0.295 0 0.533-0.239 0.533-0.533s-0.239-0.533-0.533-0.533h-1.269c-1.088 0.003-2.048 0.548-2.624 1.38-0.114 0.164-0.213 0.339-0.294 0.524-0.165 0.38-0.257 0.799-0.257 1.24 0 0.002 0 0.005 0 0.007v19.299c0 0.443 0.093 0.865 0.26 1.247 0.081 0.186 0.18 0.362 0.294 0.527 0.574 0.831 1.534 1.376 2.62 1.376 0 0 0 0 0 0h21.028c1.088-0.003 2.048-0.548 2.624-1.38 0.114-0.164 0.213-0.339 0.294-0.524 0.165-0.38 0.257-0.799 0.257-1.24 0-0.002 0-0.005 0-0.007v-19.299c0-0.002 0-0.004 0-0.005 0-0.222-0.023-0.439-0.068-0.648zM10.407 7.947c1.147 0 2.076-0.93 2.076-2.076v-3.083c0-1.147-0.93-2.076-2.076-2.076s-2.076 0.93-2.076 2.076v3.086c0.002 1.145 0.931 2.073 2.076 2.073 0 0 0 0 0 0zM9.401 2.788c0-0.558 0.452-1.010 1.010-1.010s1.010 0.452 1.010 1.010v3.086c0 0.558-0.452 1.010-1.010 1.010s-1.010-0.452-1.010-1.010zM21.593 7.947c1.147 0 2.076-0.93 2.076-2.076v-3.083c0-1.147-0.93-2.076-2.076-2.076s-2.076 0.93-2.076 2.076v3.086c0.002 1.145 0.931 2.073 2.076 2.073 0 0 0 0 0 0zM20.583 2.788c0-0.558 0.452-1.010 1.010-1.010s1.010 0.452 1.010 1.010v3.086c0 0.558-0.452 1.010-1.010 1.010s-1.010-0.452-1.010-1.010zM15.776 21.102c0.066 0.031 0.143 0.049 0.224 0.049s0.158-0.018 0.227-0.051l7.819-3.618c0.184-0.087 0.308-0.271 0.308-0.484s-0.125-0.397-0.305-0.482l-7.825-3.621c-0.066-0.031-0.143-0.049-0.224-0.049s-0.158 0.018-0.227 0.051l-7.819 3.618c-0.184 0.087-0.308 0.271-0.308 0.484s0.125 0.397 0.305 0.482l3.264 1.512c-0.002 0.019-0.004 0.040-0.004 0.062s0.001 0.044 0.004 0.065l-0 2.739c0.014 1.866 1.525 3.375 3.391 3.385h2.788c1.88-0.002 3.404-1.526 3.406-3.406 0-0.295-0.239-0.534-0.533-0.534s-0.533 0.239-0.533 0.533c-0.002 1.291-1.048 2.338-2.339 2.34h-2.788c-1.291-0.002-2.338-1.048-2.34-2.339v-2.361zM9.447 16.996l6.553-3.033 6.553 3.033-6.553 3.033z"></path>
</svg>
