<!-- Generated by IcoMoon.io -->
<svg version="1.1" xmlns="http://www.w3.org/2000/svg" width="32" height="32" viewBox="0 0 32 32">
<title>science-journal</title>
<path d="M29.689 12.8c-0.295 0-0.533 0.239-0.533 0.533v15.392c0 0.63-0.511 1.141-1.141 1.141h-23.673c-0.63 0-1.141-0.511-1.141-1.141v-26.236h17.422v4.676c0.002 0.755 0.614 1.367 1.369 1.369h4.32v18.667c0 0.295 0.239 0.533 0.533 0.533s0.533-0.239 0.533-0.533v-19.2c-0-0.077-0.017-0.151-0.048-0.217 0.012-0.036 0.018-0.082 0.018-0.128 0-0.142-0.057-0.272-0.148-0.366l-5.547-5.547c-0.084-0.19-0.271-0.32-0.489-0.32-0.003 0-0.006 0-0.009 0h-18.488c-0.295 0-0.533 0.239-0.533 0.533v26.77c0 1.219 0.989 2.208 2.208 2.208h23.673c1.219 0 2.208-0.989 2.208-2.208v-15.392c0-0.295-0.239-0.533-0.533-0.533zM21.689 7.165v-3.879l4.181 4.181h-3.879c-0.167 0-0.302-0.135-0.302-0.302zM23.289 11.733h-17.422c-0.295 0-0.533 0.239-0.533 0.533s0.239 0.533 0.533 0.533h17.422c0.295 0 0.533-0.239 0.533-0.533s-0.239-0.533-0.533-0.533zM23.289 14.933h-6.756c-0.295 0-0.533 0.239-0.533 0.533s0.239 0.533 0.533 0.533h6.756c0.295 0 0.533-0.239 0.533-0.533s-0.239-0.533-0.533-0.533zM23.289 18.133h-6.756c-0.295 0-0.533 0.239-0.533 0.533s0.239 0.533 0.533 0.533h6.756c0.295 0 0.533-0.239 0.533-0.533s-0.239-0.533-0.533-0.533zM23.289 20.978h-6.756c-0.295 0-0.533 0.239-0.533 0.533s0.239 0.533 0.533 0.533h6.756c0.295 0 0.533-0.239 0.533-0.533s-0.239-0.533-0.533-0.533zM23.289 24.178h-6.756c-0.295 0-0.533 0.239-0.533 0.533s0.239 0.533 0.533 0.533h6.756c0.295 0 0.533-0.239 0.533-0.533s-0.239-0.533-0.533-0.533zM5.867 25.244h7.467c0.295 0 0.533-0.239 0.533-0.533s-0.239-0.533-0.533-0.533h-7.467c-0.295 0-0.533 0.239-0.533 0.533s0.239 0.533 0.533 0.533zM12.978 17.778c0.295 0 0.533-0.239 0.533-0.533v-1.71c0-0.001 0-0.001 0-0.002 0-0.263-0.106-0.501-0.277-0.674s-0.41-0.281-0.674-0.281c-0.001 0-0.001 0-0.002 0h-6.272c-0 0-0.001 0-0.001 0-0.264 0-0.502 0.107-0.674 0.281s-0.277 0.411-0.277 0.674c0 0.001 0 0.001 0 0.002v5.909c0 0.001 0 0.001 0 0.002 0 0.263 0.106 0.501 0.277 0.674s0.41 0.281 0.674 0.281c0 0 0.001 0 0.002 0h6.272c0 0 0.001 0 0.001 0 0.264 0 0.502-0.107 0.674-0.281s0.277-0.411 0.277-0.674c0-0.001 0-0.001 0-0.002v-1.355c0-0.295-0.239-0.533-0.533-0.533s-0.533 0.239-0.533 0.533v1.244h-6.044v-5.689h6.044v1.6c0 0.295 0.239 0.533 0.533 0.533z"></path>
</svg>
