<!-- Generated by IcoMoon.io -->
<svg version="1.1" xmlns="http://www.w3.org/2000/svg" width="32" height="32" viewBox="0 0 32 32">
<title>scientificgroups</title>
<path d="M19.2 0c-7.069 0-12.8 5.731-12.8 12.8s5.731 12.8 12.8 12.8c7.069 0 12.8-5.731 12.8-12.8s-5.731-12.8-12.8-12.8zM19.2 24.533c-6.48 0-11.733-5.253-11.733-11.733s5.253-11.733 11.733-11.733c6.48 0 11.733 5.253 11.733 11.733s-5.253 11.733-11.733 11.733zM9.518 24.615l-5.689 5.689c-0.277 0.275-0.658 0.445-1.079 0.445-0.845 0-1.53-0.685-1.53-1.53 0-0.424 0.172-0.807 0.451-1.084l5.689-5.689c0.097-0.097 0.157-0.231 0.157-0.379 0-0.296-0.24-0.535-0.535-0.535-0.148 0-0.282 0.060-0.379 0.157l-5.689 5.689c-0.47 0.47-0.76 1.119-0.76 1.836 0 1.435 1.163 2.598 2.598 2.598 0.718 0 1.368-0.291 1.838-0.762l5.689-5.689c0.089-0.095 0.143-0.223 0.143-0.364 0-0.295-0.239-0.533-0.533-0.533-0.141 0-0.269 0.054-0.364 0.143zM23.822 10.667c0 1.375 1.114 2.489 2.489 2.489s2.489-1.114 2.489-2.489c0-1.375-1.114-2.489-2.489-2.489s-2.489 1.114-2.489 2.489zM27.733 10.667c0 0.785-0.637 1.422-1.422 1.422s-1.422-0.637-1.422-1.422c0-0.785 0.637-1.422 1.422-1.422s1.422 0.637 1.422 1.422zM12.8 11.378c-1.375 0-2.489 1.114-2.489 2.489s1.114 2.489 2.489 2.489c1.375 0 2.489-1.114 2.489-2.489s-1.114-2.489-2.489-2.489zM12.8 15.289c-0.785 0-1.422-0.637-1.422-1.422s0.637-1.422 1.422-1.422c0.785 0 1.422 0.637 1.422 1.422s-0.637 1.422-1.422 1.422zM19.911 6.045c0-0.002 0-0.004 0-0.007 0-1.375-1.114-2.489-2.489-2.489s-2.489 1.114-2.489 2.489c0 0.678 0.271 1.293 0.712 1.742l-1.291 2.257c-0.045 0.077-0.072 0.17-0.072 0.268 0 0.298 0.241 0.539 0.539 0.539 0.199 0 0.373-0.108 0.466-0.268l1.257-2.203c0.261 0.101 0.563 0.16 0.878 0.16 1.375 0 2.489-1.114 2.489-2.489 0-0 0-0 0-0zM17.422 4.622c0.785 0 1.422 0.637 1.422 1.422s-0.637 1.422-1.422 1.422c-0.785 0-1.422-0.637-1.422-1.422s0.637-1.422 1.422-1.422zM24.135 13.437c-0.084-0.057-0.187-0.091-0.298-0.091-0.183 0-0.344 0.092-0.44 0.232l-0.485 0.713c-0.058 0.084-0.093 0.188-0.093 0.3 0 0.295 0.239 0.534 0.534 0.534 0.182 0 0.343-0.092 0.44-0.231l0.485-0.713c0.058-0.084 0.093-0.188 0.093-0.301 0-0.183-0.093-0.345-0.233-0.441zM22.684 15.57c-0.084-0.057-0.187-0.091-0.298-0.091-0.183 0-0.344 0.092-0.44 0.232l-0.801 1.175c-0.26-0.106-0.561-0.169-0.876-0.174l-0.084-0-1.212-6.862c-0.046-0.257-0.267-0.449-0.533-0.449-0.299 0-0.541 0.242-0.541 0.541 0 0.033 0.003 0.065 0.008 0.096l1.226 6.937c-0.817 0.42-1.366 1.256-1.366 2.221 0 1.375 1.114 2.489 2.489 2.489s2.489-1.114 2.489-2.489c0-0.673-0.267-1.283-0.701-1.731l0.786-1.155c0.056-0.083 0.090-0.186 0.090-0.297 0-0.184-0.093-0.346-0.234-0.442zM20.267 20.622c-0.785 0-1.422-0.637-1.422-1.422s0.637-1.422 1.422-1.422c0.785 0 1.422 0.637 1.422 1.422s-0.637 1.422-1.422 1.422z"></path>
</svg>
