<!-- Generated by IcoMoon.io -->
<svg version="1.1" xmlns="http://www.w3.org/2000/svg" width="32" height="32" viewBox="0 0 32 32">
<title>science</title>
<path d="M5.333 16c0 0.421-0.341 0.762-0.762 0.762s-0.762-0.341-0.762-0.762c0-0.421 0.341-0.762 0.762-0.762s0.762 0.341 0.762 0.762zM16.762 16c0 0.421-0.341 0.762-0.762 0.762s-0.762-0.341-0.762-0.762c0-0.421 0.341-0.762 0.762-0.762s0.762 0.341 0.762 0.762zM7.619 19.276v-6.552c0-0.421-0.341-0.762-0.762-0.762s-0.762 0.341-0.762 0.762v6.552c0 0.421 0.341 0.762 0.762 0.762s0.762-0.341 0.762-0.762zM12.19 12.724v6.552c0 0.421 0.341 0.762 0.762 0.762s0.762-0.341 0.762-0.762v-6.552c0-0.421-0.341-0.762-0.762-0.762s-0.762 0.341-0.762 0.762zM9.143 9.524v12.952c0 0.421 0.341 0.762 0.762 0.762s0.762-0.341 0.762-0.762v-12.952c0-0.421-0.341-0.762-0.762-0.762s-0.762 0.341-0.762 0.762zM28.19 16c0 0.421-0.341 0.762-0.762 0.762s-0.762-0.341-0.762-0.762c0-0.421 0.341-0.762 0.762-0.762s0.762 0.341 0.762 0.762zM18.286 12.724v6.552c0 0.421 0.341 0.762 0.762 0.762s0.762-0.341 0.762-0.762v-6.552c0-0.421-0.341-0.762-0.762-0.762s-0.762 0.341-0.762 0.762zM25.143 11.962c-0.421 0-0.762 0.341-0.762 0.762v6.552c0 0.421 0.341 0.762 0.762 0.762s0.762-0.341 0.762-0.762v-6.552c0-0.421-0.341-0.762-0.762-0.762zM21.333 9.524v12.952c0 0.421 0.341 0.762 0.762 0.762s0.762-0.341 0.762-0.762v-12.952c0-0.421-0.341-0.762-0.762-0.762s-0.762 0.341-0.762 0.762z"></path>
</svg>
