<!-- Generated by IcoMoon.io -->
<svg version="1.1" xmlns="http://www.w3.org/2000/svg" width="32" height="32" viewBox="0 0 32 32">
<title>search</title>
<path d="M12.19 20.572c0.001 0 0.002 0 0.003 0 4.629 0 8.381-3.752 8.381-8.381 0-2.311-0.936-4.404-2.449-5.92-0.305-0.305-0.634-0.588-0.982-0.844-1.387-1.016-3.098-1.617-4.949-1.617-4.629 0-8.381 3.752-8.381 8.381 0 4.627 3.75 8.379 8.377 8.381zM12.19 5.333c0.005 0 0.010-0 0.016-0 1.51 0 2.905 0.492 4.033 1.324 0.285 0.212 0.554 0.444 0.804 0.695s0.479 0.523 0.687 0.811c0.822 1.131 1.307 2.523 1.307 4.028 0 3.787-3.070 6.857-6.857 6.857s-6.857-3.070-6.857-6.857c0-3.787 3.070-6.857 6.857-6.857 0.003 0 0.007 0 0.010 0zM23.39 25.958l-4.571-4.328c-0.133-0.236-0.381-0.393-0.666-0.393-0.421 0-0.762 0.341-0.762 0.762 0 0.297 0.17 0.555 0.418 0.68l4.538 4.322c0.572 0.569 1.361 0.921 2.232 0.921 1.748 0 3.165-1.417 3.165-3.165 0-0.877-0.357-1.67-0.933-2.244l-4.648-4.434c-0.099-0.050-0.216-0.080-0.339-0.080-0.421 0-0.762 0.341-0.762 0.762 0 0.136 0.035 0.263 0.097 0.373l4.63 4.423c0.308 0.31 0.498 0.736 0.498 1.208s-0.19 0.898-0.498 1.208c-0.311 0.291-0.73 0.471-1.192 0.471-0.469 0-0.895-0.185-1.209-0.486zM11.429 8.328c0.005-0 0.012-0 0.018-0 1.016 0 1.955 0.332 2.714 0.893 0.385 0.285 0.725 0.627 1.007 1.014 0.15 0.191 0.366 0.304 0.608 0.304 0.421 0 0.762-0.341 0.762-0.762 0-0.157-0.047-0.302-0.128-0.423-0.387-0.527-0.84-0.98-1.352-1.357-1.014-0.75-2.267-1.193-3.623-1.193-0.002 0-0.004 0-0.006 0-0.42 0-0.762 0.341-0.762 0.762s0.341 0.762 0.762 0.762z"></path>
</svg>
