<!-- Generated by IcoMoon.io -->
<svg version="1.1" xmlns="http://www.w3.org/2000/svg" width="32" height="32" viewBox="0 0 32 32">
<title>specialist</title>
<path d="M17.604 25.671l-2.315-1.262c-0.073-0.040-0.16-0.064-0.253-0.064-0.295 0-0.533 0.239-0.533 0.533 0 0.004 0 0.007 0 0.011l0.032 4.227-1.301 1.301-2.489-4.491 0.942-0.942c0.096-0.096 0.156-0.23 0.156-0.377s-0.060-0.28-0.156-0.377l-3.911-3.911c-0.098-0.093-0.231-0.15-0.377-0.15s-0.279 0.057-0.377 0.151l-0.942 0.921-4.491-2.489 1.301-1.301 4.22 0.046c0.003 0 0.006 0 0.009 0 0.192 0 0.361-0.103 0.452-0.257 0.046-0.078 0.072-0.17 0.072-0.267s-0.026-0.189-0.072-0.267l-3.928-7.219 1.156-1.156 4.373 0.036c0.001 0 0.002 0 0.004 0 0.295 0 0.533-0.239 0.533-0.533 0-0.004-0-0.008-0-0.011v0.001l2.844-2.844c0.093-0.087 0.218-0.141 0.356-0.141s0.263 0.054 0.356 0.141c0.089 0.091 0.145 0.217 0.145 0.355s-0.055 0.264-0.145 0.356l-1.963 1.963c-0.105 0.098-0.17 0.236-0.17 0.39 0 0.295 0.239 0.533 0.533 0.533 0.154 0 0.293-0.065 0.39-0.169l1.963-1.963c0.312-0.289 0.507-0.7 0.507-1.157 0-0.87-0.705-1.575-1.575-1.575-0.457 0-0.869 0.195-1.156 0.506l-3.066 3.066-4.156-0.032c-0.002-0-0.005-0-0.007-0-0.146 0-0.278 0.060-0.373 0.156l-1.586 1.607c-0.097 0.097-0.157 0.23-0.157 0.378 0 0.093 0.024 0.181 0.066 0.258l3.707 6.774-3.556-0.028c-0.148 0.002-0.282 0.061-0.381 0.157l-1.952 1.963c-0.096 0.096-0.155 0.229-0.155 0.376 0 0.2 0.11 0.374 0.273 0.466l5.464 3.013c0.074 0.042 0.163 0.066 0.257 0.066 0.147 0 0.279-0.059 0.376-0.155l0.85-0.85 3.172 3.172-0.85 0.85c-0.096 0.096-0.155 0.229-0.155 0.376 0 0.094 0.024 0.183 0.067 0.26l3.007 5.459c0.080 0.144 0.222 0.245 0.388 0.27l0.078 0c0.147-0 0.28-0.060 0.377-0.156l1.963-1.963c0.097-0.097 0.156-0.23 0.156-0.377 0-0.001 0-0.002 0-0.003l-0.028-3.555 1.518 0.828c0.070 0.036 0.153 0.057 0.241 0.057 0.295 0 0.533-0.239 0.533-0.533 0-0.195-0.104-0.365-0.26-0.458zM26.78 17.628c-0.001 0-0.002 0-0.003 0-0.434 0-0.827 0.177-1.11 0.462l-0.996 0.996-0.028-3.556 2.784-2.784c0.092-0.091 0.15-0.216 0.156-0.354l0.206-3.503 0.459-0.459c0.013-0.018 0.026-0.037 0.038-0.058 2.647-2.833 4.471-6.264 3.038-7.697-1.5-1.5-5.195 0.572-8.082 3.403l-0.032 0.028-0.103 0.103-3.506 0.206c-0.139 0.006-0.264 0.065-0.356 0.156l-2.944 2.944c-0.096 0.097-0.155 0.23-0.155 0.377 0 0.296 0.24 0.537 0.537 0.537 0.15 0 0.285-0.061 0.382-0.16l2.802-2.802 2.108-0.135-12.622 12.622c-0.105 0.098-0.17 0.236-0.17 0.39 0 0.295 0.239 0.533 0.533 0.533 0.154 0 0.293-0.065 0.39-0.169l13.842-13.828c3.15-3.104 5.977-4.1 6.628-3.46s-0.356 3.47-3.438 6.606l-13.444 13.444c-0.105 0.098-0.17 0.236-0.17 0.39 0 0.295 0.239 0.533 0.533 0.533 0.154 0 0.293-0.065 0.39-0.169l12.217-12.203-0.124 2.105-2.812 2.805c-0.097 0.097-0.156 0.23-0.156 0.377 0 0.001 0 0.002 0 0.003l0.039 4.878c-0.039 0.072-0.063 0.158-0.063 0.249 0 0.144 0.058 0.275 0.152 0.37l0.025-0c0.097 0.127 0.249 0.209 0.419 0.21h0c0.259-0.003 0.474-0.191 0.519-0.438l1.757-1.738c0.093-0.087 0.218-0.141 0.356-0.141s0.263 0.054 0.356 0.141c0.089 0.091 0.145 0.217 0.145 0.355s-0.055 0.264-0.145 0.356l-3.2 3.2s0 0.021-0.021 0.032c-0.174 0.089-0.292 0.267-0.292 0.473 0 0.001 0 0.002 0 0.003l0.032 3.943-1.156 1.156-1.778-0.978c-0.070-0.036-0.153-0.057-0.241-0.057-0.295 0-0.533 0.239-0.533 0.533 0 0.195 0.104 0.365 0.26 0.458l2.136 1.171c0.074 0.041 0.161 0.065 0.255 0.065 0.148 0 0.282-0.060 0.378-0.157l1.593-1.593c0.097-0.097 0.156-0.23 0.156-0.377 0-0.001 0-0.002 0-0.003l-0.032-3.911 3.2-3.2c0.285-0.285 0.46-0.678 0.46-1.113 0-0.869-0.704-1.574-1.573-1.575z"></path>
</svg>
