<!-- Generated by IcoMoon.io -->
<svg version="1.1" xmlns="http://www.w3.org/2000/svg" width="32" height="32" viewBox="0 0 32 32">
<title>sport</title>
<path d="M27.040 10.819c-0.122-0.268-0.387-0.451-0.696-0.451-0.421 0-0.762 0.341-0.762 0.762 0 0.123 0.029 0.238 0.080 0.341 0.515 1.075 0.861 2.33 0.963 3.655-2.855 0.194-5.421 1.322-7.4 3.094l-2.175-2.22 7.010-7.010c0.274-0.275 0.443-0.655 0.443-1.074 0-0.019-0-0.038-0.001-0.056-0.014-0.447-0.22-0.845-0.539-1.115-2.131-1.862-4.935-2.996-8.004-2.996-6.733 0-12.19 5.458-12.19 12.19 0 1.872 0.422 3.646 1.176 5.232 0.081 0.215 0.357 0.415 0.68 0.415 0.421 0 0.762-0.341 0.762-0.762 0-0.135-0.035-0.261-0.096-0.371-0.473-1.003-0.8-2.174-0.917-3.405 2.904-0.186 5.518-1.338 7.519-3.152l2.055 2.104-7.010 7.010c-0.274 0.275-0.443 0.655-0.443 1.074 0 0.019 0 0.038 0.001 0.056 0.019 0.446 0.224 0.843 0.539 1.116 2.129 1.856 4.929 2.986 7.993 2.986 6.733 0 12.19-5.458 12.19-12.19 0-1.901-0.435-3.701-1.212-5.305zM5.333 15.512c0.24-5.475 4.597-9.858 10.039-10.14-0.001 0.702-0.091 1.369-0.24 2.014-0.403 1.672-1.198 3.191-2.284 4.452l-2.274-2.3c-0.103-0.055-0.224-0.087-0.354-0.087-0.421 0-0.762 0.341-0.762 0.762 0 0.129 0.032 0.251 0.089 0.358l2.284 2.282c-1.73 1.545-3.988 2.531-6.474 2.658zM13.912 12.907c1.272-1.443 2.211-3.21 2.68-5.159 0.18-0.757 0.289-1.541 0.321-2.345 2.331 0.177 4.414 1.103 6.056 2.525l-6.97 7.021zM16 17.052l2.179 2.179c-1.76 1.963-2.888 4.524-3.046 7.344-2.37-0.152-4.49-1.087-6.155-2.532zM23.543 23.543c-1.777 1.756-4.171 2.889-6.828 3.046 0.125-2.433 1.083-4.619 2.579-6.319l2.123 2.145c0.13 0.244 0.383 0.408 0.675 0.408 0.421 0 0.762-0.341 0.762-0.762 0-0.291-0.164-0.545-0.404-0.673l-2.137-2.135c1.702-1.486 3.906-2.438 6.327-2.574-0.155 2.696-1.314 5.092-3.096 6.863z"></path>
</svg>
