<!-- Generated by IcoMoon.io -->
<svg version="1.1" xmlns="http://www.w3.org/2000/svg" width="32" height="32" viewBox="0 0 32 32">
<title>start</title>
<path d="M31.040 1.113v-0.025c-0.031-0.034-0.066-0.063-0.105-0.088l-0.002-0.001h-0.021c-0.041-0.030-0.088-0.056-0.139-0.074l-0.004-0.001c-0.048-0.016-0.103-0.025-0.16-0.025h-0.032c-0.057 0.003-0.11 0.014-0.16 0.033l0.004-0.001-29.742 11.481c-0.201 0.079-0.341 0.272-0.341 0.498 0 0.147 0.060 0.281 0.156 0.377l6.549 6.546-0.085 4.7c-0 0.002-0 0.004-0 0.006 0 0.18 0.089 0.338 0.226 0.434l0.002 0.001c0.093 0.144 0.253 0.238 0.435 0.238 0.006 0 0.012-0 0.018-0l-0.001 0 4.686-0.085 6.546 6.517c0.096 0.097 0.23 0.156 0.377 0.156h0c0.017 0.002 0.036 0.003 0.055 0.003s0.039-0.001 0.057-0.003l-0.002 0c0.179-0.039 0.322-0.163 0.386-0.327l0.001-0.004 11.492-29.728c0.022-0.056 0.035-0.122 0.035-0.19 0-0.181-0.091-0.342-0.229-0.438l-0.002-0.001zM8.11 19.879l15.644-12.37-15.705 15.708zM1.828 13.124l25.678-9.924-19.883 15.705zM19.044 30.325l-5.796-5.792 0.843-1.067c0.081-0.093 0.13-0.215 0.13-0.349 0-0.295-0.239-0.533-0.533-0.533-0.177 0-0.335 0.087-0.431 0.22l-0.001 0.002-0.981 1.241-3.612 0.068 16.996-17.003-10.126 12.8c-0.081 0.093-0.131 0.216-0.131 0.35 0 0.295 0.239 0.533 0.533 0.533 0.171 0 0.324-0.081 0.421-0.206l0.001-0.001 12.615-15.94z"></path>
</svg>
