<!-- Generated by IcoMoon.io -->
<svg version="1.1" xmlns="http://www.w3.org/2000/svg" width="32" height="32" viewBox="0 0 32 32">
<title>star</title>
<path d="M7.68 18.686h-0.233l-6.633-1.648c-0.473-0.116-0.819-0.536-0.819-1.038s0.346-0.922 0.812-1.036l10.238-2.503c0.705-0.176 1.25-0.72 1.423-1.412l2.495-10.234c0.116-0.473 0.536-0.819 1.038-0.819s0.922 0.346 1.036 0.812l2.911 11.944c0.009 0.051 0.015 0.109 0.015 0.169 0 0.536-0.434 0.97-0.97 0.97-0.433 0-0.8-0.284-0.924-0.676l-1.893-7.764c-0.026-0.078-0.099-0.133-0.184-0.133s-0.158 0.055-0.184 0.132l-1.746 7.197c-0.177 0.699-0.717 1.238-1.402 1.413l-7.926 1.942 3.171 0.776c0.487 0.060 0.86 0.471 0.86 0.97 0 0.539-0.437 0.977-0.977 0.977-0.041 0-0.081-0.003-0.121-0.007zM16 32c-0 0-0.001 0-0.001 0-0.5 0-0.919-0.343-1.035-0.807l-2.911-11.944c-0.027-0.086-0.043-0.184-0.043-0.287 0-0.536 0.434-0.97 0.97-0.97 0.476 0 0.871 0.343 0.954 0.795l1.892 7.764c0.026 0.078 0.099 0.133 0.184 0.133s0.158-0.055 0.184-0.132l1.746-7.197c0.177-0.699 0.717-1.238 1.402-1.413l7.916-1.942-3.006-0.737c-0.424-0.11-0.733-0.489-0.733-0.941 0-0.536 0.434-0.97 0.97-0.97 0.084 0 0.166 0.011 0.244 0.031l6.461 1.579c0.473 0.116 0.819 0.536 0.819 1.038s-0.346 0.922-0.812 1.036l-10.238 2.503c-0.705 0.176-1.25 0.72-1.423 1.412l-2.505 10.234c-0.117 0.471-0.537 0.815-1.036 0.815-0 0-0.001 0-0.001 0zM30.72 16.844v0z"></path>
</svg>
