<!-- Generated by IcoMoon.io -->
<svg version="1.1" xmlns="http://www.w3.org/2000/svg" width="32" height="32" viewBox="0 0 32 32">
<title>study</title>
<path d="M5.478 23.467h0.373c3.363 0.094 6.445 1.223 8.958 3.078 0.256 0.194 0.629 0.337 1.034 0.358 0.027 0.002 0.052 0.003 0.077 0.003s0.051-0.001 0.076-0.003c0.018 0.002 0.044 0.003 0.069 0.003s0.051-0.001 0.076-0.003c0.406-0.021 0.779-0.164 1.084-0.392 2.465-1.821 5.546-2.95 8.887-3.043l0.395-0c0.013 0.001 0.029 0.001 0.045 0.001 0.488 0 0.884-0.396 0.884-0.884 0-0.038-0.002-0.075-0.007-0.112l0-17.207c-0.019-0.406-0.353-0.728-0.762-0.728-0.421 0-0.763 0.341-0.763 0.763 0 0.012 0 0.024 0.001 0.036l-0 11.678v4.922c-3.434 0.144-6.58 1.263-9.2 3.085l0.057-14.78c0-0.013 0-0.029 0-0.045 0-0.654-0.295-1.238-0.759-1.628-0.062-0.068-0.121-0.127-0.184-0.184-2.512-2.115-5.695-3.503-9.189-3.807l-0.138-0.004c-1.92 0-1.92 1.196-1.92 2.24v15.665c-0.004 0.032-0.007 0.069-0.007 0.107 0 0.488 0.396 0.884 0.884 0.884 0.010 0 0.021-0 0.031-0.001zM6.095 6.095h0.442c3.204 0.306 6.066 1.568 8.35 3.493 0.174 0.15 0.31 0.386 0.35 0.653l0.001 14.741c-2.36-1.646-5.218-2.742-8.309-3.042l-0.834-0.006zM18.773 17.219c0.039 0.006 0.084 0.009 0.13 0.009s0.091-0.003 0.135-0.010c0.314-0 0.594-0.166 0.755-0.415l1.671-2.594 1.394 1.364c0.161 0.145 0.375 0.233 0.61 0.233 0.493 0 0.895-0.391 0.914-0.879l0-9.251c0-0.001 0-0.003 0-0.004 0-0.505-0.409-0.914-0.914-0.914-0.078 0-0.155 0.010-0.227 0.028-1.813 0.554-3.399 1.332-4.828 2.322-0.154 0.101-0.291 0.336-0.291 0.603 0 0.421 0.342 0.763 0.763 0.763 0.154 0 0.298-0.046 0.418-0.125 1.021-0.698 2.194-1.322 3.433-1.814l0.123 6.944-1.661-1.623-1.524 2.415v-3.284c0-0.421-0.341-0.762-0.762-0.762s-0.762 0.341-0.762 0.762v5.333c-0 0.011-0.001 0.024-0.001 0.037 0 0.4 0.259 0.74 0.619 0.86zM8.13 9.836c1.708 0.493 3.2 1.209 4.54 2.13 0.046 0.016 0.163 0.046 0.287 0.046 0.421 0 0.762-0.341 0.762-0.762 0-0.233-0.105-0.442-0.27-0.582-1.432-0.982-3.093-1.765-4.875-2.259-0.167-0.039-0.225-0.046-0.285-0.046-0.431 0-0.78 0.349-0.78 0.78 0 0.371 0.26 0.682 0.607 0.761zM8.13 12.952c1.708 0.493 3.2 1.209 4.54 2.13 0.064 0.043 0.208 0.089 0.362 0.089 0.421 0 0.763-0.342 0.763-0.763 0-0.267-0.137-0.502-0.345-0.638-1.434-0.983-3.095-1.766-4.876-2.26-0.167-0.039-0.225-0.046-0.285-0.046-0.431 0-0.78 0.349-0.78 0.78 0 0.371 0.26 0.682 0.607 0.761zM8.13 16.061c1.708 0.494 3.2 1.21 4.541 2.13 0.064 0.043 0.208 0.089 0.362 0.089 0.421 0 0.763-0.342 0.763-0.763 0-0.267-0.137-0.502-0.345-0.638-1.434-0.982-3.095-1.765-4.876-2.26-0.168-0.039-0.225-0.046-0.285-0.046-0.431 0-0.78 0.349-0.78 0.78 0 0.371 0.26 0.682 0.607 0.761z"></path>
</svg>
