<!-- Generated by IcoMoon.io -->
<svg version="1.1" xmlns="http://www.w3.org/2000/svg" width="32" height="32" viewBox="0 0 32 32">
<title>target-partners</title>
<path d="M16.899 23.726c-0.029 0.004-0.062 0.006-0.095 0.006-0.424 0-0.768-0.344-0.768-0.768 0-0.39 0.291-0.713 0.669-0.762 0.293-0.075 0.547-0.185 0.778-0.327l4.712-3.3-3.81-4.229c-1.371 1.227-2.636 1.851-3.81 1.851-1.349 0-2.118-1.166-2.583-2.042-0.040-0.089-0.063-0.193-0.063-0.302 0-0.228 0.101-0.433 0.26-0.573l3.049-3.048c-0.12-0.099-0.258-0.181-0.409-0.24-0.212-0.070-0.443-0.108-0.684-0.108-0.106 0-0.211 0.007-0.314 0.022l-0.285-0.001c-1.487 0.057-2.888 0.354-4.189 0.853-0.429 0.13-0.977 0.305-1.602 0.48-0.063 0.019-0.136 0.030-0.211 0.030-0.132 0-0.256-0.034-0.365-0.093l-1.847-0.973v6.141c0.35 0.19 0.762 0.48 1.326 0.846 0.732-0.698 1.725-1.127 2.819-1.128 0.163 0 0.313 0.052 0.437 0.139l5.445 3.808c0.199 0.139 0.327 0.368 0.327 0.626 0 0.076-0.011 0.149-0.032 0.218-0.387 1.305-1.522 2.722-3.183 2.722-0.030 0.001-0.066 0.002-0.101 0.002-0.748 0-1.435-0.259-1.977-0.692l-4.641-3.264c-0.196-0.14-0.323-0.366-0.323-0.623 0-0.135 0.035-0.262 0.097-0.371l0.15-0.248c-0.396-0.301-0.842-0.584-1.312-0.829-0.345-0.133-0.551-0.409-0.555-0.733v-7.901c0-0.001 0-0.001 0-0.002 0-0.421 0.341-0.762 0.762-0.762 0.134 0 0.26 0.035 0.37 0.095l2.678 1.484 1.356-0.411c1.353-0.518 2.917-0.84 4.549-0.891l0.235-0.001c0.102-0.010 0.22-0.016 0.34-0.016 0.424 0 0.831 0.073 1.21 0.207 0.358 0.143 0.686 0.351 0.967 0.611 0.639-0.478 1.446-0.765 2.32-0.765 0.030 0 0.060 0 0.090 0.001 1.699 0.111 3.287 0.468 4.77 1.035l0.856 0.267 2.72-1.486c0.113-0.070 0.25-0.111 0.396-0.111 0.414 0 0.751 0.331 0.762 0.743l0 7.902c-0.001 0.307-0.183 0.571-0.445 0.691-0.401 0.177-0.561 0.238-0.767 0.322l-0.541 0.213c-0.086 0.036-0.185 0.057-0.29 0.057-0.421 0-0.762-0.341-0.762-0.762 0-0.316 0.193-0.588 0.467-0.703l0.584-0.23 0.244-0.091v-6.095l-1.874 1.021c-0.105 0.058-0.23 0.092-0.363 0.092-0.077 0-0.151-0.011-0.221-0.033l-1.297-0.402c-1.234-0.479-2.664-0.81-4.153-0.926-0.815-0.003-1.499 0.329-1.97 0.855l-0.002 0.002-0.206 0.221-2.88 2.895c0.495 0.762 0.83 0.762 0.952 0.762 0.853 0 2.011-0.693 3.276-1.958 0.139-0.146 0.335-0.237 0.552-0.237s0.413 0.091 0.552 0.237l4.937 5.486c0.050 0.063 0.092 0.136 0.12 0.216 0.014 0.056 0.020 0.113 0.020 0.173s-0.007 0.117-0.020 0.173c-0.014 0.115-0.054 0.224-0.115 0.318l0.002-0.003c-0.046 0.074-0.102 0.137-0.166 0.189l-0.047 0.001-5.44 3.81c-0.361 0.231-0.78 0.414-1.227 0.527-0.082 0.040-0.143 0.069-0.207 0.089zM7.223 18.796l4.038 2.85c0.293 0.253 0.677 0.407 1.097 0.407 0.035 0 0.069-0.001 0.104-0.003 0.684-0.083 1.252-0.525 1.514-1.13l-4.742-3.334c-0.766 0.075-1.429 0.462-1.87 1.030l-0.066 0.075z"></path>
</svg>
