<!-- Generated by IcoMoon.io -->
<svg version="1.1" xmlns="http://www.w3.org/2000/svg" width="32" height="32" viewBox="0 0 32 32">
<title>target-vips</title>
<path d="M8.381 17.524c-0.421 0-0.762 0.341-0.762 0.762v3.048c0 2.56 3.68 4.571 8.381 4.571s8.381-2.011 8.381-4.571v-3.048c0-0.421-0.341-0.762-0.762-0.762s-0.762 0.341-0.762 0.762v3.048c0 1.44-2.819 3.048-6.857 3.048s-6.857-1.608-6.857-3.048v-3.048c0-0.421-0.341-0.762-0.762-0.762zM26.872 11.916l-10.491-5.242-0.381-0.175-10.872 5.417c-0.291 0.136-0.489 0.426-0.489 0.762s0.198 0.626 0.484 0.76l10.497 5.221 0.411 0.175 3.048-1.524c0.264-0.123 0.444-0.387 0.444-0.692 0-0.421-0.341-0.762-0.762-0.762-0.132 0-0.256 0.034-0.364 0.092l-2.396 1.202-8.96-4.48 8.96-4.488 8.96 4.48-2.819 1.41c-0.247 0.132-0.412 0.387-0.412 0.682 0 0.425 0.345 0.77 0.77 0.77 0.131 0 0.254-0.033 0.362-0.090l4.042-2.025c0.291-0.136 0.489-0.426 0.489-0.762s-0.198-0.626-0.484-0.76z"></path>
</svg>
