<!-- Generated by IcoMoon.io -->
<svg version="1.1" xmlns="http://www.w3.org/2000/svg" width="32" height="32" viewBox="0 0 32 32">
<title>target-abits</title>
<path d="M24.495 6.857l-4.122-2.91c-0.122-0.087-0.274-0.138-0.438-0.138-0.421 0-0.763 0.342-0.763 0.763 0 0.257 0.127 0.485 0.323 0.623l4.124 2.882v18.59h-15.238v-21.333h7.619v3.749c0.004 0.873 0.711 1.58 1.584 1.585h3.749c0.421 0 0.762-0.341 0.762-0.762s-0.341-0.762-0.762-0.762h-3.749c-0.034 0-0.061-0.027-0.061-0.061v-3.749c0-0.842-0.682-1.524-1.524-1.524h-7.619c-0.842 0-1.524 0.682-1.524 1.524v21.333c0 0.842 0.682 1.524 1.524 1.524h15.238c0.842 0 1.524-0.682 1.524-1.524v-18.59c-0.009-0.503-0.261-0.945-0.643-1.216zM20.48 19.048c-0.002 2.523-2.048 4.567-4.571 4.567-2.525 0-4.571-2.047-4.571-4.571s2.047-4.571 4.571-4.571c0.507 0 0.994 0.082 1.449 0.235 0.030 0.009 0.102 0.020 0.177 0.020 0.421 0 0.762-0.341 0.762-0.762 0-0.326-0.205-0.605-0.493-0.713-0.569-0.192-1.219-0.302-1.895-0.302-3.366 0-6.095 2.729-6.095 6.095s2.729 6.095 6.095 6.095c3.365 0 6.093-2.727 6.095-6.092 0-0.421-0.341-0.762-0.762-0.762s-0.762 0.341-0.762 0.762zM21.775 13.935c-0.138-0.137-0.328-0.222-0.537-0.222s-0.399 0.085-0.537 0.222l-5.539 5.539-1.524-1.524c-0.132-0.114-0.306-0.183-0.496-0.183-0.421 0-0.762 0.341-0.762 0.762 0 0.19 0.069 0.363 0.184 0.497l2.041 2.041c0.152 0.153 0.362 0.247 0.594 0.247s0.442-0.094 0.594-0.247l6.027-6.027c0.133-0.137 0.215-0.324 0.215-0.531 0-0.229-0.101-0.434-0.26-0.573z"></path>
</svg>
