<!-- Generated by IcoMoon.io -->
<svg version="1.1" xmlns="http://www.w3.org/2000/svg" width="32" height="32" viewBox="0 0 32 32">
<title>target-studs</title>
<path d="M16 13.6c-2.689 0-4.869-2.18-4.869-4.869s2.18-4.869 4.869-4.869c2.689 0 4.869 2.18 4.869 4.869 0 0.002 0 0.005 0 0.008 0 2.685-2.176 4.861-4.861 4.861-0.003 0-0.005 0-0.008 0zM16 5.387c-1.847 0-3.345 1.498-3.345 3.345s1.498 3.345 3.345 3.345c1.847 0 3.345-1.498 3.345-3.345-0.004-1.846-1.499-3.34-3.344-3.345zM21.288 18.697c-0.136-0.128-0.32-0.206-0.522-0.206-0.086 0-0.169 0.014-0.246 0.040l-4.513 1.522-4.518-1.539c-0.073-0.026-0.158-0.041-0.246-0.041-0.421 0-0.762 0.341-0.762 0.762 0 0.069 0.009 0.135 0.026 0.198l1.683 6.341c0.057 0.201 0.188 0.365 0.362 0.463l3.051 1.732 0.122 0.046h0.061c0.058 0.016 0.125 0.025 0.194 0.025s0.136-0.009 0.2-0.026l0.056 0.001 0.122-0.046 3.048-1.73c0.178-0.1 0.309-0.264 0.364-0.459l1.693-6.329c0.022-0.068 0.035-0.147 0.035-0.229 0-0.204-0.080-0.389-0.211-0.526zM12.335 20.434l2.903 0.99v4.571l-1.661-0.937zM18.43 25.074l-1.669 0.937v-4.571l2.903-0.99zM27.154 23.962h-4.404c-0.005 0-0.011 0-0.017 0-0.421 0-0.762-0.341-0.762-0.762 0-0.057 0.006-0.112 0.018-0.165l0.38-1.801c0.075-0.357 0.388-0.622 0.762-0.622 0.43 0 0.778 0.348 0.778 0.778 0 0.055-0.006 0.109-0.017 0.161l-0.182 0.879h2.667c-0.526-4.571-5.806-6.187-10.354-6.187s-9.844 1.646-10.377 6.194h2.667l-0.183-0.884c-0.010-0.047-0.016-0.101-0.016-0.156 0-0.43 0.348-0.778 0.778-0.778 0.374 0 0.687 0.264 0.761 0.616l0.382 1.811c0.011 0.048 0.017 0.103 0.017 0.16 0 0.421-0.341 0.762-0.762 0.762-0.006 0-0.012-0-0.018-0l-4.426 0c-0.421 0-0.762-0.341-0.762-0.762 0-5.143 4.67-8.465 11.901-8.472v0c7.238 0 11.916 3.322 11.916 8.472-0.004 0.412-0.335 0.746-0.746 0.754z"></path>
</svg>
