<!-- Generated by IcoMoon.io -->
<svg version="1.1" xmlns="http://www.w3.org/2000/svg" width="32" height="32" viewBox="0 0 32 32">
<title>target-employee</title>
<path d="M20.571 9.905c0-2.525-2.047-4.571-4.571-4.571s-4.571 2.047-4.571 4.571c0 2.525 2.047 4.571 4.571 4.571s4.571-2.047 4.571-4.571zM12.952 9.905c0-1.683 1.364-3.048 3.048-3.048s3.048 1.364 3.048 3.048c0 1.683-1.364 3.048-3.048 3.048s-3.048-1.364-3.048-3.048zM7.718 18.819c0.134 0.23 0.379 0.381 0.66 0.381 0.138 0 0.268-0.037 0.38-0.101 1.841-1.067 4.040-1.732 6.387-1.818l-1.796 6.095c-0.019 0.067-0.030 0.143-0.030 0.222 0 0.231 0.093 0.441 0.243 0.593l1.836 1.844c0.15 0.146 0.354 0.236 0.58 0.236 0.002 0 0.005 0 0.007-0 0.231-0.001 0.441-0.094 0.594-0.244l1.844-1.844c0.152-0.153 0.246-0.364 0.246-0.597 0-0.083-0.012-0.164-0.035-0.24l-1.797-6.028c2.385 0.188 4.558 0.952 6.425 2.151 0.060 0.041 0.201 0.085 0.352 0.085 0.421 0 0.762-0.341 0.762-0.762 0-0.27-0.14-0.507-0.351-0.642-2.358-1.506-5.229-2.399-8.309-2.399-2.829 0-5.482 0.754-7.77 2.071-0.164 0.092-0.323 0.342-0.323 0.63 0 0.134 0.035 0.261 0.096 0.37zM16 24.472l-1.067-1.067 1.067-3.596 1.067 3.566z"></path>
</svg>
