<!-- Generated by IcoMoon.io -->
<svg version="1.1" xmlns="http://www.w3.org/2000/svg" width="32" height="32" viewBox="0 0 32 32">
<title>target-schools</title>
<path d="M8.381 22.956c-0.421 0-0.762 0.341-0.762 0.762v2.949c0 0.842 0.682 1.524 1.524 1.524h13.714c0.842 0 1.524-0.682 1.524-1.524v-12.952c0-2.946-2.388-5.333-5.333-5.333h-5.333v-1.524c0.037-0.428 0.393-0.762 0.828-0.762 0.001 0 0.002 0 0.003 0h3.093c0.001 0 0.002 0 0.003 0 0.436 0 0.794 0.333 0.834 0.759 0 0.424 0.341 0.765 0.762 0.765s0.762-0.341 0.762-0.762c-0.042-1.269-1.079-2.282-2.354-2.286h-3.101c-1.275 0.004-2.312 1.017-2.354 2.282l-0 1.528c-2.6 0.386-4.572 2.602-4.572 5.279 0 0.019 0 0.038 0 0.058l-0 4.614c0 0.421 0.341 0.762 0.762 0.762s0.762-0.341 0.762-0.762v-4.617c0-2.104 1.706-3.81 3.81-3.81h6.095c2.104 0 3.81 1.706 3.81 3.81v12.952h-13.714v-2.949c0-0.421-0.341-0.762-0.762-0.762zM13.265 17.524h5.478c0.421 0 0.762 0.341 0.762 0.762s0.341 0.762 0.762 0.762c0.421 0 0.762-0.341 0.762-0.762 0-1.262-1.023-2.286-2.286-2.286h-5.478c-1.262 0-2.286 1.023-2.286 2.286v4.67c0 1.262 1.023 2.286 2.286 2.286h5.478c1.262 0 2.286-1.023 2.286-2.286 0-0.421-0.341-0.762-0.762-0.762s-0.762 0.341-0.762 0.762c0 0.421-0.341 0.762-0.762 0.762h-5.478c-0.421 0-0.762-0.341-0.762-0.762v-4.67c0-0.421 0.341-0.762 0.762-0.762z"></path>
</svg>
