<!-- Generated by IcoMoon.io -->
<svg version="1.1" xmlns="http://www.w3.org/2000/svg" width="32" height="32" viewBox="0 0 32 32">
<title>update</title>
<path d="M26.918 5.082c-1.303-1.303-4.137 0.053-6.819 1.905-1.2-0.557-2.604-0.881-4.084-0.881-5.47 0-9.905 4.434-9.905 9.905 0 1.476 0.323 2.877 0.902 4.135-1.816 2.544-3.248 5.447-1.93 6.796 0.332 0.313 0.781 0.505 1.274 0.505 0.034 0 0.068-0.001 0.102-0.003 1.473 0 3.523-1.112 5.435-2.415 1.204 0.561 2.615 0.889 4.101 0.889 5.47 0 9.905-4.434 9.905-9.905 0-1.491-0.329-2.905-0.919-4.173 1.801-2.522 3.21-5.448 1.938-6.758zM6.164 25.836c-0.229-0.236 0-1.623 1.661-4.259 0.707 1.023 1.567 1.883 2.557 2.569-2.474 1.637-3.944 1.972-4.218 1.69zM24.381 16c-0.004 4.626-3.755 8.375-8.381 8.375-0.946 0-1.855-0.157-2.703-0.445 0.821-0.539 1.469-1.080 2.040-1.56l0.51 0.51c0.082 0.081 0.196 0.131 0.321 0.131 0.21 0 0.387-0.141 0.44-0.334l0.816-3.051c0.009-0.034 0.014-0.073 0.014-0.113 0-0.252-0.205-0.457-0.457-0.457-0.040 0-0.079 0.005-0.116 0.015l-3.044 0.815c-0.196 0.055-0.337 0.231-0.337 0.441 0 0.125 0.050 0.238 0.132 0.321l0.64 0.64c-0.891 0.762-1.722 1.402-2.476 1.943-1.27-0.748-2.3-1.778-3.026-3.008 0.626-0.938 1.419-1.944 2.386-3.087 0.125-0.135 0.202-0.317 0.202-0.517 0-0.421-0.341-0.762-0.762-0.762-0.238 0-0.45 0.109-0.59 0.279-0.542 0.634-1.251 1.479-1.982 2.432-0.266-0.781-0.419-1.681-0.419-2.617 0-4.629 3.752-8.381 8.381-8.381 0.94 0 1.844 0.155 2.688 0.44-1.194 0.844-2.23 1.727-3.046 2.436l-0.655-0.655c-0.082-0.081-0.196-0.131-0.321-0.131-0.21 0-0.387 0.141-0.44 0.334l-0.816 3.051c-0.009 0.034-0.014 0.073-0.014 0.113 0 0.252 0.205 0.457 0.457 0.457 0.040 0 0.079-0.005 0.117-0.015l3.044-0.815c0.196-0.055 0.337-0.231 0.337-0.441 0-0.125-0.050-0.238-0.131-0.321l-0.427-0.442c1.265-1.112 2.438-2.050 3.49-2.811 1.255 0.752 2.272 1.781 2.988 3.008-0.695 1.038-1.578 2.15-2.668 3.392-0.105 0.13-0.169 0.296-0.169 0.478 0 0.421 0.341 0.762 0.762 0.762 0.216 0 0.411-0.090 0.549-0.234 0.526-0.595 1.379-1.6 2.286-2.774 0.242 0.745 0.382 1.603 0.382 2.493 0 0.037-0 0.074-0.001 0.11zM24.168 10.408c-0.704-1.016-1.559-1.871-2.542-2.554 2.321-1.545 3.876-2.025 4.211-1.69s-0.061 1.73-1.669 4.244z"></path>
</svg>
