<!-- Generated by IcoMoon.io -->
<svg version="1.1" xmlns="http://www.w3.org/2000/svg" width="32" height="32" viewBox="0 0 32 32">
<title>vk</title>
<path d="M23.619 12.716c-0.114-0.312-0.762-0.229-0.762-0.229h-2.286c-0.018-0.002-0.040-0.004-0.061-0.004-0.086 0-0.168 0.021-0.239 0.058-0.085 0.061-0.154 0.143-0.201 0.239-0.273 0.703-0.558 1.29-0.882 1.851-0.987 1.665-1.391 1.757-1.558 1.65-0.389-0.251-0.29-1.006-0.29-1.524 0-1.676 0.251-2.377-0.495-2.56-0.276-0.070-0.593-0.109-0.919-0.109-0.052 0-0.103 0.001-0.155 0.003-0.128-0.013-0.285-0.021-0.443-0.021-0.519 0-1.019 0.080-1.489 0.228-0.224 0.12-0.43 0.402-0.308 0.417 0.271 0.025 0.509 0.152 0.677 0.342 0.146 0.287 0.23 0.624 0.23 0.981 0 0.020-0 0.039-0.001 0.059s0.137 1.97-0.312 2.222c-0.312 0.168-0.762-0.175-1.646-1.745-0.268-0.463-0.542-1.020-0.78-1.594-0.079-0.2-0.144-0.287-0.225-0.355-0.101-0.069-0.219-0.12-0.345-0.145l-2.185-0.001s-0.328 0-0.45 0.152 0 0.389 0 0.389 1.707 3.985 3.634 5.996c0.945 1.043 2.299 1.702 3.806 1.722l0.826 0c0.162-0.018 0.306-0.084 0.42-0.184 0.076-0.106 0.121-0.239 0.121-0.383 0-0.007-0-0.014-0-0.021s0-1.218 0.549-1.401 1.28 1.181 2.042 1.707c0.244 0.197 0.559 0.317 0.901 0.317 0.040 0 0.079-0.002 0.117-0.005l2.029 0s1.067-0.069 0.556-0.899c-0.417-0.681-0.923-1.26-1.512-1.743-1.284-1.191-1.117-1 0.422-3.057 0.93-1.265 1.303-2.027 1.211-2.354zM24.899 8.792c-0.195 0.14-0.321 0.366-0.321 0.621 0 0.164 0.052 0.316 0.14 0.44 1.217 1.708 1.947 3.84 1.947 6.143 0 5.891-4.776 10.667-10.667 10.667s-10.667-4.776-10.667-10.667c0-5.891 4.776-10.667 10.667-10.667 2.068 0 3.998 0.588 5.632 1.606 0.086 0.085 0.258 0.152 0.445 0.152 0.421 0 0.762-0.341 0.762-0.762 0-0.323-0.201-0.599-0.485-0.71-1.82-1.134-4.024-1.805-6.385-1.805-6.733 0-12.19 5.458-12.19 12.19s5.458 12.19 12.19 12.19c6.733 0 12.19-5.458 12.19-12.19 0-2.633-0.835-5.072-2.255-7.065-0.115-0.15-0.337-0.27-0.586-0.27-0.155 0-0.3 0.046-0.42 0.126z"></path>
</svg>
