<!-- Generated by IcoMoon.io -->
<svg version="1.1" xmlns="http://www.w3.org/2000/svg" width="32" height="32" viewBox="0 0 32 32">
<title>warning</title>
<path d="M27.55 23.238l-9.57-16.739c-0.401-0.693-1.139-1.152-1.985-1.152s-1.583 0.459-1.979 1.141l-9.568 16.75c-0.193 0.328-0.306 0.722-0.306 1.143 0 1.262 1.023 2.286 2.286 2.286 0.003 0 0.006 0 0.010-0h7.405c0.421 0 0.762-0.341 0.762-0.762s-0.341-0.762-0.762-0.762h-7.406c-0.001 0-0.002 0-0.003 0-0.421 0-0.762-0.341-0.762-0.762 0-0.14 0.038-0.272 0.104-0.385l9.56-16.758c0.133-0.232 0.38-0.386 0.663-0.386s0.529 0.154 0.661 0.383l9.564 16.766c0.064 0.109 0.102 0.241 0.102 0.381 0 0.421-0.341 0.762-0.762 0.762-0.001 0-0.002 0-0.003 0h-7.276c-0.421 0-0.762 0.341-0.762 0.762s0.341 0.762 0.762 0.762h7.276c1.261-0.002 2.283-1.024 2.283-2.286 0-0.418-0.112-0.809-0.308-1.146zM16 12.191c0.421 0 0.762 0.341 0.762 0.762v5.653c0 0.421-0.341 0.762-0.762 0.762s-0.762-0.341-0.762-0.762v-5.653c0-0.421 0.341-0.762 0.762-0.762zM17.143 22.156c0 0.631-0.512 1.143-1.143 1.143s-1.143-0.512-1.143-1.143c0-0.631 0.512-1.143 1.143-1.143s1.143 0.512 1.143 1.143z"></path>
</svg>
