<!-- Generated by IcoMoon.io -->
<svg version="1.1" xmlns="http://www.w3.org/2000/svg" width="32" height="32" viewBox="0 0 32 32">
<title>win-2</title>
<path d="M10.56 25.676c-0.072 0.114-0.114 0.252-0.114 0.401 0 0.274 0.145 0.515 0.362 0.649 1.477 0.92 3.266 1.464 5.182 1.464 5.47 0 9.905-4.434 9.905-9.905s-4.434-9.905-9.905-9.905c-5.47 0-9.905 4.434-9.905 9.905 0 2.142 0.68 4.125 1.836 5.745 0.119 0.165 0.345 0.29 0.6 0.29 0.421 0 0.762-0.341 0.762-0.762 0-0.166-0.053-0.319-0.143-0.444-0.975-1.351-1.561-3.043-1.561-4.871 0-4.629 3.752-8.381 8.381-8.381s8.381 3.752 8.381 8.381c0 4.629-3.752 8.381-8.381 8.381-1.611 0-3.116-0.455-4.394-1.243-0.074-0.045-0.207-0.084-0.349-0.084-0.28 0-0.524 0.151-0.657 0.375zM19.406 16.175c0-2.080-1.455-3.215-3.55-3.215-1.075 0.001-2.083 0.283-2.956 0.777-0.172 0.101-0.305 0.315-0.305 0.561 0 0.001 0 0.002 0 0.003 0.004 0.354 0.293 0.64 0.648 0.64 0.003 0 0.005-0 0.008-0 0.117-0.003 0.227-0.034 0.323-0.086 0.662-0.44 1.47-0.718 2.34-0.76 0.067-0.007 0.133-0.010 0.199-0.010 0.997 0 1.806 0.808 1.806 1.806 0 0.076-0.005 0.151-0.014 0.224 0.001 1.751-1.279 2.696-4.913 6.086-0.167 0.157-0.272 0.378-0.274 0.624-0.001 0.014-0.001 0.029-0.001 0.045 0 0.375 0.304 0.678 0.678 0.678 0.060 0 0.118-0.008 0.174-0.022l5.176 0.001c0.046 0.017 0.099 0.027 0.154 0.027 0.252 0 0.457-0.205 0.457-0.457 0-0.012-0-0.024-0.001-0.036 0-0.334-0.289-0.608-0.609-1.057h-3.665c2.75-2.415 4.328-3.642 4.328-5.829zM14.545 22.56c0.107-0.079 0.202-0.159 0.29-0.244-0.107 0.222-0.206 0.237-0.29 0.244zM5.714 4.747c-0.074 0.173-0.117 0.374-0.117 0.585 0 0.42 0.17 0.8 0.445 1.076l2.507 2.507c0.132 0.114 0.306 0.183 0.496 0.183 0.421 0 0.762-0.341 0.762-0.762 0-0.19-0.069-0.363-0.184-0.497l-2.498-2.506h2.37l2.065 2.065c0.132 0.114 0.306 0.183 0.496 0.183 0.421 0 0.762-0.341 0.762-0.762 0-0.19-0.069-0.363-0.184-0.497l-2.056-2.064c-0.276-0.278-0.658-0.45-1.081-0.45-0 0-0.001 0-0.001 0h-2.369c-0.001 0-0.002 0-0.003 0-0.63 0-1.17 0.382-1.403 0.927zM24.83 3.81h-2.37c-0.42 0.002-0.8 0.173-1.074 0.449l-2.065 2.057c-0.114 0.132-0.183 0.306-0.183 0.496 0 0.421 0.341 0.762 0.762 0.762 0.19 0 0.363-0.069 0.497-0.184l2.064-2.056h2.37l-2.507 2.507c-0.163 0.141-0.266 0.348-0.266 0.579 0 0.421 0.341 0.762 0.762 0.762 0.231 0 0.438-0.103 0.578-0.265l2.508-2.508c0.274-0.275 0.443-0.655 0.443-1.074 0-0.839-0.679-1.52-1.517-1.524z"></path>
</svg>
