<!-- Generated by IcoMoon.io -->
<svg version="1.1" xmlns="http://www.w3.org/2000/svg" width="32" height="32" viewBox="0 0 32 32">
<title>win-3</title>
<path d="M10.575 4.259c-0.276-0.278-0.658-0.45-1.081-0.45-0 0-0.001 0-0.001 0h-2.369c-0.839 0.004-1.517 0.684-1.517 1.524 0 0.419 0.169 0.799 0.443 1.074l2.507 2.507c0.132 0.114 0.306 0.183 0.496 0.183 0.421 0 0.762-0.341 0.762-0.762 0-0.19-0.069-0.363-0.184-0.497l-2.506-2.506h2.37l2.065 2.065c0.132 0.114 0.306 0.183 0.496 0.183 0.421 0 0.762-0.341 0.762-0.762 0-0.19-0.069-0.363-0.184-0.497zM22.316 8.922c0.138 0.137 0.328 0.222 0.537 0.222s0.399-0.085 0.537-0.222l2.514-2.514c0.274-0.275 0.443-0.655 0.443-1.074 0-0.839-0.679-1.52-1.517-1.524h-2.37c-0.42 0.002-0.8 0.173-1.074 0.449l-2.065 2.057c-0.114 0.132-0.183 0.306-0.183 0.496 0 0.421 0.341 0.762 0.762 0.762 0.19 0 0.363-0.069 0.497-0.184l2.064-2.056h2.37l-2.507 2.507c-0.142 0.138-0.229 0.331-0.229 0.545 0 0.21 0.085 0.399 0.222 0.537zM6.095 18.286c0 0.004 0 0.009 0 0.014 0 2.134 0.679 4.11 1.834 5.723 0.112 0.208 0.361 0.366 0.648 0.366 0.421 0 0.762-0.341 0.762-0.762 0-0.196-0.074-0.375-0.196-0.51-0.976-1.352-1.562-3.044-1.562-4.873 0-4.629 3.752-8.381 8.381-8.381s8.381 3.752 8.381 8.381c0 4.629-3.752 8.381-8.381 8.381-1.611 0-3.116-0.455-4.394-1.243-0.095-0.090-0.267-0.158-0.454-0.158-0.421 0-0.762 0.341-0.762 0.762 0 0.323 0.201 0.599 0.485 0.71 1.474 0.912 3.256 1.451 5.163 1.451 5.47 0 9.905-4.434 9.905-9.905s-4.434-9.905-9.905-9.905c-5.47 0-9.905 4.434-9.905 9.905 0 0.016 0 0.031 0 0.047zM15.558 22.591c-0.679-0.011-1.313-0.193-1.863-0.505-0.026-0.004-0.079-0.012-0.133-0.012s-0.107 0.008-0.156 0.023c-0.010-0.002-0.026-0.003-0.043-0.003-0.353 0-0.64 0.287-0.64 0.64 0 0.286 0.187 0.528 0.446 0.61 0.656 0.286 1.415 0.451 2.213 0.451 0.027 0 0.054-0 0.081-0.001 2.678 0 3.805-1.371 3.805-2.956 0-0.017 0.001-0.037 0.001-0.058 0-1.279-0.955-2.334-2.19-2.494 0.166-0.023 0.329-0.077 0.474-0.157 0.821-0.442 1.378-1.295 1.395-2.28 0-1.45-1.181-2.684-3.269-2.684-0.902 0.006-1.758 0.199-2.532 0.542-0.172 0.080-0.317 0.289-0.317 0.532-0 0.002-0 0.005-0 0.008 0 0.332 0.269 0.602 0.602 0.602 0.003 0 0.005-0 0.008-0-0 0 0 0 0.001 0 0.090 0 0.176-0.017 0.255-0.047 0.566-0.289 1.237-0.465 1.949-0.478 1.14-0 1.81 0.564 1.81 1.608 0 1.234-0.952 1.867-2.286 1.821-0.465 0-0.891 0.137-0.891 0.625 0.011 0.374 0.317 0.674 0.693 0.674 0.024 0 0.048-0.001 0.072-0.004 1.399-0.076 2.58 0.252 2.58 1.791 0.053 1.006-0.571 1.752-2.065 1.752z"></path>
</svg>
