<!-- Generated by IcoMoon.io -->
<svg version="1.1" xmlns="http://www.w3.org/2000/svg" width="32" height="32" viewBox="0 0 32 32">
<title>win-1</title>
<path d="M6.095 18.286c0 0.004 0 0.009 0 0.014 0 2.134 0.679 4.11 1.834 5.723 0.12 0.125 0.322 0.223 0.546 0.223 0.421 0 0.762-0.341 0.762-0.762 0-0.134-0.035-0.261-0.096-0.37-0.975-1.349-1.561-3.041-1.561-4.87 0-4.629 3.752-8.381 8.381-8.381s8.381 3.752 8.381 8.381c0 4.629-3.752 8.381-8.381 8.381-1.611 0-3.116-0.455-4.394-1.243-0.095-0.090-0.267-0.158-0.454-0.158-0.421 0-0.762 0.341-0.762 0.762 0 0.323 0.201 0.599 0.485 0.71 1.474 0.912 3.256 1.451 5.163 1.451 5.47 0 9.905-4.434 9.905-9.905s-4.434-9.905-9.905-9.905c-5.47 0-9.905 4.434-9.905 9.905 0 0.016 0 0.031 0 0.047zM16 24.206c0.421 0 0.762-0.341 0.762-0.762v-9.867c0-0.002 0-0.005 0-0.008 0-0.518-0.42-0.937-0.937-0.937-0.003 0-0.005 0-0.008 0-0.006-0-0.014-0-0.021-0-0.143 0-0.277 0.037-0.394 0.101l-2.541 1.286c-0.205 0.109-0.342 0.32-0.343 0.564 0 0 0 0 0 0 0 0.344 0.274 0.624 0.616 0.632 0.009 0 0.019 0.001 0.029 0.001 0.101 0 0.196-0.026 0.28-0.071l1.795-0.974v9.265c-0 0.002-0 0.005-0 0.008 0 0.421 0.341 0.762 0.762 0.762 0 0 0 0 0 0zM10.575 4.259c-0.276-0.278-0.658-0.45-1.081-0.45-0 0-0.001 0-0.001 0h-2.369c-0.839 0.004-1.517 0.684-1.517 1.524 0 0.419 0.169 0.799 0.443 1.074l2.507 2.507c0.132 0.114 0.306 0.183 0.496 0.183 0.421 0 0.762-0.341 0.762-0.762 0-0.19-0.069-0.363-0.184-0.497l-2.506-2.506h2.37l2.065 2.065c0.132 0.114 0.306 0.183 0.496 0.183 0.421 0 0.762-0.341 0.762-0.762 0-0.19-0.069-0.363-0.184-0.497zM22.316 8.922c0.138 0.137 0.328 0.222 0.537 0.222s0.399-0.085 0.537-0.222l2.514-2.514c0.274-0.275 0.443-0.655 0.443-1.074 0-0.839-0.679-1.52-1.517-1.524h-2.37c-0.42 0.002-0.8 0.173-1.074 0.449l-2.065 2.057c-0.114 0.132-0.183 0.306-0.183 0.496 0 0.421 0.341 0.762 0.762 0.762 0.19 0 0.363-0.069 0.497-0.184l2.064-2.056h2.37l-2.507 2.507c-0.142 0.138-0.229 0.331-0.229 0.545 0 0.21 0.085 0.399 0.222 0.537z"></path>
</svg>
