<!-- Generated by IcoMoon.io -->
<svg version="1.1" xmlns="http://www.w3.org/2000/svg" width="32" height="32" viewBox="0 0 32 32">
<title>youtube</title>
<path d="M20.93 11.192c-1.973-0.145-4.93-0.145-4.93-0.145v0s-2.956 0-4.93 0.145c-0.551 0.005-1.049 0.231-1.409 0.594-0.287 0.391-0.485 0.864-0.555 1.379-0.084 0.696-0.134 1.49-0.139 2.294l-0 1.074c0.005 0.811 0.055 1.605 0.147 2.386 0.062 0.43 0.26 0.903 0.553 1.303 0.398 0.352 0.93 0.578 1.515 0.593 1.131 0.107 4.788 0.145 4.788 0.145s2.956 0 4.93-0.145c0.551-0.005 1.049-0.231 1.409-0.594 0.287-0.391 0.485-0.864 0.555-1.379 0.084-0.696 0.134-1.49 0.139-2.294l0-1.081c-0.005-0.811-0.055-1.605-0.147-2.386-0.062-0.43-0.26-0.903-0.553-1.303-0.347-0.348-0.833-0.572-1.371-0.586zM14.545 17.829v-3.962l3.81 1.989zM24.899 8.792c-0.195 0.14-0.321 0.366-0.321 0.621 0 0.164 0.052 0.316 0.14 0.44 1.217 1.708 1.947 3.84 1.947 6.143 0 5.891-4.776 10.667-10.667 10.667s-10.667-4.776-10.667-10.667c0-5.891 4.776-10.667 10.667-10.667 2.068 0 3.998 0.588 5.632 1.606 0.086 0.085 0.258 0.152 0.445 0.152 0.421 0 0.762-0.341 0.762-0.762 0-0.323-0.201-0.599-0.485-0.71-1.82-1.134-4.024-1.805-6.385-1.805-6.733 0-12.19 5.458-12.19 12.19s5.458 12.19 12.19 12.19c6.733 0 12.19-5.458 12.19-12.19 0-2.633-0.835-5.072-2.255-7.065-0.115-0.15-0.337-0.27-0.586-0.27-0.155 0-0.3 0.046-0.42 0.126z"></path>
</svg>
