<svg width="96" height="96" viewBox="0 0 96 96" fill="none" xmlns="http://www.w3.org/2000/svg">
<path fill-rule="evenodd" clip-rule="evenodd" d="M8 13C8 10.2386 10.2386 8 13 8H83C85.7614 8 88 10.2386 88 13C88 15.7614 85.7614 18 83 18H13C10.2386 18 8 15.7614 8 13ZM8 48C8 45.2386 10.2386 43 13 43H83C85.7614 43 88 45.2386 88 48C88 50.7614 85.7614 53 83 53H13C10.2386 53 8 50.7614 8 48ZM8 83C8 80.2386 10.2386 78 13 78H83C85.7614 78 88 80.2386 88 83C88 85.7614 85.7614 88 83 88H13C10.2386 88 8 85.7614 8 83Z" fill="black"/>
</svg>
