<svg width="96" height="96" viewBox="0 0 96 96" fill="none" xmlns="http://www.w3.org/2000/svg">
<path d="M16.5355 9.46447C14.5829 7.51184 11.4171 7.51184 9.46447 9.46447C7.51184 11.4171 7.51184 14.5829 9.46447 16.5355L41.4289 48.5L9.53553 80.3934C7.58291 82.346 7.58291 85.5118 9.53553 87.4645C11.4882 89.4171 14.654 89.4171 16.6066 87.4645L48.5 55.5711L80.1751 87.2462C82.1278 89.1988 85.2936 89.1988 87.2462 87.2462C89.1988 85.2936 89.1988 82.1278 87.2462 80.1751L55.5711 48.5L87.3173 16.7538C89.2699 14.8012 89.2699 11.6353 87.3173 9.68272C85.3647 7.7301 82.1988 7.7301 80.2462 9.68272L48.5 41.4289L16.5355 9.46447Z" fill="black"/>
</svg>
